{"glyphs":{"0":{"ha":615,"x_min":11,"x_max":606,"o":"m 144 596 q 147 633 145 615 q 265 746 160 752 q 427 593 370 739 q 428 589 427 591 l 422 584 l 435 566 l 402 547 l 381 575 l 368 565 l 388 539 l 322 500 l 316 578 l 359 578 l 359 595 l 315 595 l 313 631 l 340 631 l 340 642 l 311 642 l 304 735 l 300 642 l 274 642 l 274 631 l 300 631 l 298 595 l 260 595 l 260 578 l 298 578 l 294 502 l 228 544 l 248 572 l 235 582 l 214 553 l 182 573 l 200 597 l 189 604 l 172 579 l 144 596 m 439 554 q 462 387 465 471 l 444 399 l 455 414 l 448 420 l 436 404 l 410 422 l 432 452 l 418 461 l 397 431 l 336 474 l 400 523 l 427 488 l 440 497 l 413 533 l 439 554 m 462 376 q 451 292 460 334 q 313 189 420 136 q 170 378 205 241 q 170 379 170 378 l 185 359 l 194 363 l 178 385 l 222 409 l 247 376 l 260 386 l 237 417 l 294 450 l 296 368 l 257 368 l 257 351 l 297 351 l 298 329 l 283 329 l 283 314 l 298 314 l 300 206 l 311 314 l 332 314 l 332 329 l 312 329 l 314 351 l 355 351 l 355 368 l 315 368 l 323 451 l 387 417 l 361 382 l 376 372 l 401 409 l 429 394 l 413 371 l 421 366 l 437 389 l 462 376 m 163 404 q 144 587 142 500 l 165 570 l 147 546 l 155 538 l 174 563 l 204 538 l 179 503 l 192 493 l 216 528 l 281 475 l 224 433 l 200 465 l 187 454 l 211 423 l 171 394 l 163 404 m 103 719 q 78 678 103 719 q 32 554 52 637 q 24 347 11 471 q 131 108 38 223 q 280 -8 224 -7 q 456 141 336 -8 q 537 262 503 198 q 589 443 572 326 q 560 703 606 560 q 278 909 450 937 q 103 719 155 800 z "},"1":{"ha":304,"x_min":9,"x_max":357,"o":"m 98 545 q 96 354 98 465 q 95 344 95 349 l 112 333 l 113 366 l 97 366 l 97 374 l 113 374 l 114 389 l 103 389 l 103 394 l 115 394 l 116 434 l 119 394 l 132 394 l 132 389 l 119 389 l 121 374 l 140 374 l 140 366 l 121 366 l 123 332 l 152 349 l 144 360 l 149 365 l 159 353 l 173 361 l 167 368 l 170 372 l 177 363 l 212 384 l 180 359 l 186 351 l 182 347 l 176 356 l 163 347 l 175 331 l 169 327 l 157 342 l 130 321 l 156 302 l 165 315 l 172 312 l 162 298 l 173 290 l 178 298 l 181 295 l 176 288 l 210 265 l 174 284 l 167 274 l 163 276 l 170 286 l 158 293 l 147 277 l 140 281 l 151 296 l 124 311 l 121 275 l 138 275 l 138 268 l 120 268 l 119 258 l 128 258 l 128 252 l 119 252 l 115 205 l 113 252 l 107 252 l 107 258 l 113 258 l 113 268 l 96 268 l 96 275 l 113 275 l 112 310 l 94 300 l 94 286 l 97 283 l 95 281 q 162 -7 97 42 q 280 95 206 46 q 237 545 242 155 l 222 545 l 220 530 l 234 530 l 234 521 l 220 521 l 214 452 l 212 521 l 203 521 l 203 530 l 212 530 l 212 545 l 186 545 l 186 555 l 211 555 l 210 608 l 172 587 l 188 567 l 179 561 l 163 582 l 135 566 l 145 553 l 140 549 l 130 563 l 98 545 m 95 330 q 94 313 95 321 l 106 321 l 95 330 m 237 555 l 237 604 l 228 609 l 223 555 l 237 555 m 236 646 l 236 690 l 224 690 l 227 640 l 236 646 m 236 701 l 236 724 l 221 724 l 223 701 l 236 701 m 237 731 q 238 890 237 806 l 212 903 l 9 708 l 32 686 l 86 730 q 89 718 87 724 l 131 691 l 142 707 l 149 702 l 138 686 l 158 673 l 172 692 l 180 686 l 167 668 l 210 642 l 212 690 l 188 690 l 188 701 l 212 701 l 214 724 l 197 724 l 197 731 l 214 731 l 216 791 l 220 731 l 237 731 m 89 716 q 98 548 97 667 l 125 568 l 115 581 l 120 586 l 130 572 l 156 591 l 141 610 l 149 617 l 165 597 l 201 624 l 160 658 l 144 635 l 136 642 l 152 665 l 133 680 l 121 665 l 115 669 l 127 685 l 89 716 m 95 330 l 78 345 l 67 329 l 62 333 l 73 349 l 60 359 l 52 349 l 48 352 l 56 363 l 27 387 l 58 366 l 66 377 l 71 374 l 63 363 l 77 355 l 86 368 l 92 363 l 83 351 l 95 344 l 95 330 m 98 545 l 81 536 l 98 548 l 98 545 m 89 716 l 84 720 l 89 718 l 89 716 m 237 731 l 239 731 l 239 724 l 236 724 q 237 731 237 728 m 236 701 l 251 701 l 251 690 l 236 690 l 236 701 m 236 646 l 269 665 l 257 682 l 265 688 l 279 670 l 300 683 l 292 694 l 296 699 l 306 686 l 357 716 l 311 680 l 320 667 l 315 663 l 305 676 l 286 661 l 303 638 l 294 632 l 277 654 l 237 623 l 275 596 l 289 615 l 298 610 l 284 590 l 300 578 l 308 589 l 313 585 l 305 575 l 355 541 l 301 569 l 291 554 l 286 557 l 296 572 l 278 582 l 262 558 l 252 564 l 269 587 l 237 604 q 236 646 236 625 m 237 555 l 249 555 l 249 545 l 237 545 l 237 555 m 95 281 l 91 279 l 80 293 l 61 282 l 68 273 l 64 271 l 58 280 l 25 262 l 55 283 l 48 292 l 52 296 l 58 286 l 75 299 l 65 312 l 71 317 l 81 303 l 94 313 l 94 300 l 87 296 l 94 286 q 95 281 94 283 z "},"2":{"ha":622,"x_min":10,"x_max":608,"o":"m 417 -9 q 553 21 536 -9 q 608 197 577 64 l 591 205 q 455 155 557 153 l 482 135 l 497 155 l 507 150 l 492 128 l 509 115 l 518 127 l 522 123 l 515 112 l 568 75 l 511 106 l 500 90 l 493 92 l 505 109 l 486 119 l 468 94 l 457 100 l 475 125 l 431 149 l 426 90 l 454 90 l 454 79 l 425 79 l 424 63 l 438 63 l 438 54 l 422 54 l 417 -9 m 393 661 l 384 673 l 379 669 l 387 658 l 366 645 l 353 663 l 345 656 l 357 640 l 315 615 l 311 665 l 338 665 l 338 676 l 311 676 l 309 699 l 326 699 l 326 706 l 308 706 l 304 766 l 301 706 l 284 706 l 284 699 l 301 699 l 300 676 l 275 676 l 275 665 l 299 665 l 297 616 l 254 643 l 267 661 l 259 667 l 245 648 l 225 661 l 237 677 l 230 682 l 218 666 l 172 695 l 214 660 l 203 644 l 208 640 l 220 655 l 239 640 l 223 616 l 231 610 l 248 633 l 289 599 l 252 572 l 237 592 l 229 585 l 243 566 l 218 547 l 208 561 l 203 556 l 213 543 l 169 511 l 217 538 l 227 524 l 233 528 l 222 541 l 250 557 l 267 536 l 275 542 l 260 562 l 297 583 l 298 530 l 273 530 l 273 519 l 299 519 l 299 505 l 290 505 l 290 496 l 299 496 l 301 427 l 307 496 l 321 496 l 321 505 l 308 505 l 309 519 l 336 519 l 336 530 l 311 530 l 315 584 l 356 562 l 340 539 l 349 533 l 366 557 l 383 547 l 373 532 l 378 529 l 389 544 l 400 538 q 393 521 397 530 l 321 429 l 10 29 l 41 -5 q 314 -4 99 14 q 416 -9 372 -9 l 414 54 l 404 54 l 404 63 l 414 63 l 413 79 l 386 79 l 386 90 l 413 90 l 412 146 l 372 125 l 388 103 l 378 97 l 361 119 l 331 102 l 342 88 l 336 84 l 326 99 l 273 70 l 321 104 l 310 119 l 315 124 l 326 109 l 353 130 l 337 150 l 347 157 l 363 136 l 394 159 q 191 163 258 172 l 512 591 q 525 785 570 668 q 343 907 479 901 q 125 829 207 913 q 32 645 43 745 q 82 469 22 545 l 215 597 q 160 751 144 681 q 247 807 177 821 q 382 713 316 793 q 409 670 399 693 l 393 661 m 393 550 l 400 560 l 395 564 l 388 553 l 372 565 l 385 585 l 376 590 l 363 571 l 324 598 l 365 629 l 382 607 l 391 613 l 373 636 l 393 651 l 402 637 l 408 642 l 398 655 l 411 665 q 403 543 429 610 l 393 550 m 417 -9 l 416 -21 l 416 -9 l 417 -9 m 394 159 l 402 165 l 358 202 l 340 177 l 332 183 l 349 208 l 328 226 l 315 208 l 310 214 l 322 231 l 277 269 l 326 237 l 339 254 l 347 248 l 334 232 l 357 218 l 371 239 l 379 232 l 366 212 l 412 183 l 414 237 l 388 237 l 388 248 l 414 248 l 415 273 l 398 273 l 398 281 l 416 281 l 418 345 l 424 281 l 444 281 l 444 273 l 424 273 l 426 248 l 456 248 l 456 237 l 427 237 l 430 182 l 476 210 l 463 227 l 471 234 l 486 215 l 509 228 l 500 239 l 505 245 l 516 232 l 571 264 l 520 226 l 531 212 l 524 206 l 515 220 l 494 205 l 513 180 l 503 174 l 484 197 l 441 164 l 455 155 q 406 157 432 155 q 394 159 399 158 z "},"3":{"ha":673,"x_min":-26,"x_max":671,"o":"m 106 828 l 65 767 l 75 747 l 203 747 l 172 774 l 156 751 l 149 757 l 164 780 l 145 795 l 134 780 l 128 785 l 139 800 l 106 828 m 437 395 l 427 408 l 422 403 l 431 392 l 410 379 l 396 397 l 388 391 l 400 374 l 358 349 l 355 399 l 382 399 l 382 410 l 354 410 l 352 433 l 370 433 l 370 440 l 351 440 l 347 500 l 345 440 l 328 440 l 328 433 l 345 433 l 343 410 l 319 410 l 319 399 l 342 399 l 340 351 l 298 377 l 311 395 l 302 401 l 289 382 l 269 395 l 280 411 l 273 416 l 262 400 l 215 429 l 258 394 l 246 378 l 252 374 l 264 389 l 283 374 l 267 351 l 275 345 l 291 367 l 332 333 l 296 306 l 280 326 l 272 319 l 287 300 l 261 281 l 251 295 l 246 290 l 256 277 l 212 245 l 260 272 l 271 258 l 276 262 l 266 275 l 294 291 l 310 270 l 319 276 l 303 296 l 340 317 l 342 264 l 317 264 l 317 254 l 342 254 l 342 239 l 334 239 l 334 230 l 342 230 l 345 161 l 351 230 l 365 230 l 365 239 l 351 239 l 353 254 l 380 254 l 380 264 l 354 264 l 359 318 l 399 296 l 383 273 l 393 267 l 409 291 l 427 281 l 416 267 l 422 263 l 432 278 l 486 250 l 436 284 l 444 294 l 439 298 l 431 288 l 415 299 l 429 319 l 420 324 l 406 305 l 368 332 l 408 363 l 425 341 l 434 347 l 416 370 l 436 385 l 446 372 l 451 376 l 441 389 l 484 422 q 520 350 503 391 q 486 172 566 241 q 329 148 406 102 q 184 261 253 193 q 192 435 115 330 l 170 452 q 56 162 -26 292 q 248 2 138 33 q 427 27 357 -28 q 583 198 496 82 q 653 469 671 313 q 566 602 634 559 q 444 657 509 661 l 613 878 l 598 903 l 157 905 l 106 829 l 143 805 l 155 821 l 162 816 l 150 802 l 171 789 l 184 807 l 192 802 l 179 783 l 221 757 l 223 805 l 199 805 l 199 816 l 223 816 l 224 839 l 208 839 l 208 846 l 225 846 l 227 904 l 232 846 l 250 846 l 250 839 l 232 839 l 234 816 l 262 816 l 262 805 l 235 805 l 238 756 l 279 781 l 268 796 l 275 804 l 290 785 l 310 798 l 301 808 l 306 813 l 316 802 l 366 831 l 320 795 l 330 783 l 323 778 l 315 791 l 296 777 l 313 754 l 304 748 l 288 770 l 258 748 l 439 748 l 363 659 l 262 543 l 284 519 q 419 500 363 541 q 484 422 453 473 l 437 395 m 311 686 l 301 671 l 295 674 l 306 689 l 288 699 l 273 675 l 262 681 l 279 704 l 239 726 l 234 672 l 260 672 l 260 662 l 233 662 l 232 648 l 245 648 l 245 638 l 231 638 l 225 570 l 223 638 l 214 638 l 214 648 l 223 648 l 222 662 l 197 662 l 197 672 l 222 672 l 221 724 l 184 704 l 199 684 l 191 678 l 175 699 l 147 683 l 158 670 l 152 666 l 142 680 l 95 653 l 138 685 l 128 698 l 134 703 l 143 689 l 168 707 l 153 726 l 162 733 l 177 713 l 212 740 l 203 747 l 258 748 l 248 739 l 286 713 l 299 731 l 308 726 l 294 707 l 310 694 l 318 705 l 322 702 l 315 692 l 363 659 l 311 686 m 106 828 l 98 835 l 106 829 l 106 828 z "},"4":{"ha":706,"x_min":22,"x_max":690,"o":"m 332 319 q 329 309 330 314 l 323 309 l 345 296 l 358 315 l 367 309 l 353 291 l 397 264 l 399 313 l 375 313 l 375 325 l 399 325 l 400 349 l 384 349 l 384 355 l 401 355 l 404 416 l 408 355 l 427 355 l 427 349 l 408 349 l 410 325 l 439 325 l 439 313 l 412 313 l 414 262 l 458 288 l 445 304 l 453 311 l 468 293 l 489 305 l 486 309 l 476 309 q 439 572 500 479 l 311 484 q 333 327 346 399 l 336 325 l 332 319 m 418 724 l 406 707 l 412 703 l 424 719 l 444 703 l 427 679 l 435 673 l 452 696 l 495 661 l 456 633 l 441 654 l 433 646 l 448 627 l 422 607 l 411 621 l 406 616 l 416 603 l 371 570 l 420 597 l 431 584 l 437 587 l 426 601 l 455 617 l 472 595 l 481 602 l 465 623 l 503 644 l 505 590 l 479 590 l 479 579 l 505 579 l 505 564 l 496 564 l 496 554 l 505 554 l 507 483 l 514 554 l 528 554 l 528 564 l 515 564 l 516 579 l 544 579 l 544 590 l 517 590 l 522 645 l 564 623 l 547 599 l 557 593 l 574 617 l 593 607 l 582 592 l 587 589 l 598 604 l 653 574 l 602 610 l 610 621 l 605 624 l 597 614 l 580 625 l 594 646 l 585 652 l 571 632 l 531 660 l 573 692 l 591 669 l 600 675 l 582 699 l 602 714 l 612 701 l 617 705 l 608 718 l 656 755 l 602 725 l 593 738 l 588 732 l 597 721 l 574 709 l 561 727 l 552 720 l 565 703 l 522 677 l 517 729 l 546 729 l 546 741 l 517 741 l 515 764 l 533 764 l 533 771 l 515 771 l 510 833 l 507 771 l 490 771 l 490 764 l 507 764 l 506 741 l 481 741 l 481 729 l 505 729 l 503 678 l 459 706 l 472 725 l 465 731 l 450 712 l 429 726 l 441 741 l 434 746 l 422 730 l 376 759 q 378 807 382 788 q 315 912 359 907 l 173 785 q 22 178 258 737 l 46 151 q 297 179 83 173 l 311 189 l 301 202 l 307 208 l 317 193 l 342 212 l 327 232 l 336 239 l 351 218 l 388 246 l 346 281 l 330 258 l 321 264 l 338 287 l 319 303 l 307 287 l 301 292 l 313 309 l 311 309 l 126 313 q 375 759 347 633 l 418 724 m 307 179 q 319 180 313 179 l 315 184 l 307 179 m 331 174 q 386 -57 318 -4 l 528 28 q 472 184 468 77 l 479 184 l 485 193 l 467 203 l 450 179 l 440 185 l 456 208 l 416 231 l 410 176 l 437 176 l 437 165 l 410 165 l 408 150 l 422 150 l 422 141 l 408 141 l 401 71 l 399 141 l 390 141 l 390 150 l 399 150 l 398 165 l 373 165 l 373 176 l 398 176 l 397 229 l 359 208 l 375 188 l 366 182 l 349 203 l 321 187 l 327 180 l 332 180 q 331 174 332 177 l 332 174 l 331 174 m 486 184 l 500 184 l 490 190 l 486 184 m 511 184 l 613 184 l 690 289 l 679 311 l 507 309 l 499 303 l 509 290 l 503 285 l 494 298 l 475 284 l 492 260 l 483 254 l 466 277 l 425 245 l 464 218 l 478 237 l 487 232 l 473 212 l 489 199 l 497 210 l 501 206 l 494 196 l 511 184 m 486 184 l 480 175 l 474 178 l 479 184 l 486 184 m 331 174 l 326 170 l 319 180 l 327 180 l 331 174 l 331 174 m 307 179 l 267 156 l 297 179 l 307 179 m 332 319 l 323 309 l 311 309 l 270 345 l 317 313 l 329 330 l 333 327 q 332 319 332 323 m 486 309 l 480 317 l 485 321 l 495 309 l 486 309 m 495 309 l 547 340 l 507 309 l 495 309 m 511 184 l 544 161 l 500 184 l 511 184 z "},"5":{"ha":641,"x_min":20,"x_max":646,"o":"m 548 191 q 589 248 568 218 q 615 438 646 328 q 475 618 583 548 q 374 658 429 648 l 372 625 l 371 659 q 213 646 299 670 l 214 772 l 354 774 l 361 779 l 324 809 l 310 789 l 302 794 l 317 814 l 300 829 l 290 814 l 284 819 l 295 833 l 257 864 l 298 838 l 309 852 l 315 848 l 304 834 l 323 823 l 334 840 l 342 834 l 330 818 l 368 794 l 370 838 l 349 838 l 349 848 l 371 848 l 372 868 l 357 868 l 357 874 l 372 874 l 373 899 l 229 898 l 94 741 l 81 502 l 115 480 q 275 523 194 540 l 275 527 l 305 527 l 310 634 l 317 527 l 351 527 l 351 514 l 319 514 l 319 508 q 370 477 345 496 q 433 423 406 450 l 461 439 l 446 460 l 454 468 l 471 446 l 564 500 l 479 435 l 497 412 l 488 404 l 469 427 l 448 410 q 524 268 525 332 q 516 214 524 238 l 548 191 m 398 774 l 476 774 l 589 876 l 574 900 l 376 899 l 378 874 l 394 874 l 394 868 l 378 868 l 380 848 l 405 848 l 405 838 l 381 838 l 384 793 l 421 814 l 410 830 l 418 836 l 430 820 l 448 831 l 441 841 l 446 845 l 454 834 l 500 861 l 458 829 l 467 817 l 462 813 l 454 825 l 436 812 l 452 791 l 444 786 l 429 806 l 393 778 l 398 774 m 81 500 l 80 483 l 103 470 q 110 476 106 473 l 81 500 m 159 243 q 161 349 135 286 l 135 358 l 20 175 q 208 -3 104 22 q 370 3 311 -28 q 480 100 430 35 q 547 190 512 142 l 514 208 q 454 142 497 163 q 316 137 394 111 l 305 24 l 302 142 q 292 146 297 144 q 288 148 290 147 l 286 148 l 286 149 q 166 231 199 188 l 163 229 l 182 205 l 172 200 l 153 224 l 67 176 l 146 233 l 128 257 l 137 266 l 155 241 l 159 243 m 302 142 l 302 148 l 288 148 q 286 149 287 149 l 286 165 l 302 165 l 301 191 l 255 191 l 255 211 l 300 211 l 298 304 l 231 267 l 259 231 l 243 220 l 214 258 l 166 231 q 165 233 165 232 q 159 243 161 238 l 202 274 l 174 309 l 189 322 l 216 286 l 283 334 l 208 395 l 180 355 l 165 366 l 194 407 l 159 435 l 138 407 l 128 416 l 149 444 l 110 476 q 115 480 113 478 l 157 454 l 177 483 l 189 475 l 168 447 l 205 424 l 230 457 l 244 446 l 221 414 l 298 365 l 302 453 l 259 453 l 259 473 l 302 473 l 305 514 q 319 508 313 511 l 321 473 l 372 473 l 372 453 l 323 453 l 330 363 l 406 408 l 383 437 l 398 450 l 422 417 l 433 423 q 448 410 441 417 l 435 401 l 467 359 l 451 349 l 420 389 l 347 333 l 416 283 l 441 318 l 457 308 l 432 273 l 462 252 l 475 270 l 484 264 l 471 246 l 516 214 q 514 208 515 211 l 463 235 l 444 208 l 435 214 l 454 241 l 422 258 l 392 216 l 375 227 l 405 267 l 331 307 l 322 211 l 368 211 l 368 191 l 321 191 l 319 165 l 342 165 l 342 148 l 317 148 l 316 137 q 302 142 309 140 m 373 899 l 374 927 l 376 899 l 373 899 m 371 659 l 370 687 l 362 687 l 362 695 l 370 695 l 370 708 l 347 708 l 347 718 l 370 718 l 368 764 l 335 745 l 349 728 l 341 722 l 327 741 l 302 727 l 311 715 l 306 712 l 297 724 l 254 701 l 294 729 l 284 741 l 289 745 l 298 732 l 321 749 l 307 766 l 315 772 l 328 754 l 354 774 l 398 774 l 427 754 l 439 770 l 447 766 l 435 749 l 449 738 l 456 747 l 460 744 l 454 735 l 497 705 l 450 730 l 441 716 l 436 720 l 445 732 l 429 741 l 415 720 l 406 726 l 420 745 l 385 765 l 380 718 l 404 718 l 404 708 l 379 708 l 378 695 l 390 695 l 390 687 l 377 687 l 374 658 q 371 659 373 658 m 81 500 l 72 507 l 81 502 l 81 500 m 304 514 l 275 514 l 275 523 q 304 514 290 519 m 548 191 l 559 183 l 547 190 q 548 191 547 191 z "},"6":{"ha":600,"x_min":19,"x_max":621,"o":"m 179 413 q 136 368 157 393 q 206 238 157 294 l 210 240 l 197 256 l 203 262 l 216 245 l 248 269 l 229 293 l 239 302 l 259 276 l 305 311 l 253 353 l 233 325 l 222 332 l 243 361 l 219 381 l 203 361 l 197 368 l 211 387 l 179 413 m 319 153 l 320 94 l 326 150 q 319 153 322 151 m 480 215 l 498 205 l 481 217 q 480 215 481 216 m 454 364 l 454 365 l 451 370 q 454 364 452 367 m 444 382 l 501 427 l 439 390 q 442 385 440 388 q 444 382 443 384 m 327 477 l 323 520 l 321 477 l 327 477 m 182 416 l 157 431 l 179 413 q 182 416 181 414 m 206 238 l 154 200 l 212 232 q 206 238 209 235 m 212 232 q 229 215 220 223 q 319 153 273 173 l 318 180 l 307 180 l 307 193 l 318 193 l 318 210 l 286 210 l 286 224 l 317 224 l 315 290 l 269 263 l 288 239 l 277 231 l 256 258 l 221 238 l 234 220 l 227 216 l 214 233 l 212 232 m 326 150 q 368 138 347 142 q 475 200 441 125 q 480 215 478 207 l 431 241 l 418 222 l 411 227 l 424 245 l 401 258 l 381 228 l 369 235 l 389 263 l 338 292 l 332 224 l 365 224 l 365 210 l 330 210 l 329 193 l 346 193 l 346 180 l 328 180 l 326 150 m 481 217 q 454 364 499 279 l 448 359 l 435 376 l 411 357 l 433 328 l 422 321 l 401 349 l 349 309 l 398 275 l 415 299 l 426 292 l 409 268 l 429 253 l 439 266 l 445 262 l 435 249 l 481 217 m 451 370 q 444 382 448 376 l 442 381 l 451 370 m 439 390 q 327 477 388 471 l 329 445 l 352 445 l 352 437 l 330 437 l 332 408 l 367 408 l 367 394 l 333 394 l 337 331 l 390 361 l 375 382 l 385 391 l 402 368 l 429 385 l 418 398 l 425 404 l 436 389 l 439 390 m 321 477 q 290 474 307 478 q 182 416 233 459 l 216 395 l 231 414 l 239 408 l 224 389 l 250 372 l 267 397 l 277 389 l 262 366 l 315 332 l 318 394 l 288 394 l 288 408 l 319 408 l 320 437 l 299 437 l 299 445 l 320 445 l 321 477 m 426 612 l 446 623 l 454 612 l 458 615 l 450 625 l 471 637 l 484 622 l 491 626 l 479 642 l 507 657 l 509 617 l 489 617 l 489 609 l 509 609 l 509 597 l 503 597 l 503 591 l 509 591 l 510 562 q 513 559 511 560 l 515 591 l 526 591 l 526 597 l 516 597 l 517 609 l 538 609 l 538 617 l 517 617 l 522 659 l 552 642 l 540 624 l 547 619 l 560 637 l 574 630 l 566 618 l 570 616 l 578 628 l 618 606 l 581 632 l 586 640 l 583 643 l 577 635 l 564 644 l 575 659 l 568 663 l 557 648 l 528 669 l 559 693 l 572 676 l 579 681 l 566 699 l 581 709 l 587 699 l 592 703 l 585 713 l 621 741 l 581 718 l 574 727 l 570 724 l 577 715 l 561 705 l 550 720 l 544 714 l 553 702 l 521 682 l 518 721 l 539 721 l 539 730 l 517 730 l 516 747 l 530 747 l 530 753 l 516 753 l 512 798 l 511 753 l 498 753 l 498 747 l 510 747 l 509 730 l 491 730 l 491 721 l 509 721 l 507 683 l 475 704 l 484 718 l 478 722 l 469 708 l 452 718 l 461 730 l 456 733 l 447 721 l 442 724 l 439 721 l 444 717 l 435 705 l 439 701 l 448 713 l 463 701 l 451 683 l 457 679 l 469 696 l 500 670 l 473 649 l 461 665 l 454 659 l 466 645 l 447 630 l 439 641 l 435 637 l 443 627 l 422 612 q 426 612 425 612 m 513 559 q 573 470 547 524 q 565 272 617 374 q 477 120 513 170 q 402 31 442 70 q 313 -5 363 -7 q 201 33 262 -3 q 87 133 139 68 q 27 303 35 199 q 46 526 19 407 q 164 761 74 644 q 324 901 254 878 q 462 896 395 923 q 527 817 530 868 l 442 724 l 412 744 l 439 721 l 427 707 q 342 770 401 768 q 248 760 284 772 q 165 668 212 747 q 123 412 119 589 q 273 578 165 517 q 422 612 359 626 l 409 602 l 426 612 q 454 602 441 608 q 510 562 485 587 l 511 538 l 513 559 z "},"7":{"ha":552,"x_min":-3,"x_max":536,"o":"m 310 545 q 201 218 218 318 q 264 -5 178 79 l 371 142 q 333 245 342 194 l 328 242 l 334 233 l 330 231 l 323 239 l 291 222 l 321 243 l 314 252 l 317 255 l 324 246 l 332 252 q 329 285 329 268 q 328 292 328 288 l 328 293 l 328 294 q 329 317 328 305 l 326 319 l 317 309 l 314 312 l 321 322 l 293 346 l 325 326 l 331 335 q 357 446 337 386 q 536 888 389 536 l 524 901 l 100 901 l -3 736 l 6 712 q 199 747 57 743 l 201 810 l 205 747 q 393 742 286 749 q 313 551 347 637 l 365 515 l 310 545 m 330 323 l 330 325 l 329 323 l 330 323 m 310 545 l 302 549 l 289 531 l 283 534 l 296 553 l 275 563 l 255 536 l 243 543 l 263 570 l 215 595 l 210 533 l 240 533 l 240 520 l 208 520 l 206 503 l 222 503 l 222 492 l 205 492 l 198 410 l 196 492 l 185 492 l 185 503 l 196 503 l 195 520 l 165 520 l 165 533 l 195 533 l 193 594 l 150 570 l 168 546 l 157 539 l 138 563 l 105 545 l 118 529 l 111 525 l 98 541 l 42 510 l 94 547 l 82 563 l 87 568 l 100 553 l 130 574 l 113 597 l 123 606 l 140 582 l 184 613 l 134 654 l 117 627 l 106 634 l 125 661 l 103 680 l 88 661 l 82 667 l 95 686 l 45 726 l 100 692 l 114 711 l 123 705 l 108 687 l 133 672 l 149 694 l 158 687 l 143 665 l 193 633 l 196 692 l 168 692 l 168 705 l 197 705 l 198 731 l 178 731 l 178 739 l 198 739 l 199 747 l 205 747 l 206 739 l 228 739 l 228 731 l 208 731 l 209 705 l 242 705 l 242 692 l 210 692 l 215 633 l 264 661 l 250 681 l 258 688 l 275 667 l 300 682 l 290 695 l 296 701 l 307 686 l 368 722 l 313 679 l 323 665 l 318 659 l 306 674 l 283 657 l 303 629 l 294 623 l 273 649 l 225 612 l 271 581 l 287 603 l 297 596 l 281 573 l 300 560 l 309 572 l 315 568 l 307 555 l 313 551 q 310 545 311 548 m 331 335 l 332 337 l 337 334 l 330 325 q 331 335 330 330 m 330 323 l 343 315 l 352 328 l 357 323 l 349 311 l 378 293 l 379 326 l 363 326 l 363 334 l 380 334 l 380 349 l 369 349 l 369 353 l 380 353 l 382 394 l 385 353 l 397 353 l 397 349 l 386 349 l 387 334 l 406 334 l 406 326 l 387 326 l 390 292 l 418 309 l 410 320 l 416 325 l 425 312 l 439 321 l 433 328 l 437 332 l 443 323 l 478 343 l 446 319 l 453 311 l 449 307 l 443 316 l 429 307 l 441 290 l 435 286 l 424 302 l 396 281 l 422 262 l 432 275 l 437 271 l 429 258 l 439 250 l 444 257 l 448 255 l 443 248 l 476 224 l 440 243 l 433 233 l 429 236 l 436 246 l 425 252 l 413 236 l 407 241 l 418 256 l 390 271 l 387 235 l 404 235 l 404 227 l 386 227 l 385 218 l 395 218 l 395 211 l 385 211 l 380 164 l 379 211 l 373 211 l 373 218 l 379 218 l 379 227 l 361 227 l 361 235 l 379 235 l 378 270 l 353 256 l 363 242 l 357 238 l 346 252 l 333 245 q 332 252 332 248 l 342 258 l 332 272 l 337 276 l 347 262 l 372 281 l 345 304 l 333 289 l 328 292 l 328 294 l 339 309 l 329 317 q 330 323 330 319 z "},"8":{"ha":578,"x_min":20,"x_max":569,"o":"m 184 236 q 171 264 177 250 q 164 388 142 334 l 146 378 l 166 393 q 189 427 175 410 l 186 431 l 193 437 l 195 433 q 199 437 197 435 q 214 429 207 433 l 233 443 l 216 465 l 227 473 l 244 450 l 286 481 l 238 522 l 219 494 l 210 501 l 229 528 l 206 547 l 193 528 l 186 534 l 199 553 l 150 594 l 204 559 l 218 578 l 227 572 l 212 554 l 237 538 l 252 561 l 262 554 l 246 533 l 297 501 l 299 559 l 271 559 l 271 572 l 299 572 l 300 596 q 296 599 298 597 l 281 599 l 281 607 q 239 631 262 618 q 172 724 171 671 q 263 771 173 776 q 284 769 274 770 l 280 772 l 292 789 l 278 801 l 269 789 l 265 793 l 273 804 l 242 830 l 277 808 l 285 820 l 290 817 l 281 806 l 297 795 l 307 810 l 313 805 l 303 791 l 335 772 l 336 808 l 319 808 l 319 816 l 337 816 l 338 833 l 326 833 l 326 838 l 338 838 l 340 882 l 343 838 l 357 838 l 357 833 l 344 833 l 345 816 l 366 816 l 366 808 l 345 808 l 348 771 l 379 789 l 370 802 l 376 806 l 386 793 l 401 802 l 395 810 l 399 814 l 406 805 l 444 827 l 410 800 l 416 791 l 413 787 l 406 798 l 391 787 l 404 769 l 397 765 l 385 782 l 355 758 l 383 738 l 393 752 l 400 748 l 390 734 l 402 726 l 408 732 l 411 730 l 406 723 l 442 697 l 403 718 l 395 707 l 391 709 l 399 720 l 386 728 l 377 715 q 389 694 383 705 q 348 572 425 623 q 311 591 332 579 l 312 572 l 345 572 l 345 559 l 313 559 l 317 500 l 366 530 l 352 548 l 361 556 l 378 535 l 392 543 q 380 550 386 547 q 393 561 387 555 l 392 562 l 397 568 l 399 566 q 493 786 528 683 q 342 907 454 896 q 183 839 229 919 q 98 693 138 758 q 77 570 58 627 q 174 458 96 513 q 27 229 20 330 q 129 54 35 129 q 342 -7 222 -22 q 519 216 470 145 q 549 375 569 287 q 419 526 532 450 l 418 526 q 402 537 411 532 l 386 525 l 406 498 l 395 491 l 376 517 l 328 480 l 373 448 l 389 471 l 400 465 l 384 441 l 402 427 l 412 440 l 416 435 l 408 424 l 466 384 l 404 416 l 392 399 l 385 403 l 397 420 l 376 432 l 358 404 l 346 411 l 365 438 l 318 464 l 312 400 l 342 400 l 342 389 l 311 389 l 310 372 q 311 371 311 372 l 325 371 l 325 362 q 405 296 377 326 q 435 182 460 235 q 313 145 411 129 q 281 153 296 147 l 276 146 l 315 119 l 273 142 l 265 130 l 260 132 l 269 144 l 255 151 l 242 133 l 235 138 l 248 155 l 216 172 l 212 131 l 232 131 l 232 123 l 211 123 l 210 111 l 220 111 l 220 104 l 210 104 l 205 50 l 203 104 l 196 104 l 196 111 l 203 111 l 203 123 l 183 123 l 183 131 l 203 131 l 201 172 l 172 155 l 184 140 l 178 135 l 165 151 l 144 139 l 151 129 l 147 126 l 139 137 l 102 116 l 136 141 l 128 151 l 132 155 l 140 144 l 160 158 l 149 174 l 155 179 l 167 163 l 195 184 l 163 211 l 151 193 l 144 198 l 157 216 l 142 228 l 132 216 l 128 220 l 137 232 l 104 259 l 140 237 l 149 249 l 155 245 l 146 233 l 161 222 l 172 237 l 178 233 l 168 218 l 201 198 l 202 210 q 184 236 193 222 m 298 379 l 298 389 l 283 389 q 298 379 291 384 m 269 397 l 269 400 l 298 400 l 297 461 l 254 438 l 271 414 l 260 408 l 241 432 l 225 422 q 269 397 248 410 m 287 768 q 326 757 308 765 l 329 759 l 298 784 l 287 768 m 349 743 q 371 722 361 734 l 378 732 l 349 747 l 349 743 m 277 155 q 262 161 269 157 l 260 158 l 273 149 l 277 155 m 254 165 q 224 186 239 174 l 222 184 l 253 163 l 254 165 m 278 157 l 282 154 l 281 153 q 277 155 279 153 l 278 157 m 418 526 l 408 541 l 402 537 q 392 543 397 540 l 402 549 l 393 561 q 399 566 396 564 l 410 554 l 469 589 l 414 547 l 426 532 l 419 526 q 418 526 419 526 m 164 388 q 166 393 165 390 l 198 416 l 189 427 q 195 433 192 430 l 204 420 l 214 429 q 225 422 220 425 l 209 413 l 222 398 l 214 393 l 203 410 l 164 388 m 269 397 q 283 389 276 393 l 269 389 l 269 397 m 311 371 q 325 362 318 366 l 325 360 l 309 360 l 301 279 l 299 360 l 288 360 l 288 371 l 299 371 l 298 379 q 310 372 304 376 l 310 371 l 311 371 m 296 599 q 281 607 289 603 l 301 607 l 304 676 l 310 607 l 331 607 l 331 599 l 310 599 l 311 591 q 300 596 306 593 l 300 599 l 296 599 m 374 710 l 366 715 l 371 722 q 377 715 374 718 l 374 710 m 345 708 l 363 708 l 363 701 l 345 701 l 343 690 l 353 690 l 353 682 l 342 682 l 338 631 l 336 682 l 330 682 l 330 690 l 336 690 l 336 701 l 317 701 l 317 708 l 336 708 l 335 747 l 308 732 l 319 717 l 313 712 l 300 728 l 279 716 l 288 706 l 283 704 l 275 713 l 240 694 l 273 718 l 265 727 l 269 731 l 277 720 l 296 734 l 284 749 l 290 754 l 302 739 l 326 757 q 349 743 338 751 l 345 708 m 286 768 l 284 769 q 287 768 286 768 l 286 768 m 203 236 l 184 236 l 184 244 l 203 244 l 205 262 l 191 262 l 191 268 l 205 268 l 207 314 l 210 268 l 224 268 l 224 262 l 210 262 l 212 244 l 234 244 l 234 236 l 213 236 l 215 197 l 248 216 l 239 229 l 245 235 l 256 220 l 272 230 l 265 239 l 269 242 l 277 233 l 317 256 l 280 228 l 288 218 l 283 214 l 276 225 l 260 213 l 275 195 l 268 191 l 254 208 l 224 186 q 202 210 212 196 l 203 236 m 263 177 l 270 173 l 262 161 q 254 165 258 163 l 263 177 z "},"9":{"ha":602,"x_min":20,"x_max":592,"o":"m 270 439 q 178 506 216 450 l 181 508 l 168 526 l 205 547 l 227 519 l 238 527 l 218 553 l 267 581 l 269 512 l 235 512 l 235 498 l 269 498 l 269 479 l 258 479 l 258 465 l 269 465 l 270 439 m 178 506 l 174 504 l 161 522 l 97 486 l 155 528 l 142 546 l 149 552 l 161 535 q 164 530 163 532 q 178 506 171 517 m 134 702 l 101 730 l 136 708 q 135 705 136 706 q 134 702 134 703 m 273 772 l 275 823 l 279 771 q 273 772 276 772 m 380 700 l 382 701 l 394 685 l 463 724 l 400 676 l 413 660 l 407 654 q 381 699 395 678 q 380 700 380 699 m 445 501 l 458 492 l 444 500 q 445 501 444 500 m 278 437 l 272 374 l 270 439 q 278 437 274 438 m 161 535 q 134 702 110 633 l 157 683 l 142 663 l 149 656 l 165 677 l 191 656 l 169 626 l 180 618 l 201 648 l 256 603 l 207 568 l 186 593 l 176 585 l 196 558 l 162 534 l 161 535 m 136 708 q 245 775 164 776 q 273 772 260 774 l 272 745 l 250 745 l 250 735 l 272 735 l 270 705 l 238 705 l 238 690 l 269 690 l 267 626 l 210 661 l 227 686 l 216 693 l 199 669 l 172 686 l 186 706 l 178 712 l 163 691 l 136 708 m 279 771 q 380 700 340 758 l 376 694 l 387 680 l 358 664 l 340 688 l 329 678 l 346 657 l 290 624 l 286 690 l 321 690 l 321 705 l 284 705 l 282 735 l 305 735 l 305 745 l 281 745 l 279 771 m 407 654 q 449 508 437 592 q 445 501 447 505 l 394 538 l 404 551 l 397 556 l 387 542 l 365 557 l 384 583 l 372 591 l 354 565 l 302 602 l 357 644 l 379 613 l 391 621 l 368 652 l 393 671 l 406 653 l 407 654 m 444 500 q 319 437 410 448 q 278 437 298 434 l 281 465 l 299 465 l 299 479 l 281 479 l 283 498 l 319 498 l 319 512 l 285 512 l 291 582 l 345 553 l 323 524 l 336 515 l 357 547 l 381 534 l 368 515 l 374 510 l 388 530 l 444 500 m 216 186 q 202 209 208 197 l 94 81 q 158 2 91 30 q 304 -4 226 -26 q 469 144 382 18 q 573 387 555 270 q 574 604 592 505 q 504 770 556 704 q 405 870 452 836 q 319 907 358 905 q 226 874 279 909 q 117 772 172 838 q 41 612 62 707 q 55 436 20 518 q 178 313 89 355 q 208 302 193 306 l 184 320 l 221 299 q 229 297 225 298 l 239 308 l 245 304 l 237 296 q 281 299 260 294 l 281 304 l 301 304 q 303 305 302 304 l 304 323 l 289 323 l 289 329 l 304 329 l 307 379 l 311 329 l 328 329 l 328 323 l 311 323 l 313 309 q 347 328 330 317 q 458 482 427 384 q 443 229 477 309 q 418 180 430 199 l 435 168 l 416 178 q 372 137 395 144 q 309 135 346 128 l 304 94 l 304 136 q 282 141 293 138 q 218 183 243 153 l 181 165 l 216 186 m 304 136 l 303 152 l 294 152 l 294 159 l 303 159 l 302 172 l 279 172 l 279 180 l 302 180 l 301 224 l 267 208 l 281 191 l 273 186 l 257 203 l 231 190 l 241 178 l 235 176 l 227 187 l 218 183 q 216 186 217 185 l 222 191 l 213 203 l 218 208 l 227 195 l 251 211 l 237 227 l 245 233 l 259 216 l 293 239 l 254 267 l 239 248 l 231 254 l 247 273 l 229 286 l 218 273 l 213 277 l 223 290 l 208 302 q 221 299 214 300 l 227 295 l 229 297 q 237 296 233 297 l 233 292 l 253 280 l 265 296 l 273 292 l 261 275 l 301 254 l 303 295 l 281 295 l 281 299 q 301 304 291 301 l 303 304 l 303 305 q 313 309 308 307 l 313 304 l 339 304 l 339 295 l 315 295 l 317 252 l 357 274 l 345 287 l 353 293 l 366 277 l 385 288 l 377 297 l 381 302 l 391 292 l 439 316 l 395 286 l 404 275 l 399 271 l 391 282 l 372 270 l 389 251 l 379 246 l 363 264 l 326 238 l 361 216 l 375 231 l 383 227 l 370 210 l 385 200 l 393 209 l 397 206 l 391 197 l 418 180 q 416 178 417 178 l 387 193 l 377 180 l 371 182 l 381 195 l 365 203 l 349 183 l 340 188 l 355 208 l 317 227 l 313 180 l 337 180 l 337 172 l 313 172 l 311 159 l 323 159 l 323 152 l 311 152 l 309 135 q 304 136 306 135 z "}," ":{"ha":208,"x_min":0,"x_max":0,"o":""},"!":{"ha":517,"x_min":-26,"x_max":530,"o":"m 192 9 q 164 -6 192 9 q 137 -93 136 -22 q 197 -196 137 -164 q 309 -205 258 -228 q 374 -141 359 -182 q 374 -55 389 -100 q 304 15 360 -10 q 192 9 248 41 m 241 -209 l 241 -197 l 252 -197 l 252 -182 l 222 -182 l 222 -170 l 251 -170 l 250 -113 l 208 -136 l 225 -157 l 216 -164 l 198 -142 l 167 -159 l 178 -173 l 172 -178 l 161 -161 l 108 -191 l 155 -156 l 146 -142 l 151 -136 l 162 -153 l 191 -130 l 174 -110 l 182 -102 l 199 -124 l 241 -94 l 195 -57 l 178 -81 l 168 -75 l 186 -50 l 165 -33 l 152 -50 l 146 -44 l 158 -26 l 112 12 l 163 -21 l 175 -3 l 182 -8 l 171 -24 l 193 -40 l 207 -18 l 216 -24 l 203 -45 l 250 -76 l 252 -21 l 225 -21 l 225 -8 l 252 -8 l 254 17 l 235 17 l 235 24 l 254 24 l 256 90 l 262 24 l 281 24 l 281 17 l 262 17 l 265 -8 l 296 -8 l 296 -21 l 265 -21 l 269 -76 l 315 -49 l 302 -31 l 311 -23 l 326 -43 l 350 -30 l 341 -17 l 346 -12 l 356 -24 l 413 7 l 361 -33 l 372 -47 l 367 -52 l 355 -37 l 333 -53 l 353 -79 l 343 -85 l 324 -60 l 280 -94 l 323 -125 l 337 -104 l 347 -110 l 332 -132 l 350 -144 l 357 -134 l 364 -137 l 356 -149 l 409 -187 l 351 -155 l 340 -172 l 333 -168 l 345 -153 l 326 -142 l 307 -168 l 297 -161 l 315 -136 l 270 -111 l 265 -170 l 293 -170 l 293 -182 l 264 -182 l 262 -197 l 277 -197 l 277 -209 l 261 -209 l 256 -237 l 252 -209 l 241 -209 m 170 490 l 231 490 l 232 550 l 172 550 l 172 568 l 228 568 l 233 655 l 178 625 l 204 589 l 189 578 l 162 615 l 114 587 l 132 564 l 122 555 l 104 583 l -26 507 l 96 591 l 82 615 l 88 625 l 106 597 l 151 633 l 124 667 l 138 680 l 164 644 l 228 692 l 158 753 l 130 713 l 116 724 l 144 764 l 111 792 l 91 764 l 82 774 l 100 804 l -25 900 l 109 811 l 126 841 l 138 832 l 120 806 l 153 781 l 176 816 l 189 806 l 170 772 l 241 722 l 245 811 l 204 811 l 204 832 l 245 832 l 249 873 l 220 873 l 220 885 l 249 885 l 254 1088 l 262 885 l 291 885 l 291 873 l 262 873 l 266 832 l 313 832 l 313 811 l 266 811 l 271 722 l 343 766 l 323 795 l 337 808 l 359 776 l 397 797 l 383 818 l 391 827 l 406 806 l 530 890 l 414 792 l 431 769 l 423 762 l 406 785 l 370 760 l 401 718 l 387 707 l 357 748 l 289 692 l 355 642 l 377 675 l 393 667 l 368 631 l 397 610 l 408 627 l 419 623 l 406 604 l 529 502 l 399 594 l 381 566 l 370 573 l 389 597 l 359 615 l 331 573 l 315 583 l 343 625 l 276 654 l 281 568 l 336 568 l 336 550 l 277 550 l 276 490 l 341 490 l 278 450 l 250 213 l 231 447 l 170 490 m 146 882 q 100 855 146 882 q 54 703 54 827 q 247 145 55 578 q 449 618 425 547 q 449 769 473 690 q 332 892 425 848 q 146 882 239 937 z "},"\"":{"ha":524,"x_min":-4,"x_max":552,"o":"m 88 701 q 88 688 81 699 q 62 630 108 648 q 72 602 51 611 q 267 751 237 620 q 165 686 227 689 q 88 701 104 684 m 80 917 q 52 901 80 917 q 25 814 24 886 q 85 711 25 743 q 197 703 146 680 q 262 766 248 726 q 262 852 277 807 q 192 923 248 897 q 80 917 136 948 m 130 699 l 130 710 l 140 710 l 140 726 l 111 726 l 111 737 l 139 737 l 138 795 l 96 772 l 113 750 l 104 743 l 86 766 l 55 749 l 66 734 l 60 729 l 49 746 l -4 716 l 43 751 l 35 766 l 39 772 l 50 755 l 79 777 l 62 798 l 71 806 l 87 783 l 129 813 l 83 850 l 66 826 l 56 833 l 75 857 l 53 875 l 40 857 l 35 863 l 46 882 l 0 919 l 52 886 l 63 905 l 71 899 l 59 883 l 81 867 l 95 889 l 104 883 l 92 862 l 138 831 l 140 886 l 113 886 l 113 899 l 140 899 l 142 924 l 123 924 l 123 932 l 142 932 l 144 998 l 151 932 l 170 932 l 170 924 l 151 924 l 153 899 l 184 899 l 184 886 l 153 886 l 157 831 l 203 859 l 191 876 l 199 884 l 214 865 l 238 878 l 229 890 l 234 896 l 244 883 l 301 915 l 250 875 l 260 861 l 255 856 l 243 870 l 221 854 l 241 829 l 231 822 l 212 848 l 168 813 l 211 782 l 225 803 l 235 798 l 220 776 l 238 763 l 245 773 l 252 770 l 244 759 l 297 720 l 239 753 l 228 736 l 221 740 l 233 755 l 214 766 l 195 740 l 185 746 l 203 772 l 158 796 l 153 737 l 181 737 l 181 726 l 152 726 l 151 710 l 165 710 l 165 699 l 149 699 l 145 541 l 140 699 l 130 699 m 339 701 q 339 688 332 699 q 313 630 359 648 q 323 602 302 611 q 518 751 488 620 q 416 686 477 689 q 339 701 355 684 m 331 917 q 303 901 331 917 q 276 814 275 886 q 336 711 276 743 q 448 703 397 680 q 513 766 498 726 q 513 852 528 807 q 443 923 499 897 q 331 917 387 948 m 380 699 l 380 710 l 391 710 l 391 726 l 361 726 l 361 737 l 390 737 l 389 795 l 347 772 l 364 750 l 355 743 l 337 766 l 306 749 l 317 734 l 311 729 l 300 746 l 247 716 l 294 751 l 286 766 l 290 772 l 301 755 l 330 777 l 313 798 l 321 806 l 338 783 l 380 813 l 334 850 l 317 826 l 307 833 l 326 857 l 304 875 l 291 857 l 286 863 l 297 882 l 251 919 l 302 886 l 314 905 l 321 899 l 310 883 l 332 867 l 346 889 l 355 883 l 342 862 l 389 831 l 391 886 l 364 886 l 364 899 l 391 899 l 393 924 l 374 924 l 374 932 l 393 932 l 395 998 l 401 932 l 420 932 l 420 924 l 401 924 l 404 899 l 435 899 l 435 886 l 404 886 l 408 831 l 454 859 l 441 876 l 450 884 l 465 865 l 489 878 l 480 890 l 485 896 l 495 883 l 552 915 l 500 875 l 511 861 l 506 856 l 494 870 l 472 854 l 492 829 l 482 822 l 463 848 l 419 813 l 462 782 l 476 803 l 486 798 l 471 776 l 489 763 l 496 773 l 503 770 l 495 759 l 548 720 l 490 753 l 479 736 l 472 740 l 484 755 l 465 766 l 446 740 l 436 746 l 454 772 l 409 796 l 404 737 l 432 737 l 432 726 l 403 726 l 401 710 l 416 710 l 416 699 l 400 699 l 396 541 l 391 699 l 380 699 z "},"#":{"ha":728,"x_min":0,"x_max":709,"o":"m 42 380 l 0 316 l 194 316 l 119 32 l 177 -20 l 264 316 l 373 316 l 298 32 l 356 -20 l 443 316 l 614 316 l 652 381 l 460 381 l 493 507 l 671 507 l 709 572 l 510 572 l 587 866 l 533 921 l 441 572 l 332 572 l 408 866 l 353 921 l 261 572 l 98 572 l 56 507 l 244 507 l 211 380 l 42 380 m 424 507 l 390 381 l 281 380 l 315 507 l 424 507 z "},"$":{"ha":693,"x_min":0,"x_max":663,"o":"m 276 169 q 182 232 222 186 q 135 305 143 278 q 140 354 127 332 l 129 370 l 18 270 q 53 149 0 219 q 177 45 105 79 q 275 12 220 23 l 274 -232 l 380 -299 l 380 6 q 483 50 444 15 q 602 197 541 100 q 661 356 663 294 q 607 477 658 418 q 380 575 557 535 l 380 753 q 385 751 382 751 q 455 676 477 715 l 471 673 l 578 780 q 483 873 545 842 q 380 892 439 895 l 380 1154 l 278 1227 l 277 862 q 212 831 247 849 q 111 749 146 790 q 64 625 75 709 q 110 481 54 541 q 276 410 155 432 l 276 169 m 276 610 q 177 680 187 640 q 247 770 168 753 q 277 774 261 773 l 276 610 m 380 378 q 526 315 498 345 q 550 224 560 262 q 501 163 539 186 q 380 145 463 140 l 380 378 m 307 327 l 307 342 l 321 342 l 321 364 l 281 364 l 281 381 l 320 381 l 318 463 l 260 430 l 284 399 l 271 389 l 245 422 l 201 397 l 218 376 l 209 372 l 193 393 l 118 351 l 186 401 l 171 421 l 178 429 l 195 407 l 235 436 l 211 467 l 224 477 l 248 446 l 305 488 l 240 541 l 216 506 l 203 515 l 228 551 l 198 576 l 179 551 l 171 559 l 189 583 l 122 638 l 195 592 l 213 617 l 224 610 l 205 586 l 238 566 l 259 595 l 271 585 l 252 557 l 318 515 l 321 591 l 284 591 l 284 608 l 322 608 l 324 644 l 298 644 l 298 655 l 324 655 l 328 1168 l 335 655 l 363 655 l 363 644 l 336 644 l 338 608 l 382 608 l 382 591 l 340 591 l 346 513 l 412 552 l 392 578 l 405 588 l 426 560 l 459 579 l 446 597 l 454 604 l 468 585 l 549 631 l 475 575 l 490 555 l 482 548 l 467 569 l 437 546 l 464 510 l 450 500 l 424 536 l 360 487 l 420 444 l 441 474 l 456 465 l 434 435 l 460 417 l 471 433 l 479 427 l 468 412 l 545 357 l 461 402 l 445 379 l 437 384 l 453 407 l 425 422 l 399 385 l 385 395 l 410 430 l 347 464 l 339 381 l 379 381 l 379 364 l 338 364 l 336 342 l 356 342 l 356 327 l 334 327 l 324 -188 l 321 327 l 307 327 z "},"%":{"ha":732,"x_min":29,"x_max":718,"o":"m 185 904 q 83 804 113 847 q 41 719 54 762 q 37 611 29 675 q 100 486 45 546 q 186 425 154 425 q 289 503 219 425 q 337 566 316 532 q 367 661 357 600 q 351 796 376 722 q 185 904 286 918 m 178 819 q 209 817 178 819 q 272 739 239 815 q 286 582 304 663 q 205 528 268 500 q 122 627 143 555 q 109 760 102 698 q 178 819 117 822 m 527 476 q 425 376 455 419 q 383 291 395 334 q 379 183 371 248 q 441 58 387 118 q 528 -3 496 -3 q 631 75 561 -3 q 679 138 658 104 q 709 233 699 172 q 692 368 718 294 q 527 476 627 490 m 520 391 q 551 389 520 391 q 614 311 581 387 q 628 154 646 235 q 547 100 610 73 q 464 199 485 127 q 451 332 444 270 q 520 391 458 394 m 531 142 l 531 151 l 541 151 l 539 167 l 513 167 l 513 178 l 539 178 l 538 233 l 499 212 l 515 191 l 506 184 l 489 206 l 459 189 l 471 176 l 465 172 l 454 186 l 404 157 l 450 191 l 439 205 l 445 210 l 455 195 l 481 216 l 466 235 l 475 243 l 491 222 l 529 250 l 486 286 l 469 262 l 460 269 l 477 292 l 457 309 l 445 292 l 439 298 l 451 315 l 407 351 l 455 320 l 468 337 l 475 332 l 463 315 l 485 302 l 498 322 l 507 315 l 493 297 l 538 269 l 541 320 l 515 320 l 515 332 l 541 332 l 541 355 l 525 355 l 525 363 l 543 363 l 545 425 l 550 363 l 569 363 l 569 355 l 550 355 l 552 332 l 581 332 l 581 320 l 553 320 l 556 267 l 600 294 l 588 311 l 596 318 l 611 299 l 633 311 l 624 323 l 629 328 l 640 315 l 693 347 l 644 309 l 654 296 l 648 290 l 638 304 l 618 290 l 636 265 l 627 259 l 609 282 l 567 250 l 607 221 l 621 241 l 631 235 l 616 214 l 633 202 l 642 214 l 646 210 l 638 199 l 690 163 l 634 193 l 624 176 l 617 180 l 629 195 l 610 206 l 593 181 l 583 187 l 600 212 l 557 235 l 552 178 l 579 178 l 579 167 l 551 167 l 550 151 l 564 151 l 564 142 l 549 142 l 543 69 l 541 142 l 531 142 m 182 574 l 182 583 l 191 583 l 191 597 l 165 597 l 165 608 l 191 608 l 189 661 l 152 640 l 168 620 l 159 614 l 142 635 l 115 619 l 125 606 l 119 602 l 109 616 l 61 589 l 105 621 l 95 634 l 100 639 l 110 625 l 136 644 l 121 663 l 129 670 l 144 650 l 181 677 l 140 711 l 123 688 l 115 694 l 132 718 l 113 733 l 100 718 l 95 722 l 106 738 l 64 773 l 111 744 l 122 760 l 129 755 l 117 739 l 138 726 l 151 745 l 159 739 l 146 721 l 189 694 l 191 743 l 168 743 l 168 754 l 192 754 l 193 777 l 176 777 l 176 784 l 193 784 l 196 844 l 200 784 l 218 784 l 218 777 l 201 777 l 203 754 l 231 754 l 231 743 l 203 743 l 207 693 l 249 718 l 237 734 l 245 741 l 258 723 l 279 736 l 271 747 l 276 751 l 286 739 l 337 769 l 290 733 l 300 720 l 294 715 l 285 729 l 265 714 l 283 691 l 274 685 l 257 707 l 216 676 l 255 649 l 269 668 l 277 663 l 264 643 l 280 631 l 288 642 l 292 638 l 285 628 l 334 593 l 281 622 l 271 607 l 265 610 l 275 625 l 258 635 l 241 611 l 232 617 l 248 640 l 208 662 l 203 608 l 229 608 l 229 597 l 201 597 l 200 583 l 214 583 l 214 574 l 199 574 l 193 505 l 191 574 l 182 574 m 524 896 q 128 31 297 313 l 190 -1 q 600 878 459 658 l 524 896 z "},"&":{"ha":822,"x_min":-69,"x_max":864,"o":"m 410 165 q 190 196 300 107 q 198 446 79 285 l 410 165 m 298 666 l 299 625 l 302 666 l 311 666 l 311 671 l 303 671 l 304 680 l 320 680 l 320 686 l 304 686 l 307 718 l 331 705 l 321 691 l 328 688 l 337 702 l 347 696 l 341 687 l 345 685 l 351 694 l 381 677 l 353 698 l 357 703 l 355 706 l 350 699 l 340 707 l 349 718 l 343 721 l 335 710 l 313 726 l 336 744 l 346 731 l 351 734 l 342 748 l 353 756 l 358 749 l 361 751 l 355 760 l 383 781 l 353 763 l 347 770 l 345 767 l 350 760 l 337 753 l 329 764 l 324 760 l 332 751 l 307 736 l 305 765 l 321 765 l 321 772 l 304 772 l 303 785 l 314 785 l 314 789 l 303 789 l 300 824 l 299 789 l 290 789 l 290 785 l 298 785 l 298 772 l 284 772 l 284 765 l 298 765 l 297 736 l 272 752 l 279 763 l 275 766 l 267 755 l 254 763 l 262 772 l 258 774 l 250 765 l 224 783 l 248 762 l 241 753 l 245 750 l 252 760 l 263 750 l 254 736 l 258 733 l 268 747 l 292 726 l 271 711 l 262 722 l 256 718 l 265 707 l 250 696 l 245 704 l 241 701 l 248 694 l 222 675 l 250 690 l 256 682 l 259 685 l 253 692 l 269 702 l 279 689 l 284 693 l 275 705 l 297 716 l 298 686 l 283 686 l 283 680 l 298 680 l 298 671 l 293 671 l 293 666 l 298 666 m 323 239 l 323 254 l 336 254 l 336 274 l 299 274 l 299 290 l 335 290 l 334 366 l 279 335 l 302 307 l 289 298 l 266 328 l 225 305 l 240 286 l 232 281 l 218 300 l 148 262 l 212 309 l 197 327 l 204 334 l 218 314 l 256 340 l 234 369 l 246 379 l 269 349 l 321 389 l 262 438 l 238 406 l 227 414 l 250 448 l 222 470 l 205 448 l 197 454 l 214 477 l 152 528 l 220 486 l 236 509 l 246 502 l 229 479 l 259 460 l 278 488 l 290 479 l 271 452 l 334 414 l 336 485 l 302 485 l 302 500 l 337 500 l 339 534 l 315 534 l 315 544 l 339 544 l 343 630 l 349 544 l 376 544 l 376 534 l 350 534 l 353 500 l 393 500 l 393 485 l 354 485 l 359 412 l 420 448 l 402 472 l 414 482 l 433 456 l 464 474 l 452 490 l 459 496 l 473 479 l 547 522 l 479 470 l 493 452 l 486 445 l 472 465 l 444 443 l 469 410 l 456 401 l 431 433 l 372 388 l 429 349 l 448 376 l 461 368 l 441 340 l 465 323 l 475 338 l 482 333 l 472 318 l 543 268 l 466 309 l 451 288 l 444 293 l 458 314 l 433 328 l 409 294 l 395 302 l 418 335 l 360 367 l 353 290 l 390 290 l 390 274 l 351 274 l 349 254 l 369 254 l 369 239 l 348 239 l 339 140 l 336 239 l 323 239 m 32 432 l 30 438 l 35 439 l 33 448 l 18 442 l 16 448 l 30 453 l 20 481 l 3 463 l 15 455 l 12 450 l -1 458 l -14 445 l -5 439 l -7 436 l -16 442 l -37 418 l -20 444 l -26 450 l -26 454 l -17 447 l -7 463 l -18 470 l -15 475 l -3 467 l 12 489 l -16 500 l -21 485 l -26 487 l -22 502 l -36 507 l -39 496 l -43 498 l -40 509 l -69 520 l -38 513 l -35 524 l -31 522 l -34 512 l -20 508 l -17 522 l -12 519 l -14 507 l 14 500 l 5 528 l -7 523 l -9 530 l 3 534 l 1 547 l -9 543 l -9 547 l 0 551 l -10 584 l 3 552 l 13 555 l 14 551 l 5 548 l 10 536 l 26 541 l 28 535 l 12 530 l 23 503 l 42 524 l 33 531 l 36 536 l 46 529 l 56 540 l 50 545 l 52 548 l 58 543 l 81 569 l 62 540 l 70 535 l 68 531 l 60 536 l 52 525 l 66 515 l 62 511 l 48 520 l 32 496 l 58 488 l 62 500 l 68 499 l 64 486 l 75 482 l 77 489 l 81 488 l 79 481 l 112 471 l 77 477 l 75 467 l 71 468 l 74 477 l 62 479 l 58 464 l 52 465 l 56 481 l 30 486 l 37 455 l 52 460 l 53 454 l 39 449 l 40 441 l 47 444 l 50 438 l 41 435 l 51 396 l 37 434 l 32 432 m 165 64 l 167 68 l 171 67 l 174 74 l 161 79 l 162 83 l 175 79 l 183 105 l 161 101 l 165 89 l 161 87 l 156 100 l 140 98 l 142 90 l 139 88 l 136 97 l 109 92 l 135 100 l 134 108 l 136 111 l 138 101 l 155 106 l 151 118 l 155 120 l 159 108 l 182 114 l 168 138 l 157 130 l 153 134 l 165 142 l 159 153 l 150 147 l 149 151 l 157 157 l 142 181 l 159 159 l 168 165 l 170 161 l 163 156 l 170 145 l 179 153 l 182 149 l 174 142 l 189 121 l 199 144 l 187 149 l 189 155 l 201 151 l 205 161 l 197 163 l 199 167 l 207 164 l 218 193 l 210 163 l 219 160 l 218 157 l 209 159 l 206 149 l 220 144 l 218 138 l 204 142 l 197 118 l 222 122 l 219 132 l 224 134 l 228 123 l 240 125 l 239 132 l 241 134 l 244 127 l 274 132 l 245 122 l 248 115 l 244 113 l 241 121 l 229 118 l 234 103 l 229 102 l 224 117 l 199 108 l 214 87 l 223 94 l 227 91 l 216 83 l 222 75 l 227 78 l 230 76 l 224 73 l 241 47 l 221 71 l 214 64 l 212 67 l 219 73 l 212 80 l 200 71 l 197 76 l 208 84 l 193 102 l 181 77 l 193 73 l 191 67 l 178 72 l 176 66 l 182 63 l 180 58 l 173 60 l 159 28 l 170 62 l 165 64 m 630 704 q 626 706 630 704 q 616 717 621 707 q 615 735 612 726 q 627 748 618 745 q 644 750 635 753 q 657 736 652 747 q 659 719 662 728 q 648 706 655 710 q 630 704 639 701 m 642 785 q 640 786 642 785 q 637 790 638 787 q 636 798 634 794 q 642 803 639 802 q 648 804 645 806 q 654 798 652 802 q 654 791 654 795 q 650 786 653 787 q 642 785 646 783 m 667 738 l 673 745 l 681 755 q 729 806 711 774 q 711 758 733 766 l 753 775 q 726 744 737 747 l 764 752 q 729 724 751 730 l 762 714 q 717 710 725 701 l 738 688 q 668 720 688 691 l 667 738 m 607 677 q 613 677 609 677 l 663 657 l 665 637 l 670 637 l 667 655 l 684 643 l 686 648 l 670 659 l 689 660 l 688 665 l 667 665 l 667 663 l 629 677 q 637 681 633 678 q 663 711 656 690 q 659 753 669 732 l 662 753 q 677 772 673 760 q 677 797 682 785 l 708 803 l 704 808 l 677 811 l 677 837 l 673 841 l 665 811 q 658 815 662 813 q 634 814 645 820 q 620 802 623 808 q 612 784 617 796 q 656 863 607 822 q 604 838 621 857 l 619 881 q 585 836 591 863 l 574 875 q 566 828 564 848 l 550 865 q 550 819 542 834 l 526 838 q 540 793 522 805 l 513 788 q 576 760 538 752 q 565 742 568 753 q 564 718 561 732 l 496 677 l 525 650 l 570 703 q 597 681 579 688 l 597 635 l 539 635 l 435 464 l 450 447 q 616 471 481 486 q 515 328 530 348 q 222 704 241 670 q 211 779 204 739 q 257 830 218 819 q 339 814 296 842 q 387 712 382 786 q 337 584 393 637 l 353 562 q 498 734 495 642 q 454 868 500 825 q 345 910 408 910 q 189 836 281 911 q 91 672 98 762 q 168 484 83 583 q 21 247 14 351 q 99 75 27 142 q 317 -2 172 7 q 434 141 420 132 q 610 -5 506 44 q 808 232 685 -13 l 789 250 q 727 186 771 208 q 551 300 648 180 l 779 623 l 773 635 l 607 635 l 607 677 m 733 320 l 734 328 l 741 326 l 743 336 l 724 339 l 726 346 l 743 342 l 749 378 l 722 369 l 729 354 l 723 351 l 714 366 l 693 360 l 699 350 l 694 347 l 689 359 l 653 347 l 686 363 l 683 372 l 686 376 l 691 364 l 711 374 l 703 389 l 709 393 l 718 377 l 746 391 l 723 419 l 709 406 l 704 411 l 718 424 l 707 437 l 696 428 l 694 433 l 704 442 l 680 471 l 707 445 l 717 454 l 721 450 l 711 441 l 724 429 l 734 441 l 739 436 l 729 425 l 753 401 l 762 434 l 745 437 l 747 445 l 764 442 l 768 456 l 756 459 l 757 464 l 769 461 l 777 501 l 774 460 l 785 458 l 785 454 l 772 456 l 771 440 l 790 437 l 789 429 l 770 433 l 766 398 l 797 409 l 791 422 l 798 425 l 804 412 l 821 417 l 817 426 l 821 429 l 825 419 l 864 432 l 827 414 l 832 404 l 828 401 l 823 412 l 808 405 l 817 387 l 810 384 l 802 401 l 770 386 l 793 361 l 804 373 l 810 368 l 798 357 l 807 347 l 813 352 l 817 350 l 810 344 l 838 313 l 806 340 l 798 332 l 794 334 l 803 342 l 792 351 l 778 338 l 772 342 l 787 356 l 762 377 l 752 341 l 769 338 l 768 330 l 749 334 l 747 325 l 755 323 l 754 316 l 745 318 l 732 272 l 739 319 l 733 320 z "},"'":{"ha":279,"x_min":-4,"x_max":301,"o":"m 89 702 q 89 688 81 699 q 62 631 109 649 q 73 603 52 612 q 268 751 238 621 q 166 687 227 690 q 89 702 104 684 m 80 917 q 52 901 80 917 q 25 814 24 886 q 85 711 25 743 q 197 703 146 680 q 262 766 248 726 q 262 852 277 807 q 192 923 248 897 q 80 917 136 948 m 130 699 l 130 710 l 140 710 l 140 726 l 111 726 l 111 737 l 139 737 l 138 795 l 96 772 l 113 750 l 104 743 l 86 766 l 55 749 l 66 734 l 60 729 l 49 746 l -4 716 l 43 751 l 35 766 l 39 772 l 50 755 l 79 777 l 62 798 l 71 806 l 87 783 l 129 813 l 83 850 l 66 826 l 56 833 l 75 857 l 53 875 l 40 857 l 35 863 l 46 882 l 0 919 l 52 886 l 63 905 l 71 899 l 59 883 l 81 867 l 95 889 l 104 883 l 92 862 l 138 831 l 140 886 l 113 886 l 113 899 l 140 899 l 142 924 l 123 924 l 123 932 l 142 932 l 144 998 l 151 932 l 170 932 l 170 924 l 151 924 l 153 899 l 184 899 l 184 886 l 153 886 l 157 831 l 203 859 l 191 876 l 199 884 l 214 865 l 238 878 l 229 890 l 234 896 l 244 883 l 301 915 l 250 875 l 260 861 l 255 856 l 243 870 l 221 854 l 241 829 l 231 822 l 212 848 l 168 813 l 211 782 l 225 803 l 235 798 l 220 776 l 238 763 l 245 773 l 252 770 l 244 759 l 297 720 l 239 753 l 228 736 l 221 740 l 233 755 l 214 766 l 195 740 l 185 746 l 203 772 l 158 796 l 153 737 l 181 737 l 181 726 l 152 726 l 151 710 l 165 710 l 165 699 l 149 699 l 145 541 l 140 699 l 130 699 z "},"(":{"ha":315,"x_min":25,"x_max":338,"o":"m 286 1151 q 134 878 197 1009 q 48 575 72 746 q 59 184 25 405 q 191 -213 92 -36 l 316 -24 q 294 1121 38 564 l 286 1151 m 184 -94 l 184 -85 l 194 -85 l 193 -70 l 168 -70 l 168 -60 l 193 -60 l 192 -8 l 155 -28 l 170 -48 l 161 -54 l 145 -33 l 117 -49 l 128 -62 l 122 -66 l 112 -52 l 64 -79 l 108 -47 l 98 -34 l 103 -29 l 113 -43 l 138 -24 l 123 -5 l 132 2 l 147 -18 l 182 9 l 142 43 l 126 20 l 118 26 l 134 48 l 115 64 l 103 48 l 98 54 l 109 69 l 67 104 l 113 75 l 125 90 l 132 85 l 120 71 l 141 58 l 154 76 l 162 71 l 149 52 l 192 26 l 194 75 l 170 75 l 170 85 l 194 85 l 195 108 l 179 108 l 179 115 l 195 115 l 197 174 l 203 115 l 220 115 l 220 108 l 203 108 l 205 85 l 233 85 l 233 75 l 205 75 l 208 24 l 250 50 l 238 65 l 246 73 l 260 54 l 281 66 l 272 77 l 277 82 l 287 71 l 338 100 l 291 64 l 301 52 l 295 47 l 286 60 l 267 45 l 284 22 l 275 17 l 258 39 l 218 7 l 256 -19 l 270 0 l 279 -5 l 265 -25 l 281 -37 l 289 -26 l 293 -30 l 286 -40 l 335 -74 l 282 -46 l 272 -61 l 266 -58 l 277 -43 l 259 -33 l 243 -57 l 233 -51 l 250 -28 l 210 -6 l 205 -60 l 231 -60 l 231 -70 l 203 -70 l 203 -85 l 216 -85 l 216 -94 l 201 -94 l 195 -162 l 194 -94 l 184 -94 z "},")":{"ha":312,"x_min":1,"x_max":302,"o":"m 41 -212 q 193 61 130 -71 q 278 363 255 193 q 268 754 302 534 q 136 1152 235 975 l 11 963 q 33 -182 289 375 l 41 -212 m 146 1042 l 146 1034 l 138 1034 l 139 1019 l 163 1019 l 163 1010 l 139 1010 l 140 961 l 175 980 l 161 999 l 170 1004 l 184 985 l 211 1000 l 201 1012 l 206 1016 l 216 1002 l 261 1028 l 220 998 l 229 985 l 224 981 l 215 994 l 191 976 l 205 958 l 197 951 l 182 970 l 149 945 l 187 913 l 203 935 l 210 929 l 195 907 l 213 892 l 224 907 l 229 903 l 218 887 l 258 854 l 215 882 l 203 867 l 197 872 l 208 886 l 189 899 l 176 881 l 169 886 l 181 903 l 140 929 l 138 882 l 161 882 l 161 872 l 138 872 l 138 850 l 153 850 l 153 844 l 136 844 l 134 788 l 130 844 l 113 844 l 113 850 l 130 850 l 128 872 l 102 872 l 102 882 l 127 882 l 124 930 l 85 906 l 96 891 l 88 884 l 75 901 l 55 890 l 64 880 l 59 875 l 50 886 l 1 858 l 45 892 l 37 904 l 42 909 l 50 897 l 68 910 l 52 932 l 61 937 l 77 917 l 115 946 l 79 971 l 66 954 l 57 958 l 71 977 l 55 988 l 47 978 l 44 982 l 50 991 l 4 1023 l 54 997 l 64 1011 l 69 1008 l 59 994 l 76 985 l 91 1007 l 100 1002 l 85 980 l 123 959 l 128 1010 l 103 1010 l 103 1019 l 129 1019 l 130 1034 l 117 1034 l 117 1042 l 131 1042 l 136 1107 l 138 1042 l 146 1042 z "},"*":{"ha":401,"x_min":14,"x_max":397,"o":"m 258 804 l 257 818 l 253 825 l 243 804 l 258 804 m 264 777 l 248 766 l 258 765 l 264 777 m 274 734 l 284 741 l 288 749 l 267 748 l 274 734 m 218 817 l 219 798 l 224 806 l 218 817 m 233 832 l 220 825 l 230 813 l 242 831 l 233 832 m 163 766 l 147 777 l 153 765 l 163 766 m 139 777 l 124 766 l 122 763 l 144 764 l 139 777 m 265 734 l 258 747 l 246 747 l 265 734 m 254 797 l 239 798 l 234 787 l 254 797 m 186 807 l 193 796 l 195 819 l 186 807 m 172 798 l 156 797 l 177 787 l 172 798 m 169 831 l 181 814 l 190 826 l 176 832 l 169 831 m 158 825 l 155 821 l 154 804 l 168 805 l 158 825 m 189 747 l 205 738 l 222 747 l 223 766 l 205 777 l 188 767 l 189 747 m 182 701 l 170 682 l 182 682 l 192 686 l 182 701 m 126 743 l 138 734 l 145 749 l 122 750 l 126 743 m 153 710 l 155 695 l 159 689 l 168 709 l 153 710 m 218 717 l 217 696 l 224 708 l 218 717 m 193 698 l 193 715 l 187 707 l 193 698 m 83 677 l 14 645 l 77 687 l 60 699 l 66 702 l 82 690 l 102 704 l 100 730 l 109 734 l 110 709 l 134 725 l 107 743 l 117 749 l 116 751 l 96 752 l 90 738 l 85 738 l 92 752 l 33 756 l 92 760 l 85 775 l 90 775 l 97 761 l 115 762 l 115 762 l 107 767 l 121 777 l 124 782 l 130 782 l 134 785 l 110 801 l 109 776 l 100 780 l 102 806 l 82 820 l 66 808 l 60 812 l 77 823 l 14 865 l 83 833 l 84 853 l 90 850 l 88 830 l 109 819 l 132 835 l 140 831 l 118 815 l 143 803 l 143 804 l 144 804 l 144 812 l 143 814 l 145 817 l 146 835 l 155 831 l 155 831 l 146 848 l 132 847 l 129 852 l 144 853 l 118 905 l 152 857 l 161 870 l 163 866 l 155 852 l 165 838 l 166 838 l 167 848 l 186 839 l 186 839 l 186 838 l 195 834 l 197 863 l 174 852 l 174 860 l 198 871 l 199 897 l 182 905 l 182 911 l 200 902 l 205 977 l 211 902 l 230 911 l 230 905 l 211 896 l 213 871 l 238 860 l 238 852 l 214 863 l 216 835 l 224 838 l 224 839 l 225 839 l 245 848 l 245 838 l 243 837 l 245 837 l 256 852 l 247 865 l 250 870 l 259 857 l 292 905 l 267 852 l 282 851 l 279 847 l 264 848 l 256 831 l 256 830 l 266 836 l 267 815 l 268 814 l 268 814 l 269 804 l 294 817 l 273 831 l 280 836 l 302 820 l 324 831 l 322 851 l 328 854 l 330 833 l 397 867 l 334 825 l 352 812 l 347 809 l 330 821 l 310 808 l 312 780 l 304 776 l 302 803 l 279 787 l 286 781 l 287 781 l 287 781 l 305 768 l 296 763 l 295 763 l 296 762 l 314 760 l 321 775 l 326 775 l 319 760 l 378 755 l 319 751 l 326 738 l 321 738 l 314 751 l 295 750 l 294 747 l 295 748 l 304 743 l 279 724 l 302 709 l 304 735 l 311 731 l 309 703 l 329 690 l 346 702 l 351 699 l 334 686 l 397 644 l 329 677 l 328 657 l 321 660 l 323 680 l 301 690 l 280 675 l 273 680 l 294 694 l 268 707 l 267 701 l 268 700 l 267 699 l 265 675 l 256 681 l 263 665 l 279 667 l 282 663 l 266 661 l 291 608 l 258 656 l 250 644 l 247 648 l 256 661 l 245 676 l 239 676 l 244 673 l 244 663 l 215 676 l 213 648 l 237 659 l 237 651 l 212 639 l 210 615 l 229 606 l 229 600 l 210 609 l 204 534 l 199 609 l 181 600 l 181 606 l 199 614 l 197 640 l 174 651 l 174 659 l 197 648 l 195 677 l 166 663 l 165 674 l 170 676 l 166 676 l 155 661 l 164 648 l 161 644 l 153 657 l 120 608 l 145 661 l 130 663 l 132 667 l 148 665 l 155 680 l 146 675 l 144 699 l 144 700 l 144 701 l 144 707 l 118 695 l 140 680 l 132 675 l 110 691 l 88 680 l 90 661 l 84 657 l 83 677 m 145 732 l 167 747 l 153 748 l 145 732 m 175 722 l 163 717 l 172 716 l 175 722 m 273 779 l 267 764 l 289 762 l 286 770 l 273 779 m 229 701 l 219 686 l 228 682 l 241 682 l 229 701 m 239 716 l 248 717 l 236 723 l 239 716 m 243 709 l 252 688 l 257 694 l 258 710 l 243 709 z "},"+":{"ha":541,"x_min":-5,"x_max":547,"o":"m 214 447 q 95 448 159 447 l -5 340 l 3 330 q 213 349 18 346 q 214 447 214 393 m 311 351 q 454 350 376 351 l 547 460 l 532 466 q 311 447 518 450 q 311 351 310 403 m 311 351 q 311 224 311 292 l 204 124 l 194 132 q 213 349 210 147 q 311 351 257 350 m 214 447 q 214 583 214 509 l 323 675 l 330 661 q 311 447 313 647 q 214 447 267 446 z "},",":{"ha":273,"x_min":-21,"x_max":284,"o":"m 71 -3 q 71 -16 64 -5 q 45 -74 91 -56 q 55 -102 34 -93 q 250 47 220 -84 q 148 -18 210 -15 q 71 -3 87 -20 m 63 213 q 35 197 63 213 q 8 111 7 182 q 68 7 8 39 q 180 -1 129 -24 q 245 62 231 22 q 245 148 260 103 q 175 219 231 193 q 63 213 119 244 m 113 -5 l 113 6 l 123 6 l 123 22 l 94 22 l 94 33 l 122 33 l 121 91 l 79 68 l 96 46 l 87 39 l 69 62 l 38 45 l 50 31 l 43 25 l 32 42 l -21 12 l 26 47 l 18 62 l 22 68 l 33 51 l 62 73 l 45 94 l 54 102 l 71 79 l 112 109 l 66 146 l 49 122 l 39 129 l 58 153 l 36 171 l 23 153 l 18 159 l 29 178 l -17 215 l 35 182 l 46 201 l 54 195 l 42 179 l 64 163 l 78 185 l 87 179 l 75 158 l 121 127 l 123 182 l 96 182 l 96 195 l 123 195 l 125 220 l 106 220 l 106 228 l 125 228 l 127 294 l 134 228 l 153 228 l 153 220 l 134 220 l 136 195 l 167 195 l 167 182 l 136 182 l 140 127 l 186 155 l 174 172 l 182 180 l 197 161 l 221 174 l 212 186 l 217 192 l 227 179 l 284 211 l 233 171 l 243 157 l 238 152 l 227 166 l 204 151 l 224 125 l 214 118 l 195 144 l 151 109 l 194 78 l 208 99 l 218 94 l 203 72 l 221 59 l 229 69 l 235 66 l 227 55 l 280 16 l 222 49 l 211 32 l 204 36 l 216 51 l 197 62 l 178 36 l 168 42 l 186 68 l 141 92 l 136 33 l 164 33 l 164 22 l 135 22 l 134 6 l 148 6 l 148 -5 l 132 -5 l 128 -163 l 123 -5 l 113 -5 z "},"-":{"ha":531,"x_min":6,"x_max":529,"o":"m 6 354 l 13 344 q 441 363 35 367 l 529 473 l 515 479 q 100 461 496 456 l 6 354 z "},"":{"ha":531,"x_min":6,"x_max":529,"o":"m 6 354 l 13 344 q 441 363 35 367 l 529 473 l 515 479 q 100 461 496 456 l 6 354 z "},".":{"ha":256,"x_min":-21,"x_max":284,"o":"m 63 213 q 35 197 63 213 q 8 111 7 182 q 68 7 8 39 q 180 -1 129 -24 q 245 62 231 22 q 245 148 260 103 q 175 219 231 193 q 63 213 119 244 m 113 -5 l 113 6 l 123 6 l 123 22 l 94 22 l 94 33 l 122 33 l 121 91 l 79 68 l 96 46 l 87 39 l 69 62 l 38 45 l 50 31 l 43 25 l 32 42 l -21 12 l 26 47 l 18 62 l 22 68 l 33 51 l 62 73 l 45 94 l 54 102 l 71 79 l 112 109 l 66 146 l 49 122 l 39 129 l 58 153 l 36 171 l 23 153 l 18 159 l 29 178 l -17 215 l 35 182 l 46 201 l 54 195 l 42 179 l 64 163 l 78 185 l 87 179 l 75 158 l 121 127 l 123 182 l 96 182 l 96 195 l 123 195 l 125 220 l 106 220 l 106 228 l 125 228 l 127 294 l 134 228 l 153 228 l 153 220 l 134 220 l 136 195 l 167 195 l 167 182 l 136 182 l 140 127 l 186 155 l 174 172 l 182 180 l 197 161 l 221 174 l 212 186 l 217 192 l 227 179 l 284 211 l 233 171 l 243 157 l 238 152 l 227 166 l 204 151 l 224 125 l 214 118 l 195 144 l 151 109 l 194 78 l 208 99 l 218 94 l 203 72 l 221 59 l 229 69 l 235 66 l 227 55 l 280 16 l 222 49 l 211 32 l 204 36 l 216 51 l 197 62 l 178 36 l 168 42 l 186 68 l 141 92 l 136 33 l 164 33 l 164 22 l 135 22 l 134 6 l 148 6 l 148 -5 l 132 -5 l 125 -81 l 123 -5 l 113 -5 z "},"/":{"ha":323,"x_min":-83,"x_max":388,"o":"m 312 1103 q -83 -174 85 243 l -22 -221 q 388 1077 248 751 l 312 1103 z "},":":{"ha":288,"x_min":-7,"x_max":298,"o":"m 77 213 q 49 197 77 213 q 21 111 21 182 q 82 7 22 39 q 193 -1 142 -24 q 259 62 244 22 q 259 148 273 103 q 189 219 245 193 q 77 213 133 244 m 126 -5 l 126 6 l 137 6 l 137 22 l 107 22 l 107 33 l 136 33 l 134 91 l 93 68 l 110 46 l 100 39 l 83 62 l 52 45 l 63 31 l 57 25 l 45 42 l -7 12 l 40 47 l 31 62 l 35 68 l 47 51 l 75 73 l 58 94 l 67 102 l 84 79 l 125 109 l 80 146 l 62 122 l 53 129 l 71 153 l 50 171 l 37 153 l 31 159 l 43 178 l -3 215 l 48 182 l 60 201 l 67 195 l 56 179 l 77 163 l 92 185 l 100 179 l 88 158 l 134 127 l 137 182 l 110 182 l 110 195 l 137 195 l 139 220 l 120 220 l 120 228 l 139 228 l 140 294 l 147 228 l 166 228 l 166 220 l 147 220 l 150 195 l 180 195 l 180 182 l 150 182 l 153 127 l 200 155 l 187 172 l 196 180 l 210 161 l 235 174 l 226 186 l 231 192 l 241 179 l 298 211 l 246 171 l 256 157 l 252 152 l 240 166 l 218 151 l 237 125 l 228 118 l 209 144 l 165 109 l 208 78 l 222 99 l 232 94 l 216 72 l 235 59 l 242 69 l 249 66 l 241 55 l 294 16 l 236 49 l 224 32 l 218 36 l 229 51 l 210 62 l 192 36 l 182 42 l 200 68 l 155 92 l 150 33 l 178 33 l 178 22 l 149 22 l 147 6 l 161 6 l 161 -5 l 146 -5 l 142 -163 l 137 -5 l 126 -5 m 77 471 q 49 455 77 471 q 21 368 21 439 q 82 265 22 297 q 193 256 142 233 q 259 320 244 279 q 259 406 273 361 q 189 476 245 451 q 77 471 133 502 m 126 252 l 126 264 l 137 264 l 137 279 l 107 279 l 107 291 l 136 291 l 134 349 l 93 326 l 110 304 l 100 297 l 83 319 l 52 302 l 63 288 l 57 283 l 45 300 l -7 270 l 40 305 l 31 319 l 35 326 l 47 309 l 75 331 l 58 351 l 67 359 l 84 337 l 125 367 l 80 404 l 62 380 l 53 387 l 71 411 l 50 429 l 37 411 l 31 417 l 43 435 l -3 473 l 48 440 l 60 458 l 67 453 l 56 437 l 77 421 l 92 443 l 100 437 l 88 416 l 134 385 l 137 440 l 110 440 l 110 453 l 137 453 l 139 478 l 120 478 l 120 486 l 139 486 l 140 551 l 147 486 l 166 486 l 166 478 l 147 478 l 150 453 l 180 453 l 180 440 l 150 440 l 153 385 l 200 412 l 187 430 l 196 438 l 210 418 l 235 431 l 226 444 l 231 450 l 241 437 l 298 469 l 246 429 l 256 414 l 252 410 l 240 424 l 218 408 l 237 382 l 228 376 l 209 401 l 165 367 l 208 336 l 222 357 l 232 351 l 216 330 l 235 317 l 242 327 l 249 324 l 241 313 l 294 274 l 236 307 l 224 290 l 218 294 l 229 309 l 210 319 l 192 294 l 182 300 l 200 326 l 155 350 l 150 291 l 178 291 l 178 279 l 149 279 l 147 264 l 161 264 l 161 252 l 146 252 l 142 95 l 137 252 l 126 252 z "},";":{"ha":302,"x_min":-1,"x_max":304,"o":"m 92 -3 q 92 -16 84 -5 q 65 -74 111 -56 q 75 -102 54 -93 q 271 47 241 -84 q 169 -18 230 -15 q 92 -3 107 -20 m 84 213 q 56 197 84 213 q 28 111 28 182 q 89 7 28 39 q 200 -1 149 -24 q 266 62 251 22 q 266 148 280 103 q 196 219 252 193 q 84 213 140 244 m 133 -5 l 133 6 l 144 6 l 144 22 l 114 22 l 114 33 l 142 33 l 141 91 l 100 68 l 117 46 l 107 39 l 90 62 l 58 45 l 70 31 l 64 25 l 52 42 l -1 12 l 47 47 l 38 62 l 42 68 l 54 51 l 82 73 l 65 94 l 74 102 l 91 79 l 132 109 l 87 146 l 69 122 l 60 129 l 78 153 l 56 171 l 43 153 l 38 159 l 50 178 l 3 215 l 55 182 l 66 201 l 74 195 l 62 179 l 84 163 l 98 185 l 107 179 l 95 158 l 141 127 l 144 182 l 117 182 l 117 195 l 144 195 l 146 220 l 127 220 l 127 228 l 146 228 l 147 294 l 154 228 l 173 228 l 173 220 l 154 220 l 157 195 l 187 195 l 187 182 l 157 182 l 160 127 l 207 155 l 194 172 l 203 180 l 217 161 l 241 174 l 233 186 l 237 192 l 248 179 l 304 211 l 253 171 l 263 157 l 258 152 l 247 166 l 224 151 l 244 125 l 235 118 l 216 144 l 172 109 l 214 78 l 229 99 l 239 94 l 223 72 l 241 59 l 249 69 l 256 66 l 248 55 l 300 16 l 243 49 l 231 32 l 224 36 l 236 51 l 217 62 l 199 36 l 189 42 l 207 68 l 161 92 l 157 33 l 184 33 l 184 22 l 155 22 l 154 6 l 168 6 l 168 -5 l 153 -5 l 149 -163 l 144 -5 l 133 -5 m 84 471 q 56 455 84 471 q 28 368 28 439 q 89 265 28 297 q 200 256 149 233 q 266 320 251 279 q 266 406 280 361 q 196 476 252 451 q 84 471 140 502 m 133 252 l 133 264 l 144 264 l 144 279 l 114 279 l 114 291 l 142 291 l 141 349 l 100 326 l 117 304 l 107 297 l 90 319 l 58 302 l 70 288 l 64 283 l 52 300 l -1 270 l 47 305 l 38 319 l 42 326 l 54 309 l 82 331 l 65 351 l 74 359 l 91 337 l 132 367 l 87 404 l 69 380 l 60 387 l 78 411 l 56 429 l 43 411 l 38 417 l 50 435 l 3 473 l 55 440 l 66 458 l 74 453 l 62 437 l 84 421 l 98 443 l 107 437 l 95 416 l 141 385 l 144 440 l 117 440 l 117 453 l 144 453 l 146 478 l 127 478 l 127 486 l 146 486 l 147 551 l 154 486 l 173 486 l 173 478 l 154 478 l 157 453 l 187 453 l 187 440 l 157 440 l 160 385 l 207 412 l 194 430 l 203 438 l 217 418 l 241 431 l 233 444 l 237 450 l 248 437 l 304 469 l 253 429 l 263 414 l 258 410 l 247 424 l 224 408 l 244 382 l 235 376 l 216 401 l 172 367 l 214 336 l 229 357 l 239 351 l 223 330 l 241 317 l 249 327 l 256 324 l 248 313 l 300 274 l 243 307 l 231 290 l 224 294 l 236 309 l 217 319 l 199 294 l 189 300 l 207 326 l 161 350 l 157 291 l 184 291 l 184 279 l 155 279 l 154 264 l 168 264 l 168 252 l 153 252 l 149 95 l 144 252 l 133 252 z "},"<":{"ha":340,"x_min":19,"x_max":343,"o":"m 330 195 l 124 423 l 343 600 l 321 634 l 20 395 l 19 373 l 244 115 l 330 195 z "},"=":{"ha":537,"x_min":4,"x_max":527,"o":"m 4 401 l 11 391 q 439 411 33 414 l 527 521 l 513 527 q 98 509 494 503 l 4 401 m 4 259 l 11 249 q 439 269 33 272 l 527 378 l 513 385 q 98 366 494 361 l 4 259 z "},">":{"ha":334,"x_min":5,"x_max":330,"o":"m 19 553 l 224 326 l 5 149 l 28 115 l 329 353 l 330 376 l 104 634 l 19 553 z "},"?":{"ha":625,"x_min":8,"x_max":623,"o":"m 313 917 q 147 859 227 911 q 36 701 63 802 q 91 519 8 600 l 225 633 q 214 660 219 647 l 197 636 l 184 646 l 207 678 q 203 690 205 684 l 179 709 l 159 684 l 151 692 l 170 718 l 100 774 l 176 726 l 192 748 q 240 833 189 810 q 312 840 277 850 l 313 917 m 233 -163 q 272 -196 247 -182 q 328 -214 301 -211 l 327 -209 l 316 -209 l 316 -197 l 327 -197 l 327 -182 l 297 -182 l 297 -170 l 326 -170 l 324 -113 l 283 -136 l 300 -157 l 290 -164 l 273 -142 l 241 -159 l 253 -173 l 247 -178 l 235 -161 l 233 -163 m 335 -214 q 383 -205 360 -215 q 438 -161 420 -188 l 426 -155 l 414 -172 l 408 -168 l 419 -153 l 400 -142 l 382 -168 l 372 -161 l 390 -136 l 345 -111 l 340 -170 l 368 -170 l 368 -182 l 338 -182 l 337 -197 l 351 -197 l 351 -209 l 336 -209 l 335 -214 m 441 -156 q 449 -141 446 -149 q 449 -55 463 -100 q 446 -47 448 -51 l 441 -52 l 430 -37 l 408 -53 l 427 -79 l 418 -85 l 399 -60 l 355 -94 l 397 -125 l 412 -104 l 422 -110 l 406 -132 l 425 -144 l 432 -134 l 439 -137 l 431 -149 l 441 -156 m 445 -45 q 437 -31 442 -38 l 436 -33 l 445 -45 m 432 -23 q 379 16 413 0 q 356 23 368 20 l 356 17 l 337 17 l 340 -8 l 370 -8 l 370 -21 l 340 -21 l 343 -76 l 390 -49 l 377 -31 l 386 -23 l 400 -43 l 425 -30 l 416 -17 l 420 -12 l 431 -24 l 432 -23 m 351 24 q 337 26 344 26 l 337 24 l 351 24 m 329 26 q 267 9 298 27 q 234 -18 247 -1 l 238 -21 l 250 -3 l 257 -8 l 245 -24 l 267 -40 l 281 -18 l 290 -24 l 278 -45 l 324 -76 l 327 -21 l 300 -21 l 300 -8 l 327 -8 l 329 17 l 310 17 l 310 24 l 329 24 l 329 26 m 230 -23 q 212 -93 211 -51 q 229 -157 212 -130 l 230 -156 l 221 -142 l 225 -136 l 237 -153 l 265 -130 l 248 -110 l 257 -102 l 274 -124 l 315 -94 l 270 -57 l 252 -81 l 243 -75 l 261 -50 l 239 -33 l 227 -50 l 221 -44 l 233 -26 l 230 -23 m 196 714 q 194 728 195 722 l 187 720 l 196 714 m 444 534 q 437 522 441 528 l 446 533 l 444 534 m 309 387 q 252 366 283 380 l 252 176 q 292 68 252 106 l 469 188 l 455 218 q 418 251 422 187 l 418 425 q 505 501 471 473 l 454 528 l 437 504 l 430 508 q 319 394 397 456 l 311 248 l 309 387 m 508 505 q 600 641 577 546 q 571 807 623 736 q 467 899 520 878 q 323 918 414 921 l 319 918 l 321 838 q 399 764 362 821 q 432 702 419 732 l 452 713 l 438 731 l 446 739 l 461 718 l 545 768 l 469 709 l 484 688 l 476 680 l 460 703 l 439 686 q 450 650 446 668 l 456 641 l 452 637 q 453 564 459 599 q 448 547 451 555 l 453 544 l 465 559 l 472 554 l 461 538 l 508 505 m 309 387 l 308 450 l 293 450 l 293 465 l 308 465 l 308 488 l 265 488 l 265 506 l 307 506 l 304 591 l 244 557 l 269 524 l 255 515 l 229 548 l 182 523 l 199 500 l 191 496 l 174 518 l 96 475 l 167 526 l 151 547 l 159 555 l 176 533 l 217 564 l 193 595 l 206 606 l 231 574 l 291 617 l 223 673 l 214 660 q 207 678 210 669 l 210 684 l 203 690 q 196 714 199 703 l 220 699 l 243 729 l 256 719 l 235 689 l 304 646 l 308 726 l 269 726 l 269 744 l 309 744 l 311 781 l 283 781 l 283 792 l 311 792 l 312 840 q 321 838 317 839 l 322 792 l 352 792 l 352 781 l 323 781 l 326 744 l 372 744 l 372 726 l 327 726 l 333 644 l 402 685 l 382 711 l 395 722 l 417 693 l 432 702 q 439 686 435 694 l 429 678 l 450 650 q 452 637 451 644 l 442 631 l 415 667 l 348 616 l 412 572 l 433 603 l 448 594 l 426 562 l 448 547 q 444 534 446 541 l 416 548 l 389 510 l 374 520 l 401 557 l 334 592 l 326 506 l 368 506 l 368 488 l 326 488 l 323 465 l 344 465 l 344 450 l 321 450 l 319 394 q 309 387 314 390 m 233 -163 l 182 -191 l 229 -157 q 233 -163 231 -160 m 230 -23 l 186 12 l 234 -18 q 230 -23 232 -20 m 329 26 l 330 90 l 337 26 l 329 26 m 351 24 l 356 24 l 356 23 q 351 24 353 24 m 432 -23 l 488 7 l 437 -31 q 432 -23 435 -27 m 445 -45 l 446 -47 q 445 -45 446 -46 m 441 -156 l 484 -187 l 438 -161 q 441 -156 440 -159 m 335 -214 l 331 -237 l 328 -214 q 335 -214 331 -214 m 192 748 l 195 753 l 206 745 l 194 728 q 192 748 192 739 m 313 917 l 315 1044 l 319 918 q 313 917 315 918 m 508 505 l 541 481 l 505 501 q 508 505 506 503 m 430 508 l 429 509 l 437 522 q 430 508 434 515 z "},"@":{"ha":1012,"x_min":16,"x_max":1019,"o":"m 558 553 l 568 559 l 558 572 l 558 553 m 559 600 l 562 602 l 585 570 l 625 591 l 611 613 l 619 621 l 637 601 l 663 616 q 663 735 662 670 l 473 737 l 478 684 l 510 684 l 510 669 l 478 669 l 481 641 l 561 641 q 559 600 560 620 m 385 575 l 379 566 l 381 564 q 385 575 383 570 m 462 641 l 465 669 l 433 669 l 433 684 l 465 684 l 466 737 l 450 737 q 339 632 383 684 l 344 629 l 325 601 l 361 575 l 386 612 l 396 604 q 419 641 406 623 l 462 641 m 376 536 l 365 546 l 334 505 l 320 516 l 351 557 l 313 588 l 291 557 l 290 559 q 260 476 267 517 q 262 353 248 408 l 298 378 l 283 402 l 290 414 l 309 385 l 357 421 l 328 456 l 344 469 l 371 433 l 382 440 q 376 536 370 492 m 389 414 l 387 414 l 390 410 q 389 414 389 412 m 406 370 l 400 366 l 370 402 l 317 374 l 338 349 l 326 342 l 307 370 l 264 346 q 311 262 278 300 q 439 203 385 178 q 463 215 450 208 l 460 289 l 443 289 l 443 309 l 460 309 l 460 311 q 428 335 443 318 l 411 335 l 411 354 l 414 354 q 406 370 410 361 m 562 405 l 568 414 l 560 418 q 562 405 561 411 m 428 335 q 414 354 420 343 l 459 354 l 456 452 l 389 414 q 382 440 385 427 l 441 482 l 376 536 q 381 564 378 551 l 456 513 l 460 607 l 416 607 l 416 629 l 460 629 l 462 641 l 481 641 l 483 629 l 534 629 l 534 607 l 483 607 l 490 513 l 558 553 q 557 522 557 536 l 509 482 l 559 447 q 560 418 559 431 l 491 455 l 483 354 l 531 354 l 531 335 l 480 335 l 478 309 l 503 309 l 503 307 q 460 311 479 303 l 460 335 l 428 335 m 264 346 l 218 319 l 262 353 q 264 346 264 349 m 311 607 l 331 637 l 339 632 q 290 559 309 595 l 283 567 l 302 599 l 229 658 l 311 607 m 466 737 l 467 794 l 473 737 l 466 737 m 663 616 l 732 655 l 663 602 l 663 616 m 471 219 l 465 161 l 463 215 q 471 219 467 217 m 562 405 q 566 374 564 388 l 555 359 l 537 370 l 562 405 m 559 600 q 558 572 559 585 l 545 589 l 559 600 m 385 575 q 396 604 389 590 l 400 601 l 385 575 m 406 370 q 395 395 400 381 q 390 410 392 403 l 416 376 l 406 370 m 371 930 q 352 936 361 929 q 342 953 344 942 q 347 974 341 966 q 365 984 352 983 q 384 977 374 985 q 394 960 393 970 q 388 940 395 949 q 371 930 381 932 m 323 998 q 315 1001 319 998 q 312 1008 312 1004 q 313 1017 312 1013 q 321 1021 315 1021 q 328 1019 324 1021 q 333 1010 332 1016 q 330 1003 333 1007 q 323 998 328 999 m 435 937 q 445 962 443 949 l 518 948 l 444 989 q 438 1004 442 996 l 496 1029 l 478 1069 l 422 1019 q 412 1026 417 1024 l 429 1125 l 382 1034 q 378 1033 379 1034 q 353 1024 364 1032 q 344 1034 350 1029 q 317 1041 332 1044 q 295 1029 303 1040 q 290 1019 290 1024 l 258 1043 l 257 1038 l 274 1012 l 251 991 l 251 985 l 287 1002 q 288 999 288 1001 q 301 976 290 986 q 328 967 313 966 q 332 967 330 966 q 353 925 334 941 q 395 913 372 910 q 411 918 404 914 l 418 895 q 313 831 361 869 q 144 653 227 764 q 39 431 61 542 q 55 209 16 319 q 203 7 94 98 q 380 -69 311 -83 q 637 138 448 -55 l 601 159 q 308 116 444 2 q 165 383 172 230 q 218 640 159 536 q 229 658 222 648 q 363 786 284 746 q 561 826 449 830 q 751 754 673 823 q 852 542 830 686 q 813 347 875 399 q 705 357 752 296 q 663 602 668 404 l 646 588 l 664 564 l 654 554 l 635 578 l 598 553 l 630 509 l 616 498 l 582 541 l 557 522 q 559 447 557 479 l 581 431 l 604 466 l 622 456 l 595 420 l 625 397 l 640 415 l 649 410 l 637 391 l 726 326 l 629 380 l 610 353 l 598 359 l 617 385 l 585 402 l 566 374 q 576 339 570 351 q 503 307 536 311 l 503 289 l 477 289 l 471 219 q 586 300 518 247 q 716 215 621 208 q 989 491 960 340 q 956 759 1019 643 q 763 917 893 874 q 515 929 633 960 q 447 907 479 920 l 435 937 m 420 923 q 427 928 424 925 l 436 903 q 428 899 432 901 l 420 923 z "},"A":{"ha":765,"x_min":16,"x_max":941,"o":"m 446 420 l 312 421 l 378 616 l 446 420 m 153 9 l 153 15 l 159 15 l 159 23 l 143 23 l 143 29 l 158 29 l 157 60 l 136 47 l 144 36 l 140 33 l 130 44 l 114 35 l 120 28 l 117 25 l 111 34 l 83 18 l 108 37 l 103 44 l 105 47 l 111 39 l 126 50 l 117 61 l 122 65 l 131 54 l 153 69 l 129 89 l 119 76 l 115 79 l 124 92 l 113 102 l 106 92 l 103 96 l 109 105 l 85 125 l 112 108 l 118 117 l 122 115 l 116 106 l 127 98 l 135 109 l 140 106 l 133 95 l 157 79 l 159 108 l 144 108 l 144 115 l 159 115 l 160 127 l 150 127 l 150 132 l 160 132 l 161 166 l 164 132 l 174 132 l 174 127 l 164 127 l 165 115 l 182 115 l 182 108 l 165 108 l 168 79 l 192 93 l 185 102 l 190 106 l 197 96 l 210 103 l 205 110 l 208 113 l 214 106 l 243 123 l 216 102 l 222 94 l 219 92 l 213 99 l 201 91 l 212 77 l 207 74 l 197 87 l 174 69 l 196 53 l 203 64 l 209 61 l 201 50 l 210 43 l 214 48 l 218 47 l 214 41 l 241 20 l 211 37 l 205 28 l 201 31 l 208 39 l 197 44 l 188 31 l 182 34 l 192 47 l 168 60 l 165 29 l 180 29 l 180 23 l 165 23 l 164 15 l 172 15 l 172 9 l 163 9 l 160 -31 l 159 9 l 153 9 m 581 222 l 581 228 l 587 228 l 587 236 l 571 236 l 571 242 l 586 242 l 585 273 l 564 260 l 572 249 l 568 245 l 558 257 l 542 248 l 548 241 l 545 238 l 538 247 l 511 231 l 536 250 l 531 257 l 533 260 l 539 252 l 554 263 l 545 274 l 550 278 l 559 267 l 581 282 l 557 302 l 547 289 l 543 292 l 552 305 l 541 315 l 534 305 l 531 309 l 537 318 l 513 338 l 540 321 l 546 330 l 550 328 l 544 319 l 555 311 l 563 322 l 568 319 l 561 308 l 585 292 l 587 321 l 572 321 l 572 328 l 587 328 l 588 340 l 578 340 l 578 345 l 588 345 l 589 379 l 592 345 l 602 345 l 602 340 l 592 340 l 593 328 l 610 328 l 610 321 l 593 321 l 595 292 l 620 306 l 613 315 l 618 319 l 625 309 l 638 316 l 633 323 l 636 326 l 642 319 l 671 336 l 644 315 l 650 307 l 647 304 l 641 312 l 629 304 l 640 290 l 635 287 l 625 300 l 602 282 l 624 266 l 631 277 l 637 274 l 629 262 l 638 256 l 642 261 l 646 260 l 642 254 l 669 233 l 639 250 l 633 241 l 629 243 l 635 252 l 625 257 l 616 243 l 610 247 l 620 260 l 596 273 l 593 242 l 608 242 l 608 236 l 593 236 l 592 228 l 600 228 l 600 222 l 591 222 l 588 182 l 587 222 l 581 222 m 198 288 l 198 294 l 203 294 l 203 302 l 188 302 l 188 308 l 203 308 l 202 338 l 180 326 l 189 315 l 184 311 l 175 323 l 159 314 l 165 307 l 161 304 l 155 313 l 127 297 l 153 315 l 148 323 l 150 326 l 156 317 l 171 329 l 162 340 l 167 344 l 176 332 l 197 348 l 174 368 l 164 355 l 159 358 l 169 371 l 157 380 l 151 371 l 148 374 l 154 384 l 130 404 l 157 387 l 163 396 l 167 393 l 161 385 l 172 376 l 180 388 l 184 385 l 178 374 l 202 357 l 203 387 l 189 387 l 189 393 l 203 393 l 205 406 l 195 406 l 195 410 l 205 410 l 205 445 l 209 410 l 219 410 l 219 406 l 209 406 l 210 393 l 227 393 l 227 387 l 210 387 l 212 357 l 237 372 l 230 381 l 235 385 l 242 375 l 255 382 l 250 389 l 253 391 l 258 385 l 288 401 l 261 380 l 267 373 l 264 370 l 258 378 l 246 370 l 256 356 l 252 353 l 241 366 l 218 348 l 241 332 l 248 342 l 254 340 l 245 328 l 255 321 l 259 327 l 262 326 l 258 319 l 286 299 l 256 316 l 250 307 l 246 309 l 252 317 l 242 323 l 233 309 l 227 313 l 237 326 l 213 339 l 210 308 l 225 308 l 225 302 l 210 302 l 209 294 l 216 294 l 216 288 l 208 288 l 205 248 l 203 288 l 198 288 m 661 51 l 661 57 l 667 57 l 667 65 l 651 65 l 651 71 l 666 71 l 665 102 l 644 90 l 652 78 l 648 75 l 638 86 l 622 77 l 628 70 l 625 67 l 618 76 l 591 60 l 616 79 l 611 86 l 613 90 l 619 81 l 634 92 l 625 103 l 630 107 l 639 96 l 661 111 l 637 131 l 627 118 l 623 121 l 632 134 l 621 144 l 614 134 l 611 138 l 617 147 l 593 167 l 620 150 l 626 159 l 630 157 l 624 148 l 635 140 l 643 151 l 648 148 l 641 137 l 665 121 l 667 150 l 652 150 l 652 157 l 667 157 l 668 170 l 658 170 l 658 174 l 668 174 l 669 208 l 672 174 l 682 174 l 682 170 l 672 170 l 673 157 l 690 157 l 690 150 l 673 150 l 675 121 l 700 135 l 693 144 l 698 149 l 705 138 l 718 145 l 713 152 l 716 155 l 722 148 l 751 165 l 724 144 l 730 136 l 727 134 l 721 141 l 709 133 l 720 119 l 715 116 l 705 130 l 682 111 l 704 95 l 711 106 l 717 103 l 709 92 l 718 85 l 722 90 l 726 89 l 722 83 l 749 62 l 719 79 l 713 71 l 709 73 l 715 81 l 705 86 l 696 73 l 690 76 l 700 90 l 676 102 l 673 71 l 688 71 l 688 65 l 673 65 l 672 57 l 680 57 l 680 51 l 671 51 l 668 11 l 667 51 l 661 51 m 359 286 l 359 292 l 364 292 l 364 300 l 349 300 l 349 306 l 363 306 l 363 336 l 341 324 l 350 313 l 345 309 l 336 321 l 319 312 l 326 304 l 322 302 l 316 311 l 288 295 l 313 313 l 309 321 l 311 324 l 317 315 l 332 327 l 323 338 l 328 342 l 336 330 l 358 346 l 334 366 l 325 353 l 320 356 l 330 369 l 318 378 l 311 369 l 309 372 l 315 382 l 290 401 l 317 385 l 323 394 l 328 391 l 321 382 l 333 374 l 340 386 l 345 382 l 338 372 l 363 355 l 364 385 l 350 385 l 350 391 l 364 391 l 366 404 l 355 404 l 355 408 l 366 408 l 366 443 l 370 408 l 380 408 l 380 404 l 370 404 l 371 391 l 387 391 l 387 385 l 371 385 l 373 355 l 397 370 l 391 379 l 395 383 l 403 373 l 416 380 l 411 387 l 414 389 l 419 382 l 449 399 l 422 378 l 427 371 l 425 368 l 418 376 l 407 368 l 417 354 l 412 351 l 402 364 l 379 346 l 401 330 l 409 340 l 414 338 l 406 326 l 416 319 l 420 325 l 423 323 l 419 317 l 447 297 l 416 314 l 410 305 l 407 307 l 413 315 l 403 321 l 393 307 l 388 311 l 397 324 l 374 337 l 371 306 l 386 306 l 386 300 l 370 300 l 370 292 l 377 292 l 377 286 l 369 286 l 366 245 l 364 286 l 359 286 m 389 736 l 389 742 l 395 742 l 395 750 l 379 750 l 379 756 l 394 756 l 393 787 l 372 774 l 380 763 l 376 760 l 366 771 l 350 762 l 356 755 l 353 752 l 347 761 l 319 745 l 344 764 l 339 771 l 341 774 l 347 766 l 362 777 l 353 788 l 358 792 l 367 781 l 389 796 l 365 816 l 355 803 l 351 806 l 360 819 l 349 829 l 342 819 l 339 823 l 345 832 l 321 852 l 348 835 l 354 844 l 358 842 l 352 833 l 363 825 l 371 836 l 376 833 l 369 822 l 393 806 l 395 835 l 380 835 l 380 842 l 395 842 l 396 854 l 386 854 l 386 859 l 396 859 l 397 893 l 400 859 l 410 859 l 410 854 l 400 854 l 401 842 l 418 842 l 418 835 l 401 835 l 404 806 l 428 820 l 421 829 l 426 833 l 433 823 l 446 830 l 441 837 l 444 840 l 450 833 l 479 850 l 452 829 l 458 821 l 455 819 l 449 826 l 437 818 l 448 804 l 443 801 l 433 814 l 410 796 l 432 780 l 439 791 l 445 788 l 437 777 l 446 770 l 450 775 l 454 774 l 450 768 l 477 747 l 447 764 l 441 755 l 437 758 l 444 766 l 433 771 l 424 758 l 418 761 l 428 774 l 404 787 l 401 756 l 416 756 l 416 750 l 401 750 l 400 742 l 408 742 l 408 736 l 399 736 l 396 696 l 395 736 l 389 736 m 458 566 l 458 572 l 463 572 l 463 580 l 448 580 l 448 586 l 463 586 l 462 616 l 440 604 l 449 593 l 444 589 l 435 601 l 418 592 l 425 585 l 421 582 l 415 591 l 387 575 l 412 593 l 408 601 l 410 604 l 416 595 l 431 607 l 422 618 l 427 622 l 435 610 l 457 626 l 433 646 l 424 633 l 419 636 l 429 649 l 417 659 l 410 649 l 408 652 l 414 662 l 389 682 l 416 665 l 422 674 l 427 671 l 420 663 l 432 654 l 439 666 l 444 663 l 437 652 l 462 635 l 463 665 l 449 665 l 449 671 l 463 671 l 465 684 l 454 684 l 454 688 l 465 688 l 465 723 l 469 688 l 479 688 l 479 684 l 469 684 l 470 671 l 486 671 l 486 665 l 470 665 l 472 635 l 496 650 l 490 659 l 494 663 l 502 653 l 515 660 l 510 667 l 513 669 l 518 663 l 548 680 l 521 659 l 526 651 l 524 648 l 517 656 l 506 648 l 516 634 l 511 631 l 501 644 l 478 626 l 500 610 l 508 621 l 513 618 l 505 606 l 515 600 l 519 605 l 522 604 l 518 597 l 546 577 l 515 594 l 509 585 l 506 587 l 512 595 l 502 601 l 492 587 l 487 591 l 496 604 l 473 617 l 470 586 l 485 586 l 485 580 l 469 580 l 469 572 l 476 572 l 476 566 l 468 566 l 465 526 l 463 566 l 458 566 m 522 392 l 522 398 l 527 398 l 527 406 l 511 406 l 511 412 l 526 412 l 526 443 l 504 431 l 513 419 l 508 416 l 498 427 l 482 418 l 488 411 l 485 408 l 479 417 l 451 401 l 476 420 l 471 427 l 473 431 l 479 422 l 494 433 l 486 444 l 490 448 l 499 437 l 521 452 l 497 472 l 488 459 l 483 463 l 492 475 l 481 485 l 474 475 l 471 479 l 477 488 l 453 508 l 480 491 l 486 500 l 490 498 l 484 489 l 496 481 l 503 492 l 508 489 l 501 478 l 526 462 l 527 491 l 513 491 l 513 498 l 527 498 l 528 511 l 518 511 l 518 515 l 528 515 l 529 549 l 532 515 l 543 515 l 543 511 l 532 511 l 534 498 l 550 498 l 550 491 l 534 491 l 536 462 l 560 476 l 553 486 l 558 490 l 566 479 l 578 486 l 574 493 l 576 496 l 582 489 l 612 506 l 585 485 l 590 477 l 587 475 l 581 482 l 570 474 l 580 460 l 575 457 l 565 471 l 542 452 l 564 436 l 572 447 l 577 444 l 569 433 l 578 426 l 583 431 l 586 430 l 582 424 l 610 404 l 579 420 l 573 412 l 570 414 l 576 422 l 566 427 l 556 414 l 551 417 l 560 431 l 536 444 l 534 412 l 549 412 l 549 406 l 533 406 l 532 398 l 540 398 l 540 392 l 532 392 l 528 352 l 527 392 l 522 392 m 565 701 l 565 706 l 570 706 l 570 713 l 557 713 l 557 718 l 569 718 l 568 743 l 551 733 l 558 724 l 554 721 l 547 730 l 533 723 l 538 717 l 535 715 l 530 722 l 507 709 l 528 724 l 524 730 l 526 732 l 530 726 l 543 735 l 536 745 l 540 747 l 547 738 l 565 751 l 545 767 l 537 756 l 533 760 l 541 770 l 532 778 l 526 770 l 524 772 l 529 780 l 509 796 l 531 783 l 536 790 l 540 787 l 534 781 l 544 774 l 550 783 l 554 781 l 548 772 l 568 759 l 570 783 l 558 783 l 558 787 l 570 787 l 570 798 l 562 798 l 562 802 l 570 802 l 572 830 l 574 802 l 583 802 l 583 798 l 574 798 l 574 787 l 588 787 l 588 783 l 575 783 l 576 758 l 597 770 l 591 778 l 595 781 l 602 772 l 611 779 l 608 784 l 610 786 l 614 781 l 639 794 l 616 778 l 621 771 l 618 769 l 614 775 l 605 768 l 613 758 l 609 754 l 601 766 l 581 751 l 600 738 l 606 746 l 610 744 l 604 734 l 612 729 l 615 734 l 618 732 l 614 728 l 637 711 l 612 724 l 607 718 l 605 720 l 610 726 l 602 730 l 593 720 l 589 722 l 596 733 l 577 743 l 574 718 l 587 718 l 587 713 l 574 713 l 574 706 l 580 706 l 580 701 l 573 701 l 570 669 l 570 701 l 565 701 m 93 678 l 93 682 l 96 682 l 96 686 l 87 686 l 87 690 l 96 690 l 96 707 l 83 701 l 88 694 l 85 692 l 80 699 l 71 694 l 74 689 l 72 688 l 68 692 l 52 684 l 67 694 l 64 699 l 65 701 l 68 696 l 77 702 l 73 709 l 75 711 l 80 704 l 93 713 l 79 724 l 73 717 l 71 719 l 76 726 l 70 732 l 66 726 l 64 728 l 68 734 l 54 745 l 69 735 l 73 741 l 75 739 l 71 734 l 78 730 l 83 736 l 85 734 l 81 728 l 96 719 l 96 735 l 88 735 l 88 739 l 96 739 l 97 747 l 91 747 l 91 749 l 97 749 l 98 769 l 99 749 l 105 749 l 105 747 l 99 747 l 100 739 l 109 739 l 109 735 l 100 735 l 101 718 l 115 727 l 111 732 l 114 734 l 119 728 l 125 732 l 123 736 l 125 738 l 127 734 l 145 744 l 130 732 l 132 728 l 131 726 l 127 730 l 121 726 l 127 718 l 124 715 l 118 724 l 104 713 l 117 704 l 122 710 l 125 708 l 120 702 l 126 698 l 128 701 l 130 700 l 127 696 l 144 685 l 126 694 l 123 690 l 121 691 l 124 696 l 119 699 l 113 691 l 110 693 l 115 701 l 102 708 l 100 690 l 109 690 l 109 686 l 100 686 l 99 682 l 104 682 l 104 678 l 99 678 l 97 655 l 96 678 l 93 678 m 166 751 l 166 755 l 170 755 l 170 761 l 159 761 l 159 766 l 170 766 l 169 787 l 153 779 l 159 770 l 156 768 l 149 777 l 138 770 l 142 764 l 140 763 l 135 769 l 115 758 l 134 771 l 130 777 l 132 779 l 136 772 l 146 781 l 140 789 l 144 791 l 150 783 l 165 794 l 149 808 l 142 800 l 138 802 l 145 811 l 137 818 l 132 811 l 130 813 l 134 820 l 117 834 l 136 822 l 140 829 l 144 827 l 139 821 l 147 815 l 153 823 l 156 821 l 151 813 l 169 802 l 170 822 l 159 822 l 159 827 l 170 827 l 171 836 l 163 836 l 163 839 l 171 839 l 172 864 l 174 839 l 181 839 l 181 836 l 174 836 l 174 827 l 186 827 l 186 822 l 175 822 l 176 801 l 194 812 l 189 819 l 192 821 l 197 814 l 207 819 l 203 823 l 205 825 l 209 821 l 231 833 l 211 818 l 215 812 l 213 810 l 209 816 l 201 810 l 208 800 l 204 798 l 197 807 l 180 794 l 197 783 l 202 790 l 205 788 l 200 780 l 207 775 l 210 779 l 212 778 l 209 774 l 229 760 l 208 771 l 203 765 l 201 767 l 205 772 l 197 777 l 191 767 l 186 769 l 193 779 l 176 788 l 174 766 l 185 766 l 185 761 l 174 761 l 174 755 l 179 755 l 179 751 l 173 751 l 171 722 l 170 751 l 166 751 m 493 35 l 493 39 l 497 39 l 497 45 l 486 45 l 486 50 l 496 50 l 496 73 l 479 64 l 486 55 l 483 52 l 476 61 l 463 54 l 468 49 l 466 47 l 460 53 l 440 41 l 459 55 l 455 61 l 457 63 l 461 57 l 473 65 l 466 74 l 469 77 l 476 68 l 492 79 l 475 94 l 467 85 l 464 87 l 471 97 l 463 104 l 457 97 l 455 99 l 460 106 l 441 121 l 462 109 l 467 115 l 469 113 l 465 106 l 473 101 l 479 109 l 483 106 l 477 99 l 496 87 l 497 109 l 486 109 l 486 113 l 497 113 l 498 123 l 490 123 l 490 126 l 498 126 l 498 152 l 500 126 l 509 126 l 509 123 l 500 123 l 502 113 l 514 113 l 514 109 l 502 109 l 503 86 l 522 98 l 517 104 l 520 108 l 526 100 l 535 105 l 532 110 l 534 112 l 538 106 l 560 119 l 540 104 l 544 98 l 542 96 l 537 102 l 529 96 l 536 85 l 533 83 l 526 93 l 508 79 l 524 68 l 530 75 l 534 73 l 528 65 l 536 60 l 538 64 l 541 63 l 538 58 l 559 43 l 536 56 l 531 49 l 529 51 l 533 57 l 526 61 l 518 51 l 515 54 l 522 64 l 504 73 l 502 50 l 513 50 l 513 45 l 501 45 l 500 39 l 507 39 l 507 35 l 500 35 l 498 5 l 497 35 l 493 35 m 281 -128 l 281 -122 l 286 -122 l 286 -114 l 271 -114 l 271 -108 l 286 -108 l 285 -77 l 263 -90 l 272 -101 l 267 -104 l 258 -93 l 241 -102 l 248 -109 l 244 -112 l 238 -103 l 210 -119 l 235 -100 l 231 -93 l 233 -90 l 239 -98 l 254 -87 l 245 -76 l 250 -72 l 258 -83 l 280 -68 l 256 -48 l 247 -61 l 242 -58 l 252 -45 l 240 -35 l 233 -45 l 231 -41 l 237 -32 l 212 -12 l 239 -29 l 245 -20 l 250 -22 l 243 -31 l 255 -39 l 262 -28 l 267 -31 l 260 -42 l 285 -58 l 286 -29 l 272 -29 l 272 -22 l 286 -22 l 288 -9 l 277 -9 l 277 -5 l 288 -5 l 288 29 l 292 -5 l 302 -5 l 302 -9 l 292 -9 l 293 -22 l 309 -22 l 309 -29 l 293 -29 l 295 -58 l 319 -44 l 313 -35 l 317 -31 l 325 -41 l 338 -34 l 333 -27 l 336 -24 l 341 -31 l 371 -14 l 344 -35 l 349 -43 l 347 -45 l 340 -38 l 329 -46 l 339 -60 l 334 -63 l 324 -50 l 301 -68 l 323 -84 l 331 -73 l 336 -76 l 328 -87 l 338 -94 l 342 -89 l 345 -90 l 341 -96 l 369 -117 l 338 -100 l 332 -109 l 329 -106 l 335 -98 l 325 -93 l 315 -106 l 310 -103 l 319 -90 l 296 -77 l 293 -108 l 308 -108 l 308 -114 l 292 -114 l 292 -122 l 299 -122 l 299 -128 l 291 -128 l 288 -168 l 286 -128 l 281 -128 m 419 141 l 419 147 l 425 147 l 425 155 l 409 155 l 409 161 l 424 161 l 423 192 l 401 180 l 410 168 l 406 165 l 396 176 l 380 168 l 386 160 l 382 157 l 376 166 l 349 151 l 374 169 l 369 176 l 371 180 l 377 171 l 392 182 l 383 193 l 388 197 l 397 186 l 418 201 l 395 221 l 385 208 l 380 212 l 390 224 l 378 234 l 372 224 l 369 228 l 375 237 l 351 257 l 378 240 l 384 250 l 388 247 l 382 238 l 393 230 l 401 241 l 406 238 l 399 227 l 423 211 l 425 240 l 410 240 l 410 247 l 425 247 l 426 260 l 416 260 l 416 264 l 426 264 l 427 298 l 430 264 l 440 264 l 440 260 l 430 260 l 431 247 l 448 247 l 448 240 l 431 240 l 433 211 l 458 225 l 451 235 l 456 239 l 463 229 l 476 235 l 471 242 l 474 245 l 479 238 l 509 255 l 482 234 l 488 227 l 485 224 l 479 231 l 467 223 l 477 210 l 473 206 l 463 220 l 439 201 l 462 185 l 469 196 l 475 193 l 467 182 l 476 175 l 480 180 l 484 179 l 479 173 l 507 153 l 477 170 l 471 161 l 467 163 l 473 171 l 463 176 l 454 163 l 448 166 l 458 180 l 434 193 l 431 161 l 446 161 l 446 155 l 431 155 l 430 147 l 437 147 l 437 141 l 429 141 l 426 101 l 425 141 l 419 141 m 184 506 q 177 488 184 495 q 158 481 169 481 q 141 488 148 481 q 134 506 134 495 q 140 526 134 519 q 158 534 146 534 q 176 525 168 534 q 184 506 184 517 m 130 564 q 127 556 130 560 q 119 553 123 553 q 112 556 115 553 q 109 564 109 560 q 111 572 109 568 q 119 575 113 575 q 127 572 123 575 q 130 564 130 568 m 553 -65 q 675 -38 608 -75 q 776 1 743 -1 q 834 -1 809 3 q 920 -39 859 -5 l 941 -46 q 848 11 880 1 q 784 18 816 20 q 723 3 751 16 q 638 -39 694 -10 q 507 -41 582 -68 l 553 -65 m 227 544 q 218 556 223 550 q 189 572 205 568 l 212 580 l 243 678 l 169 574 q 158 571 163 573 l 177 600 l 140 696 l 146 572 q 142 578 144 576 q 116 589 132 589 q 93 579 103 589 q 83 562 86 572 l 60 577 l 60 571 l 80 549 l 60 526 l 60 520 l 86 536 q 93 526 88 530 q 118 515 104 515 l 121 515 q 138 471 121 488 q 164 455 150 459 l 164 422 l 30 290 l 43 268 q 165 279 113 283 q 102 133 132 186 q 16 29 72 79 l 26 -1 l 245 -1 l 343 127 l 333 140 l 165 140 q 264 279 214 165 l 399 280 l 467 353 q 596 51 555 100 q 682 -10 637 1 l 787 113 q 592 495 707 132 q 456 885 477 858 q 400 912 434 912 q 344 896 366 911 q 199 721 323 880 l 227 699 q 295 767 269 751 q 334 726 322 783 l 285 583 l 227 544 m 195 457 q 218 471 208 460 q 235 515 235 490 q 235 523 235 519 l 265 527 l 270 540 l 231 426 l 195 426 l 195 457 m 175 454 l 183 454 l 183 426 l 175 426 l 175 454 z "},"B":{"ha":648,"x_min":21,"x_max":788,"o":"m 530 205 l 531 165 l 534 205 l 543 205 l 543 211 l 535 211 l 536 219 l 551 219 l 551 225 l 536 225 l 539 256 l 563 243 l 553 230 l 559 227 l 568 240 l 578 235 l 572 227 l 576 224 l 582 233 l 612 216 l 585 237 l 589 243 l 585 244 l 581 239 l 572 245 l 580 257 l 574 260 l 567 249 l 545 265 l 568 283 l 578 270 l 583 273 l 572 287 l 584 295 l 590 288 l 593 290 l 587 298 l 614 319 l 585 302 l 579 309 l 576 306 l 581 299 l 568 292 l 561 302 l 556 298 l 563 289 l 538 275 l 536 304 l 553 304 l 553 311 l 536 311 l 535 323 l 545 323 l 545 328 l 535 328 l 532 362 l 531 328 l 521 328 l 521 323 l 531 323 l 530 311 l 515 311 l 515 304 l 530 304 l 528 275 l 504 291 l 511 302 l 506 305 l 498 294 l 487 302 l 493 311 l 489 313 l 483 304 l 456 321 l 480 301 l 474 292 l 477 288 l 484 298 l 495 288 l 486 275 l 490 272 l 500 285 l 524 265 l 502 250 l 493 261 l 488 257 l 497 246 l 482 235 l 476 243 l 474 240 l 479 233 l 454 214 l 481 230 l 488 221 l 491 224 l 485 231 l 501 240 l 511 229 l 515 232 l 507 243 l 528 256 l 529 225 l 514 225 l 514 219 l 530 219 l 530 211 l 524 211 l 524 205 l 530 205 m 162 85 l 163 45 l 167 85 l 175 85 l 175 92 l 168 92 l 168 100 l 184 100 l 184 106 l 169 106 l 172 137 l 195 124 l 186 111 l 191 107 l 201 121 l 211 115 l 205 107 l 208 105 l 214 114 l 245 97 l 217 117 l 221 123 l 218 125 l 214 119 l 204 126 l 212 138 l 207 140 l 199 130 l 177 146 l 200 164 l 210 151 l 215 154 l 205 168 l 216 176 l 222 168 l 225 171 l 220 178 l 247 199 l 217 182 l 212 189 l 209 186 l 214 180 l 201 173 l 193 183 l 189 179 l 195 170 l 171 155 l 169 184 l 185 184 l 185 191 l 169 191 l 168 204 l 178 204 l 178 208 l 168 208 l 164 243 l 163 208 l 153 208 l 153 204 l 163 204 l 162 191 l 148 191 l 148 184 l 162 184 l 161 155 l 136 172 l 143 182 l 138 186 l 131 174 l 119 182 l 125 191 l 121 194 l 115 184 l 88 201 l 113 182 l 106 172 l 109 169 l 116 178 l 127 169 l 118 156 l 123 153 l 132 165 l 156 146 l 134 130 l 125 142 l 121 138 l 130 127 l 115 115 l 109 124 l 106 121 l 111 113 l 86 95 l 114 111 l 120 102 l 123 104 l 117 112 l 134 121 l 143 109 l 148 113 l 139 124 l 161 136 l 161 106 l 146 106 l 146 100 l 162 100 l 162 92 l 157 92 l 157 85 l 162 85 m 496 373 l 498 333 l 501 373 l 509 373 l 509 379 l 502 379 l 503 387 l 518 387 l 518 393 l 503 393 l 506 425 l 530 412 l 520 398 l 526 395 l 535 408 l 545 403 l 539 395 l 543 393 l 549 401 l 579 385 l 551 405 l 555 411 l 552 412 l 548 407 l 538 414 l 547 425 l 541 428 l 534 417 l 511 433 l 534 452 l 545 438 l 549 441 l 539 455 l 551 463 l 557 456 l 559 458 l 554 466 l 581 487 l 551 470 l 546 477 l 543 474 l 548 467 l 535 460 l 528 471 l 523 467 l 530 457 l 505 443 l 503 472 l 519 472 l 519 479 l 503 479 l 502 492 l 512 492 l 512 496 l 502 496 l 498 530 l 498 496 l 488 496 l 488 492 l 498 492 l 496 479 l 482 479 l 482 472 l 496 472 l 495 443 l 471 459 l 477 470 l 473 473 l 465 462 l 454 470 l 460 479 l 456 481 l 450 472 l 422 489 l 447 469 l 441 460 l 444 456 l 450 466 l 462 456 l 452 444 l 457 440 l 467 453 l 490 433 l 469 418 l 460 429 l 455 425 l 464 414 l 449 403 l 443 412 l 441 408 l 446 401 l 420 382 l 448 398 l 454 389 l 458 392 l 452 399 l 468 408 l 477 397 l 482 400 l 473 412 l 495 424 l 496 393 l 481 393 l 481 387 l 496 387 l 496 379 l 491 379 l 491 373 l 496 373 m 294 672 l 295 643 l 298 672 l 304 672 l 304 676 l 298 676 l 298 682 l 310 682 l 310 687 l 299 687 l 301 709 l 318 701 l 311 690 l 315 688 l 323 698 l 330 694 l 326 688 l 328 686 l 332 692 l 355 681 l 334 695 l 337 700 l 335 701 l 332 696 l 325 702 l 331 710 l 327 712 l 321 704 l 305 716 l 322 729 l 330 720 l 333 722 l 326 732 l 334 738 l 338 732 l 340 734 l 336 740 l 356 755 l 334 743 l 330 747 l 328 745 l 332 741 l 323 736 l 317 743 l 313 741 l 319 734 l 300 723 l 299 744 l 311 744 l 311 749 l 299 749 l 298 758 l 306 758 l 306 762 l 298 762 l 296 787 l 295 762 l 288 762 l 288 758 l 295 758 l 294 749 l 284 749 l 284 744 l 294 744 l 293 723 l 275 734 l 280 743 l 277 745 l 271 737 l 262 743 l 267 749 l 264 751 l 260 744 l 240 757 l 258 742 l 254 735 l 256 733 l 260 740 l 269 733 l 262 724 l 265 721 l 272 730 l 290 716 l 274 705 l 267 713 l 264 710 l 271 702 l 259 694 l 255 700 l 254 698 l 257 692 l 239 679 l 259 690 l 264 684 l 266 686 l 262 692 l 273 698 l 280 689 l 284 692 l 277 701 l 293 709 l 294 687 l 283 687 l 283 682 l 294 682 l 294 676 l 290 676 l 290 672 l 294 672 m 134 713 l 135 673 l 138 713 l 146 713 l 146 719 l 139 719 l 140 727 l 155 727 l 155 733 l 140 733 l 143 764 l 167 751 l 157 738 l 163 734 l 172 748 l 182 743 l 176 734 l 180 732 l 186 741 l 216 724 l 189 745 l 193 751 l 189 752 l 185 747 l 176 753 l 184 765 l 178 768 l 171 757 l 149 773 l 172 791 l 182 778 l 186 781 l 176 795 l 188 803 l 194 795 l 197 798 l 191 806 l 218 827 l 189 810 l 183 817 l 180 814 l 185 807 l 172 800 l 165 810 l 160 806 l 167 797 l 142 783 l 140 812 l 157 812 l 157 819 l 140 819 l 139 831 l 149 831 l 149 836 l 139 836 l 136 870 l 135 836 l 125 836 l 125 831 l 135 831 l 134 819 l 119 819 l 119 812 l 134 812 l 132 783 l 108 799 l 115 810 l 110 813 l 102 802 l 91 810 l 97 819 l 93 821 l 87 812 l 60 829 l 84 809 l 78 800 l 81 796 l 87 806 l 99 796 l 90 783 l 94 780 l 104 793 l 127 773 l 106 758 l 97 769 l 92 765 l 101 754 l 86 743 l 80 751 l 78 748 l 83 741 l 58 722 l 85 738 l 92 729 l 95 732 l 89 739 l 105 748 l 115 736 l 119 740 l 111 751 l 132 764 l 133 733 l 118 733 l 118 727 l 134 727 l 134 719 l 128 719 l 128 713 l 134 713 m 136 495 l 138 455 l 141 495 l 149 495 l 149 501 l 142 501 l 142 509 l 158 509 l 158 515 l 143 515 l 146 547 l 170 534 l 160 520 l 165 517 l 175 530 l 185 525 l 179 517 l 182 515 l 189 524 l 219 507 l 191 527 l 195 533 l 192 534 l 188 529 l 178 536 l 186 547 l 181 550 l 174 539 l 151 555 l 174 574 l 184 560 l 189 564 l 179 577 l 191 585 l 197 578 l 199 581 l 194 588 l 221 609 l 191 592 l 186 599 l 183 596 l 188 589 l 175 583 l 168 593 l 163 589 l 170 579 l 145 565 l 143 594 l 159 594 l 159 601 l 143 601 l 142 614 l 152 614 l 152 618 l 142 618 l 138 652 l 138 618 l 127 618 l 127 614 l 138 614 l 136 601 l 122 601 l 122 594 l 136 594 l 135 565 l 111 581 l 117 592 l 113 595 l 105 584 l 94 592 l 100 601 l 96 604 l 90 594 l 62 611 l 87 591 l 81 582 l 83 578 l 90 588 l 102 578 l 92 566 l 97 562 l 106 575 l 130 555 l 109 540 l 100 551 l 95 547 l 104 536 l 89 525 l 83 534 l 81 530 l 85 523 l 60 505 l 88 520 l 94 511 l 98 514 l 92 522 l 108 530 l 117 519 l 122 522 l 113 534 l 135 546 l 136 515 l 121 515 l 121 509 l 136 509 l 136 501 l 131 501 l 131 495 l 136 495 m 136 281 l 137 241 l 140 281 l 149 281 l 149 287 l 141 287 l 142 295 l 157 295 l 157 301 l 142 301 l 145 332 l 169 319 l 159 306 l 165 302 l 174 316 l 184 311 l 178 302 l 182 300 l 188 309 l 218 292 l 191 313 l 195 319 l 191 320 l 187 315 l 178 321 l 186 333 l 180 336 l 173 325 l 151 341 l 174 359 l 184 346 l 189 349 l 178 363 l 190 371 l 196 363 l 199 366 l 193 374 l 220 395 l 191 378 l 185 385 l 182 382 l 187 375 l 174 368 l 167 378 l 162 374 l 169 365 l 144 351 l 142 380 l 159 380 l 159 387 l 142 387 l 141 399 l 151 399 l 151 404 l 141 404 l 138 438 l 137 404 l 127 404 l 127 399 l 137 399 l 136 387 l 121 387 l 121 380 l 136 380 l 134 351 l 110 367 l 117 378 l 112 381 l 104 370 l 93 378 l 99 387 l 95 389 l 89 380 l 62 397 l 86 377 l 80 368 l 83 364 l 90 374 l 101 364 l 92 351 l 96 348 l 106 361 l 130 341 l 108 326 l 99 337 l 94 333 l 103 322 l 88 311 l 82 319 l 80 316 l 85 309 l 60 290 l 87 306 l 94 297 l 97 300 l 91 307 l 107 316 l 117 304 l 121 308 l 113 319 l 134 332 l 135 301 l 120 301 l 120 295 l 136 295 l 136 287 l 130 287 l 130 281 l 136 281 m 356 256 l 356 262 l 361 262 l 361 271 l 346 271 l 346 277 l 361 277 l 360 307 l 338 295 l 347 283 l 342 280 l 333 292 l 317 283 l 323 275 l 319 273 l 313 281 l 286 266 l 311 284 l 306 292 l 308 295 l 314 286 l 329 298 l 320 309 l 325 313 l 334 301 l 355 317 l 332 336 l 322 323 l 317 327 l 327 340 l 315 349 l 309 340 l 306 343 l 312 353 l 288 372 l 315 355 l 321 365 l 325 362 l 319 353 l 330 345 l 338 357 l 342 353 l 336 342 l 360 326 l 361 355 l 347 355 l 347 362 l 361 362 l 363 375 l 353 375 l 353 379 l 363 379 l 363 414 l 367 379 l 377 379 l 377 375 l 367 375 l 368 362 l 385 362 l 385 355 l 368 355 l 370 326 l 395 340 l 388 350 l 393 354 l 400 344 l 413 351 l 408 357 l 411 360 l 416 353 l 446 370 l 419 349 l 425 342 l 422 339 l 416 347 l 404 338 l 414 325 l 410 321 l 399 335 l 376 317 l 399 300 l 406 311 l 412 309 l 404 297 l 413 290 l 417 296 l 420 294 l 416 288 l 444 268 l 414 285 l 408 276 l 404 278 l 410 286 l 400 292 l 391 278 l 385 281 l 395 295 l 371 308 l 368 277 l 383 277 l 383 271 l 368 271 l 367 262 l 374 262 l 374 256 l 366 256 l 363 216 l 361 256 l 356 256 m 416 764 l 417 724 l 420 764 l 429 764 l 429 770 l 421 770 l 422 778 l 437 778 l 437 784 l 422 784 l 425 815 l 449 802 l 439 789 l 445 785 l 454 799 l 465 793 l 458 785 l 462 783 l 468 792 l 498 775 l 471 795 l 475 802 l 471 803 l 467 798 l 458 804 l 466 816 l 460 819 l 453 808 l 431 824 l 454 842 l 464 829 l 469 832 l 458 846 l 470 854 l 476 846 l 479 849 l 473 857 l 500 878 l 471 861 l 465 867 l 463 865 l 467 858 l 454 851 l 447 861 l 442 857 l 449 848 l 425 833 l 422 863 l 439 863 l 439 869 l 422 869 l 421 882 l 431 882 l 431 886 l 421 886 l 418 921 l 417 886 l 407 886 l 407 882 l 417 882 l 416 869 l 401 869 l 401 863 l 416 863 l 414 833 l 390 850 l 397 861 l 392 864 l 385 852 l 373 861 l 379 869 l 375 872 l 369 863 l 342 880 l 366 860 l 360 850 l 363 847 l 370 857 l 381 847 l 372 834 l 376 831 l 386 844 l 410 824 l 388 808 l 379 820 l 374 816 l 383 805 l 368 793 l 362 802 l 360 799 l 365 791 l 340 773 l 368 789 l 374 780 l 377 783 l 371 790 l 387 799 l 397 787 l 401 791 l 393 802 l 414 814 l 415 784 l 400 784 l 400 778 l 416 778 l 416 770 l 410 770 l 410 764 l 416 764 m 452 646 l 453 614 l 456 646 l 463 646 l 463 650 l 456 650 l 457 657 l 470 657 l 470 663 l 457 663 l 460 687 l 479 677 l 471 666 l 475 663 l 484 674 l 492 670 l 487 663 l 489 661 l 494 669 l 519 655 l 496 671 l 499 676 l 497 677 l 494 673 l 486 678 l 492 688 l 488 690 l 482 681 l 464 694 l 483 709 l 491 698 l 494 701 l 487 711 l 496 718 l 500 712 l 503 714 l 498 720 l 520 737 l 496 723 l 492 729 l 490 726 l 493 722 l 484 715 l 477 724 l 473 721 l 479 713 l 459 701 l 458 725 l 471 725 l 471 730 l 457 730 l 456 741 l 465 741 l 465 744 l 456 744 l 454 772 l 453 744 l 445 744 l 445 741 l 453 741 l 452 730 l 441 730 l 441 725 l 452 725 l 451 702 l 431 715 l 437 723 l 433 726 l 427 717 l 418 723 l 423 730 l 420 732 l 414 725 l 393 739 l 412 723 l 408 715 l 410 713 l 415 720 l 425 713 l 417 703 l 420 700 l 428 710 l 448 694 l 430 682 l 423 690 l 419 688 l 427 679 l 414 670 l 409 677 l 408 674 l 412 668 l 391 653 l 414 666 l 418 659 l 421 661 l 416 667 l 429 674 l 437 665 l 441 667 l 434 677 l 451 686 l 452 663 l 440 663 l 440 657 l 452 657 l 452 650 l 448 650 l 448 646 l 452 646 m 319 118 l 319 122 l 323 122 l 323 128 l 312 128 l 312 133 l 323 133 l 322 155 l 307 146 l 313 138 l 309 135 l 302 144 l 290 137 l 295 132 l 293 130 l 288 136 l 268 125 l 286 138 l 282 144 l 284 146 l 288 140 l 300 148 l 293 156 l 296 159 l 303 151 l 319 161 l 301 176 l 294 167 l 291 169 l 298 178 l 290 185 l 285 178 l 282 180 l 287 187 l 269 202 l 289 190 l 294 197 l 296 195 l 292 188 l 300 182 l 306 191 l 309 188 l 304 180 l 322 169 l 323 190 l 313 190 l 313 195 l 323 195 l 324 203 l 317 203 l 317 207 l 324 207 l 325 232 l 327 207 l 334 207 l 334 203 l 327 203 l 328 195 l 340 195 l 340 190 l 328 190 l 330 168 l 347 179 l 342 186 l 346 189 l 351 181 l 360 186 l 357 191 l 359 193 l 363 188 l 385 200 l 365 185 l 369 180 l 367 178 l 362 183 l 354 177 l 361 168 l 358 165 l 351 175 l 334 161 l 350 150 l 355 157 l 359 155 l 353 147 l 361 142 l 363 146 l 366 145 l 363 141 l 383 126 l 361 138 l 356 132 l 354 134 l 359 140 l 351 144 l 344 134 l 340 136 l 347 146 l 330 155 l 328 133 l 339 133 l 339 128 l 328 128 l 327 122 l 332 122 l 332 118 l 326 118 l 324 89 l 323 118 l 319 118 m 742 -27 q 620 0 688 -37 q 519 39 552 37 q 461 37 486 41 q 375 -1 436 33 l 355 -8 q 448 48 416 39 q 512 56 479 58 q 572 41 544 54 q 657 -1 601 28 q 788 -3 713 -30 l 742 -27 m 224 779 l 222 530 q 352 567 258 568 q 374 720 393 643 q 300 812 355 798 q 224 779 245 827 m 234 193 q 314 111 262 138 q 412 136 371 83 q 455 233 443 175 q 422 239 436 238 q 355 237 384 241 q 256 199 326 233 l 234 193 m 569 186 q 534 138 555 163 q 394 27 497 92 q 186 15 291 -38 q 68 140 82 68 q 72 484 54 212 q 29 770 81 790 l 21 798 l 146 908 q 211 835 191 891 q 299 901 253 879 q 419 899 345 922 q 514 770 494 875 q 393 564 534 666 q 564 467 524 546 q 601 327 603 389 q 586 224 599 264 q 576 201 582 213 q 581 199 578 200 q 732 197 646 170 l 679 173 q 569 186 629 165 m 458 250 q 461 273 460 261 q 417 435 470 358 q 304 506 363 513 q 219 432 245 499 q 229 202 202 265 q 234 193 232 198 q 339 248 303 239 q 414 256 376 258 q 458 250 437 255 z "},"C":{"ha":654,"x_min":-95,"x_max":795,"o":"m 432 906 q 382 908 432 906 q 262 870 332 909 q 124 722 193 831 q 36 486 54 612 q 51 266 17 359 q 143 106 84 174 q 289 10 203 39 q 455 14 374 -18 q 625 163 536 45 l 596 191 q 362 170 503 88 q 177 413 220 252 q 178 682 134 574 q 323 792 222 790 q 456 745 425 794 q 464 661 488 695 l 485 650 l 607 753 q 577 848 623 792 q 432 906 532 904 m 121 715 l 121 724 l 128 724 l 128 735 l 107 735 l 107 744 l 127 744 l 127 786 l 96 770 l 109 753 l 102 748 l 89 765 l 66 752 l 74 741 l 70 739 l 61 750 l 22 728 l 58 754 l 50 765 l 54 769 l 62 758 l 83 773 l 71 789 l 77 793 l 90 778 l 120 800 l 87 827 l 73 809 l 66 814 l 80 832 l 64 846 l 54 832 l 50 836 l 60 850 l 25 878 l 62 854 l 72 867 l 77 863 l 68 850 l 85 840 l 96 855 l 102 850 l 92 836 l 127 813 l 128 854 l 109 854 l 109 863 l 128 863 l 130 881 l 116 881 l 116 886 l 130 886 l 132 935 l 136 886 l 151 886 l 151 881 l 136 881 l 138 863 l 161 863 l 161 854 l 138 854 l 141 812 l 176 833 l 165 846 l 172 852 l 182 837 l 200 847 l 193 856 l 197 860 l 205 850 l 247 874 l 209 846 l 216 835 l 212 831 l 204 841 l 189 829 l 203 811 l 196 806 l 182 825 l 149 800 l 180 777 l 191 792 l 198 788 l 186 772 l 201 762 l 207 770 l 211 768 l 205 760 l 244 732 l 201 755 l 193 743 l 189 746 l 197 758 l 182 765 l 169 746 l 161 751 l 174 770 l 142 787 l 138 744 l 159 744 l 159 735 l 137 735 l 136 724 l 146 724 l 146 715 l 135 715 l 130 659 l 128 715 l 121 715 m 130 222 l 130 229 l 136 229 l 136 237 l 120 237 l 120 243 l 135 243 l 134 273 l 113 261 l 121 250 l 117 246 l 107 258 l 91 249 l 97 241 l 94 239 l 87 248 l 60 232 l 85 250 l 80 258 l 82 261 l 88 252 l 103 264 l 94 275 l 99 279 l 108 267 l 130 283 l 106 302 l 96 290 l 92 293 l 101 306 l 90 315 l 83 306 l 80 309 l 86 319 l 62 338 l 89 321 l 95 331 l 99 328 l 93 319 l 104 311 l 112 323 l 117 319 l 110 309 l 134 292 l 136 321 l 121 321 l 121 328 l 136 328 l 137 341 l 127 341 l 127 345 l 137 345 l 138 380 l 141 345 l 151 345 l 151 341 l 141 341 l 142 328 l 159 328 l 159 321 l 142 321 l 144 292 l 169 307 l 162 316 l 167 320 l 174 310 l 187 317 l 182 323 l 185 326 l 191 319 l 220 336 l 193 315 l 199 308 l 196 305 l 190 313 l 178 304 l 189 291 l 184 288 l 174 301 l 151 283 l 173 267 l 180 277 l 186 275 l 178 263 l 187 256 l 191 262 l 195 260 l 191 254 l 218 234 l 188 251 l 182 242 l 178 244 l 184 252 l 174 258 l 165 244 l 159 248 l 169 261 l 145 274 l 142 243 l 157 243 l 157 237 l 142 237 l 141 229 l 149 229 l 149 222 l 140 222 l 137 182 l 136 222 l 130 222 m 237 83 l 237 90 l 242 90 l 242 98 l 227 98 l 227 104 l 241 104 l 241 134 l 219 122 l 228 111 l 223 107 l 214 119 l 197 110 l 203 102 l 200 100 l 194 109 l 166 93 l 191 111 l 186 119 l 189 122 l 195 113 l 210 125 l 201 136 l 205 140 l 214 128 l 236 144 l 212 163 l 203 151 l 198 154 l 208 167 l 196 176 l 189 167 l 186 170 l 193 180 l 168 199 l 195 182 l 201 192 l 205 189 l 199 180 l 211 172 l 218 184 l 223 180 l 216 170 l 241 153 l 242 182 l 228 182 l 228 189 l 242 189 l 243 202 l 233 202 l 233 206 l 243 206 l 244 241 l 248 206 l 258 206 l 258 202 l 248 202 l 249 189 l 265 189 l 265 182 l 249 182 l 251 153 l 275 168 l 269 177 l 273 181 l 281 171 l 294 178 l 289 184 l 292 187 l 297 180 l 327 197 l 300 176 l 305 169 l 302 166 l 296 174 l 285 165 l 295 152 l 290 149 l 280 162 l 257 144 l 279 127 l 287 138 l 292 136 l 284 124 l 294 117 l 298 123 l 301 121 l 297 115 l 325 95 l 294 112 l 288 103 l 285 105 l 291 113 l 281 119 l 271 105 l 266 109 l 275 122 l 252 135 l 249 104 l 264 104 l 264 98 l 248 98 l 248 90 l 255 90 l 255 83 l 247 83 l 243 43 l 242 83 l 237 83 m 396 13 l 396 19 l 401 19 l 401 27 l 386 27 l 386 33 l 401 33 l 400 64 l 378 52 l 387 40 l 382 37 l 373 48 l 357 39 l 363 32 l 359 29 l 353 38 l 326 22 l 351 41 l 346 48 l 348 52 l 354 43 l 369 54 l 360 65 l 365 69 l 374 58 l 395 73 l 372 93 l 362 80 l 357 83 l 367 96 l 355 106 l 349 96 l 346 100 l 352 109 l 328 129 l 355 112 l 361 121 l 365 119 l 359 110 l 370 102 l 378 113 l 382 110 l 376 99 l 400 83 l 401 112 l 387 112 l 387 119 l 401 119 l 403 132 l 393 132 l 393 136 l 403 136 l 404 170 l 407 136 l 417 136 l 417 132 l 407 132 l 408 119 l 425 119 l 425 112 l 408 112 l 410 83 l 435 97 l 428 106 l 433 111 l 440 100 l 453 107 l 448 114 l 451 117 l 456 110 l 486 127 l 459 106 l 465 98 l 462 96 l 456 103 l 444 95 l 454 81 l 450 78 l 439 92 l 416 73 l 439 57 l 446 68 l 452 65 l 444 54 l 453 47 l 457 52 l 460 51 l 456 45 l 484 24 l 454 41 l 448 33 l 444 35 l 450 43 l 440 48 l 431 35 l 425 38 l 435 52 l 411 64 l 408 33 l 423 33 l 423 27 l 408 27 l 407 19 l 414 19 l 414 13 l 406 13 l 403 -27 l 401 13 l 396 13 m 94 406 l 94 412 l 100 412 l 100 420 l 84 420 l 84 427 l 99 427 l 98 457 l 77 445 l 85 433 l 81 430 l 71 441 l 55 433 l 61 425 l 58 422 l 52 431 l 24 416 l 49 434 l 44 441 l 46 445 l 52 436 l 67 448 l 58 458 l 63 463 l 72 451 l 94 467 l 70 486 l 60 473 l 56 477 l 65 490 l 54 499 l 47 490 l 44 493 l 50 503 l 26 522 l 53 505 l 59 515 l 63 512 l 57 503 l 68 495 l 76 507 l 81 503 l 74 492 l 98 476 l 100 505 l 85 505 l 85 512 l 100 512 l 101 525 l 91 525 l 91 529 l 101 529 l 102 564 l 105 529 l 115 529 l 115 525 l 105 525 l 106 512 l 123 512 l 123 505 l 106 505 l 109 476 l 133 490 l 126 500 l 131 504 l 138 494 l 151 500 l 146 507 l 149 510 l 155 503 l 184 520 l 157 499 l 163 492 l 160 489 l 154 496 l 142 488 l 153 475 l 148 471 l 138 485 l 115 467 l 137 450 l 144 461 l 150 458 l 142 447 l 151 440 l 155 446 l 159 444 l 155 438 l 182 418 l 152 435 l 146 426 l 142 428 l 149 436 l 138 441 l 129 428 l 123 431 l 133 445 l 109 458 l 106 427 l 121 427 l 121 420 l 106 420 l 105 412 l 113 412 l 113 406 l 104 406 l 101 366 l 100 406 l 94 406 m 619 213 l 619 218 l 623 218 l 623 223 l 612 223 l 612 228 l 623 228 l 622 250 l 606 241 l 612 233 l 609 230 l 602 239 l 591 232 l 595 227 l 593 225 l 588 231 l 568 220 l 587 233 l 583 239 l 585 241 l 589 235 l 600 243 l 593 251 l 597 254 l 603 245 l 618 256 l 602 271 l 595 262 l 591 264 l 598 273 l 590 280 l 585 273 l 583 275 l 587 282 l 570 296 l 589 284 l 593 291 l 597 289 l 592 283 l 600 277 l 606 285 l 609 283 l 604 275 l 622 264 l 623 284 l 612 284 l 612 289 l 623 289 l 624 298 l 616 298 l 616 301 l 624 301 l 625 326 l 627 301 l 634 301 l 634 298 l 627 298 l 627 289 l 640 289 l 640 284 l 628 284 l 629 263 l 647 274 l 642 281 l 645 283 l 650 276 l 660 281 l 656 286 l 659 288 l 662 283 l 684 295 l 664 280 l 668 275 l 666 273 l 662 278 l 654 272 l 661 262 l 657 260 l 650 269 l 633 256 l 650 245 l 655 252 l 659 250 l 653 242 l 660 237 l 663 241 l 665 240 l 662 236 l 682 222 l 661 233 l 656 227 l 654 229 l 658 235 l 650 239 l 644 229 l 640 231 l 646 241 l 629 250 l 627 228 l 638 228 l 638 223 l 627 223 l 627 218 l 632 218 l 632 213 l 626 213 l 624 184 l 623 213 l 619 213 m 509 731 l 509 737 l 514 737 l 514 745 l 498 745 l 498 751 l 513 751 l 513 782 l 491 770 l 500 758 l 495 755 l 486 766 l 469 758 l 475 750 l 472 747 l 466 756 l 438 741 l 463 759 l 458 766 l 460 770 l 467 761 l 481 772 l 473 783 l 477 787 l 486 776 l 508 791 l 484 811 l 475 798 l 470 802 l 479 814 l 468 824 l 461 814 l 458 818 l 465 827 l 440 847 l 467 830 l 473 840 l 477 837 l 471 828 l 483 820 l 490 831 l 495 828 l 488 817 l 513 801 l 514 830 l 500 830 l 500 837 l 514 837 l 515 850 l 505 850 l 505 854 l 515 854 l 516 888 l 519 854 l 530 854 l 530 850 l 519 850 l 521 837 l 537 837 l 537 830 l 521 830 l 523 801 l 547 815 l 541 825 l 545 829 l 553 819 l 566 825 l 561 832 l 564 835 l 569 828 l 599 845 l 572 824 l 577 817 l 574 814 l 568 821 l 557 813 l 567 800 l 562 796 l 552 810 l 529 791 l 551 775 l 559 786 l 564 783 l 556 772 l 566 765 l 570 770 l 573 769 l 569 763 l 597 743 l 566 760 l 560 751 l 557 753 l 563 761 l 553 766 l 543 753 l 538 756 l 547 770 l 524 783 l 521 751 l 536 751 l 536 745 l 520 745 l 519 737 l 527 737 l 527 731 l 519 731 l 515 691 l 514 731 l 509 731 m 370 797 l 370 802 l 374 802 l 374 808 l 363 808 l 363 813 l 374 813 l 374 836 l 357 827 l 363 818 l 360 815 l 353 825 l 340 818 l 345 812 l 342 810 l 337 817 l 315 804 l 335 819 l 331 825 l 333 827 l 338 821 l 349 829 l 342 838 l 346 840 l 353 832 l 370 844 l 351 859 l 344 849 l 340 852 l 347 862 l 339 869 l 333 862 l 331 865 l 336 872 l 317 888 l 338 874 l 343 882 l 346 879 l 341 872 l 351 866 l 356 875 l 360 872 l 355 864 l 374 852 l 374 874 l 363 874 l 363 879 l 374 879 l 376 889 l 368 889 l 368 892 l 376 892 l 376 920 l 379 892 l 387 892 l 387 889 l 379 889 l 380 879 l 393 879 l 393 874 l 380 874 l 382 851 l 401 863 l 395 870 l 399 873 l 405 865 l 414 870 l 411 876 l 413 878 l 417 872 l 441 886 l 420 869 l 424 863 l 422 861 l 417 867 l 408 861 l 416 850 l 412 848 l 404 858 l 386 844 l 404 831 l 410 840 l 414 838 l 408 829 l 415 823 l 418 827 l 420 826 l 417 822 l 439 806 l 416 819 l 410 812 l 408 814 l 413 821 l 405 825 l 397 814 l 393 817 l 400 827 l 382 837 l 380 813 l 391 813 l 391 808 l 379 808 l 379 802 l 385 802 l 385 797 l 378 797 l 376 766 l 374 797 l 370 797 m 503 189 l 503 194 l 507 194 l 507 201 l 494 201 l 494 206 l 507 206 l 506 230 l 488 220 l 496 211 l 492 208 l 484 218 l 471 211 l 475 204 l 473 203 l 468 209 l 446 197 l 466 212 l 462 218 l 464 220 l 469 214 l 481 222 l 473 232 l 477 235 l 485 225 l 503 238 l 483 254 l 475 243 l 471 246 l 479 257 l 470 264 l 464 257 l 462 259 l 467 267 l 447 283 l 469 269 l 474 277 l 477 275 l 472 267 l 481 261 l 488 271 l 492 267 l 486 259 l 506 246 l 507 269 l 496 269 l 496 275 l 507 275 l 508 286 l 500 286 l 500 288 l 508 288 l 509 317 l 511 288 l 520 288 l 520 286 l 511 286 l 512 275 l 526 275 l 526 269 l 513 269 l 514 245 l 534 258 l 528 265 l 532 269 l 538 260 l 549 266 l 545 271 l 547 273 l 551 267 l 576 281 l 554 264 l 558 258 l 555 256 l 551 262 l 542 256 l 550 245 l 546 241 l 538 253 l 519 238 l 537 225 l 543 233 l 548 231 l 541 222 l 549 216 l 553 221 l 555 220 l 551 215 l 574 199 l 549 212 l 545 205 l 542 207 l 547 214 l 538 218 l 530 207 l 526 210 l 534 220 l 515 231 l 512 206 l 525 206 l 525 201 l 512 201 l 511 194 l 517 194 l 517 189 l 511 189 l 508 157 l 507 189 l 503 189 m 414 409 q 420 406 414 409 q 439 411 427 404 q 455 430 451 417 q 453 456 460 443 q 434 475 446 471 q 408 473 421 480 q 392 453 397 467 q 394 427 388 439 q 414 409 401 413 m 431 527 q 434 526 431 527 q 443 528 437 525 q 449 535 447 530 q 448 547 450 541 q 440 554 445 551 q 430 553 436 556 q 424 545 427 551 q 423 534 420 539 q 431 527 425 530 m 469 431 q 570 386 498 389 l 540 418 q 606 423 553 403 l 558 437 q 610 478 591 446 l 553 467 q 595 512 570 471 l 532 486 q 559 557 564 498 q 488 483 531 510 l 477 467 l 467 458 l 469 431 m 411 326 l 445 328 l 446 321 l 418 319 l 441 304 l 437 297 l 413 313 l 418 288 l 411 287 l 406 317 l 401 323 l 365 374 q 327 406 340 385 l 260 330 l 251 358 l 261 383 l 237 384 l 212 399 l 317 428 q 318 464 313 448 q 334 491 323 479 q 242 531 279 478 l 282 538 q 262 605 256 556 l 298 576 q 296 642 286 598 l 321 589 q 334 658 318 618 l 349 600 q 399 666 357 640 l 375 602 q 452 639 401 631 q 389 525 380 579 q 399 551 395 543 q 419 569 403 560 q 454 570 436 577 q 465 564 460 568 l 477 608 l 483 602 l 483 564 l 522 559 l 528 553 l 481 543 q 483 508 488 526 q 460 480 477 489 q 457 479 459 479 q 462 419 472 448 q 425 374 452 389 q 412 370 418 372 l 466 349 l 499 352 l 500 344 l 473 343 l 496 327 l 492 320 l 468 337 l 473 311 l 466 311 l 461 340 l 389 369 q 380 370 384 369 l 408 330 l 411 326 m -49 -60 q 73 -33 5 -70 q 174 6 141 4 q 232 4 207 9 q 318 -33 257 0 l 338 -41 q 245 16 277 7 q 181 23 214 25 q 121 8 149 22 q 36 -34 92 -5 q -95 -35 -20 -62 l -49 -60 m 795 12 q 706 14 745 -14 q 648 53 668 41 q 607 67 629 66 q 563 61 585 69 q 500 7 541 52 l 513 14 q 572 50 555 45 q 612 51 589 54 q 681 14 635 49 q 764 -11 727 -20 l 795 12 z "},"D":{"ha":696,"x_min":16,"x_max":710,"o":"m 16 783 l 26 760 q 96 692 79 776 l 95 263 q 151 78 96 146 q 301 -2 205 9 q 449 36 397 -13 q 549 149 501 84 q 637 300 597 214 q 676 537 678 385 q 547 833 673 689 q 394 910 492 897 l 257 762 q 168 908 246 859 l 16 783 m 338 755 q 358 757 338 755 q 441 694 378 759 q 529 463 504 630 q 482 136 554 296 q 339 129 413 89 q 254 294 264 168 l 256 699 q 338 755 298 751 m 597 359 l 597 363 l 601 363 l 601 368 l 591 368 l 591 373 l 601 373 l 600 393 l 585 385 l 591 377 l 589 375 l 582 383 l 570 377 l 574 372 l 572 370 l 568 376 l 549 365 l 566 378 l 563 383 l 564 385 l 568 379 l 579 387 l 573 395 l 576 397 l 583 389 l 597 400 l 581 414 l 574 405 l 570 407 l 577 416 l 570 422 l 565 416 l 563 418 l 568 425 l 551 438 l 569 426 l 573 433 l 576 431 l 572 425 l 580 420 l 585 427 l 589 425 l 583 418 l 600 407 l 601 426 l 591 426 l 591 431 l 601 431 l 602 439 l 595 439 l 595 442 l 602 442 l 602 466 l 604 442 l 612 442 l 612 439 l 604 439 l 606 431 l 616 431 l 616 426 l 606 426 l 607 406 l 624 416 l 619 422 l 622 426 l 627 418 l 636 423 l 632 427 l 635 429 l 638 425 l 659 436 l 640 422 l 644 417 l 642 415 l 637 420 l 630 414 l 637 406 l 633 403 l 627 412 l 611 400 l 626 389 l 631 396 l 635 394 l 629 387 l 636 382 l 639 386 l 641 385 l 638 380 l 657 367 l 637 378 l 632 372 l 630 374 l 634 379 l 627 383 l 621 374 l 617 376 l 623 385 l 607 394 l 606 373 l 616 373 l 616 368 l 605 368 l 604 363 l 610 363 l 610 359 l 604 359 l 602 332 l 601 359 l 597 359 m 155 712 l 155 718 l 161 718 l 161 726 l 145 726 l 145 732 l 160 732 l 159 763 l 138 751 l 146 739 l 142 736 l 132 747 l 116 739 l 122 731 l 119 728 l 113 737 l 85 722 l 110 740 l 105 747 l 107 751 l 113 742 l 128 753 l 119 764 l 124 768 l 133 757 l 155 772 l 131 792 l 121 779 l 117 783 l 126 795 l 115 805 l 108 795 l 105 799 l 111 808 l 87 828 l 114 811 l 120 821 l 124 818 l 118 809 l 130 801 l 137 812 l 142 809 l 135 798 l 159 782 l 161 811 l 146 811 l 146 818 l 161 818 l 162 831 l 152 831 l 152 835 l 162 835 l 163 869 l 166 835 l 176 835 l 176 831 l 166 831 l 168 818 l 184 818 l 184 811 l 168 811 l 170 782 l 194 796 l 187 806 l 192 810 l 199 800 l 212 806 l 208 813 l 210 816 l 216 809 l 245 826 l 218 805 l 224 798 l 221 795 l 215 802 l 203 794 l 214 781 l 209 777 l 199 791 l 176 772 l 198 756 l 205 767 l 211 764 l 203 753 l 212 746 l 216 751 l 220 750 l 216 744 l 243 724 l 213 741 l 207 732 l 203 734 l 210 742 l 199 747 l 190 734 l 184 737 l 194 751 l 170 764 l 168 732 l 182 732 l 182 726 l 167 726 l 166 718 l 174 718 l 174 712 l 165 712 l 162 672 l 161 712 l 155 712 m 197 111 l 197 117 l 203 117 l 203 125 l 187 125 l 187 132 l 202 132 l 201 162 l 180 150 l 189 138 l 184 135 l 174 146 l 158 138 l 164 130 l 161 127 l 155 136 l 127 121 l 152 139 l 147 146 l 149 150 l 155 141 l 170 153 l 161 163 l 166 168 l 175 156 l 197 172 l 173 191 l 163 178 l 159 182 l 168 195 l 157 204 l 150 195 l 147 198 l 153 208 l 129 227 l 156 210 l 162 220 l 166 217 l 160 208 l 172 200 l 179 212 l 184 208 l 177 197 l 201 181 l 203 210 l 189 210 l 189 217 l 203 217 l 204 230 l 194 230 l 194 234 l 204 234 l 205 269 l 208 234 l 218 234 l 218 230 l 208 230 l 210 217 l 226 217 l 226 210 l 210 210 l 212 181 l 236 195 l 229 205 l 234 209 l 241 199 l 254 205 l 250 212 l 252 215 l 258 208 l 288 225 l 260 204 l 266 197 l 263 194 l 257 201 l 245 193 l 256 180 l 251 176 l 241 190 l 218 172 l 240 155 l 248 166 l 253 163 l 245 152 l 254 145 l 258 151 l 262 149 l 258 143 l 286 123 l 255 140 l 249 131 l 245 133 l 252 141 l 241 146 l 232 133 l 227 136 l 236 150 l 212 163 l 210 132 l 224 132 l 224 125 l 209 125 l 208 117 l 216 117 l 216 111 l 208 111 l 204 71 l 203 111 l 197 111 m 347 233 l 349 242 l 357 239 l 360 252 l 338 258 l 340 267 l 361 260 l 373 304 l 336 296 l 345 275 l 336 273 l 328 293 l 301 287 l 307 274 l 300 272 l 295 287 l 249 276 l 292 292 l 289 304 l 293 309 l 298 293 l 324 304 l 316 322 l 324 326 l 332 307 l 370 320 l 344 357 l 325 343 l 319 350 l 338 365 l 326 383 l 313 372 l 310 378 l 322 389 l 295 427 l 327 392 l 340 403 l 345 397 l 332 387 l 345 371 l 361 385 l 366 378 l 352 365 l 380 332 l 395 373 l 374 378 l 377 389 l 397 382 l 404 400 l 389 404 l 391 410 l 406 406 l 420 456 l 412 404 l 426 400 l 425 395 l 410 399 l 407 380 l 430 373 l 427 363 l 404 370 l 395 328 l 436 338 l 430 354 l 438 358 l 445 340 l 466 345 l 463 356 l 467 359 l 472 348 l 522 360 l 474 341 l 479 328 l 474 325 l 469 338 l 449 331 l 458 308 l 450 305 l 440 328 l 400 311 l 426 279 l 440 292 l 447 286 l 431 272 l 441 258 l 450 264 l 454 262 l 446 254 l 477 214 l 441 250 l 428 241 l 425 244 l 436 254 l 424 266 l 405 250 l 398 258 l 418 273 l 389 301 l 372 257 l 393 251 l 391 243 l 368 249 l 364 237 l 375 235 l 372 226 l 361 229 l 340 173 l 354 231 l 347 233 m 573 245 l 573 250 l 576 250 l 576 255 l 567 255 l 567 259 l 576 259 l 576 278 l 562 271 l 568 263 l 564 261 l 558 269 l 548 262 l 551 258 l 550 256 l 545 262 l 528 252 l 544 264 l 541 269 l 542 271 l 546 265 l 555 272 l 550 279 l 553 281 l 559 275 l 573 284 l 557 297 l 551 289 l 548 292 l 554 300 l 547 306 l 543 300 l 541 302 l 545 308 l 529 321 l 546 309 l 551 315 l 553 314 l 549 308 l 557 303 l 562 311 l 564 308 l 560 301 l 576 291 l 576 309 l 568 309 l 568 314 l 576 314 l 577 322 l 571 322 l 571 325 l 577 325 l 578 347 l 580 325 l 587 325 l 587 322 l 580 322 l 581 314 l 591 314 l 591 309 l 581 309 l 583 290 l 598 300 l 594 306 l 597 309 l 602 302 l 610 307 l 607 311 l 608 313 l 612 308 l 631 319 l 614 306 l 617 301 l 615 299 l 612 304 l 604 298 l 611 290 l 608 288 l 602 296 l 586 284 l 601 274 l 606 281 l 609 279 l 604 272 l 610 267 l 613 271 l 614 270 l 612 266 l 630 253 l 610 264 l 606 258 l 604 260 l 608 265 l 602 269 l 595 260 l 592 262 l 598 271 l 583 279 l 581 259 l 591 259 l 591 255 l 581 255 l 580 250 l 585 250 l 585 245 l 580 245 l 577 220 l 576 245 l 573 245 m 434 747 l 434 753 l 439 753 l 439 761 l 424 761 l 424 767 l 439 767 l 438 798 l 416 785 l 425 774 l 420 770 l 411 782 l 395 773 l 401 766 l 397 763 l 391 772 l 363 756 l 389 774 l 384 782 l 386 785 l 392 777 l 407 788 l 398 799 l 403 803 l 412 791 l 433 807 l 410 827 l 400 814 l 395 817 l 405 830 l 393 840 l 387 830 l 384 833 l 390 843 l 366 863 l 393 846 l 399 855 l 403 852 l 397 844 l 408 836 l 416 847 l 420 844 l 414 833 l 438 817 l 439 846 l 425 846 l 425 852 l 439 852 l 441 865 l 431 865 l 431 869 l 441 869 l 441 904 l 445 869 l 455 869 l 455 865 l 445 865 l 446 852 l 463 852 l 463 846 l 446 846 l 448 817 l 473 831 l 466 840 l 471 844 l 478 834 l 491 841 l 486 848 l 489 850 l 494 844 l 524 861 l 497 840 l 503 832 l 500 829 l 494 837 l 482 829 l 492 815 l 488 812 l 477 825 l 454 807 l 477 791 l 484 802 l 490 799 l 481 787 l 491 781 l 495 786 l 498 785 l 494 779 l 522 758 l 492 775 l 486 766 l 482 768 l 488 777 l 478 782 l 469 768 l 463 772 l 473 785 l 449 798 l 446 767 l 461 767 l 461 761 l 446 761 l 445 753 l 452 753 l 452 747 l 444 747 l 441 707 l 439 747 l 434 747 m 542 629 l 542 635 l 547 635 l 547 643 l 532 643 l 532 649 l 547 649 l 546 680 l 524 667 l 533 656 l 528 652 l 519 664 l 503 655 l 509 648 l 505 645 l 499 654 l 471 638 l 496 656 l 492 664 l 494 667 l 500 659 l 515 670 l 506 681 l 511 685 l 519 673 l 541 689 l 517 709 l 508 696 l 503 699 l 513 712 l 501 722 l 494 712 l 492 715 l 498 725 l 473 745 l 500 728 l 507 737 l 511 734 l 505 726 l 516 718 l 524 729 l 528 726 l 522 715 l 546 699 l 547 728 l 533 728 l 533 734 l 547 734 l 549 747 l 538 747 l 538 751 l 549 751 l 549 786 l 553 751 l 563 751 l 563 747 l 553 747 l 554 734 l 570 734 l 570 728 l 554 728 l 556 699 l 581 713 l 574 722 l 578 726 l 586 716 l 599 723 l 594 730 l 597 732 l 602 726 l 632 743 l 605 722 l 610 714 l 608 711 l 602 719 l 590 711 l 600 697 l 595 694 l 585 707 l 562 689 l 585 673 l 592 684 l 597 681 l 589 669 l 599 663 l 603 668 l 606 667 l 602 661 l 630 640 l 600 657 l 593 648 l 590 650 l 596 659 l 586 664 l 576 650 l 571 654 l 581 667 l 557 680 l 554 649 l 569 649 l 569 643 l 553 643 l 553 635 l 560 635 l 560 629 l 552 629 l 549 589 l 547 629 l 542 629 m 593 496 l 593 500 l 597 500 l 597 507 l 585 507 l 585 513 l 597 513 l 597 536 l 579 527 l 586 518 l 583 515 l 575 524 l 562 517 l 566 511 l 564 509 l 559 516 l 537 504 l 557 519 l 553 524 l 555 526 l 559 520 l 572 529 l 565 538 l 568 541 l 575 532 l 593 544 l 573 559 l 566 550 l 562 553 l 570 563 l 561 570 l 555 563 l 553 566 l 558 572 l 538 589 l 559 575 l 566 583 l 568 580 l 564 573 l 572 567 l 578 576 l 583 573 l 577 565 l 597 552 l 597 575 l 586 575 l 586 580 l 597 580 l 598 591 l 591 591 l 591 593 l 598 593 l 599 621 l 602 593 l 610 593 l 610 591 l 602 591 l 603 580 l 616 580 l 616 575 l 603 575 l 604 552 l 624 564 l 618 571 l 623 574 l 629 566 l 638 572 l 634 576 l 636 578 l 641 573 l 665 587 l 643 570 l 648 564 l 645 562 l 640 568 l 631 562 l 640 551 l 636 547 l 628 559 l 609 544 l 627 532 l 633 540 l 637 538 l 630 528 l 638 523 l 642 528 l 644 526 l 641 522 l 663 506 l 639 519 l 634 512 l 631 513 l 636 520 l 629 524 l 621 513 l 616 516 l 623 527 l 604 537 l 603 513 l 614 513 l 614 507 l 602 507 l 602 500 l 608 500 l 608 496 l 601 496 l 598 465 l 597 496 l 593 496 m 159 302 l 159 309 l 165 309 l 165 317 l 149 317 l 149 323 l 164 323 l 163 353 l 142 341 l 151 330 l 146 326 l 136 338 l 120 329 l 126 321 l 123 319 l 117 328 l 89 312 l 114 330 l 109 338 l 111 341 l 117 332 l 132 344 l 123 355 l 128 359 l 137 347 l 159 363 l 135 382 l 125 370 l 121 373 l 130 386 l 119 395 l 112 386 l 109 389 l 115 399 l 91 418 l 118 401 l 124 411 l 128 408 l 122 399 l 134 391 l 141 403 l 146 399 l 139 389 l 163 372 l 165 401 l 151 401 l 151 408 l 165 408 l 166 421 l 156 421 l 156 425 l 166 425 l 167 460 l 170 425 l 180 425 l 180 421 l 170 421 l 172 408 l 188 408 l 188 401 l 172 401 l 174 372 l 198 387 l 191 396 l 196 400 l 203 390 l 216 397 l 212 404 l 214 406 l 220 399 l 250 416 l 222 395 l 228 388 l 225 385 l 219 393 l 208 385 l 218 371 l 213 368 l 203 381 l 180 363 l 202 347 l 210 357 l 215 355 l 207 343 l 216 336 l 220 342 l 224 340 l 220 334 l 248 314 l 217 331 l 211 322 l 208 324 l 214 332 l 203 338 l 194 324 l 189 328 l 198 341 l 174 354 l 172 323 l 186 323 l 186 317 l 171 317 l 170 309 l 178 309 l 178 302 l 170 302 l 166 262 l 165 302 l 159 302 m 442 458 l 442 463 l 447 463 l 447 469 l 434 469 l 434 474 l 446 474 l 446 498 l 428 489 l 435 479 l 431 476 l 423 486 l 410 479 l 415 473 l 412 471 l 408 477 l 385 465 l 405 479 l 401 486 l 403 489 l 408 482 l 420 491 l 413 500 l 416 503 l 424 494 l 442 506 l 422 522 l 414 512 l 411 515 l 418 526 l 409 533 l 404 526 l 401 528 l 406 536 l 386 552 l 408 538 l 413 545 l 416 544 l 412 536 l 422 530 l 427 539 l 431 536 l 426 528 l 446 514 l 447 538 l 435 538 l 435 544 l 447 544 l 448 554 l 439 554 l 439 557 l 448 557 l 449 586 l 451 557 l 459 557 l 459 554 l 451 554 l 452 544 l 465 544 l 465 538 l 453 538 l 454 514 l 474 526 l 469 534 l 473 537 l 478 528 l 489 534 l 485 540 l 488 543 l 492 536 l 516 551 l 494 533 l 498 528 l 496 525 l 492 531 l 481 524 l 490 513 l 486 510 l 478 522 l 458 506 l 477 494 l 483 502 l 488 499 l 481 490 l 489 485 l 492 490 l 494 488 l 492 483 l 515 467 l 490 481 l 484 473 l 481 475 l 486 482 l 478 486 l 470 475 l 466 478 l 473 489 l 454 499 l 452 474 l 465 474 l 465 469 l 451 469 l 451 463 l 457 463 l 457 458 l 450 458 l 448 425 l 447 458 l 442 458 m 302 16 l 302 20 l 307 20 l 307 27 l 295 27 l 295 32 l 307 32 l 306 55 l 289 46 l 296 37 l 292 35 l 285 43 l 273 37 l 277 31 l 275 28 l 270 35 l 248 23 l 268 37 l 264 43 l 265 45 l 270 39 l 282 48 l 275 56 l 279 59 l 286 51 l 302 62 l 283 78 l 277 68 l 273 71 l 280 81 l 271 88 l 266 81 l 264 83 l 269 90 l 250 106 l 271 93 l 275 100 l 279 98 l 274 91 l 283 85 l 289 94 l 292 91 l 287 83 l 306 71 l 307 93 l 296 93 l 296 98 l 307 98 l 308 108 l 300 108 l 300 111 l 308 111 l 309 138 l 311 111 l 319 111 l 319 108 l 311 108 l 312 98 l 325 98 l 325 93 l 313 93 l 314 70 l 333 81 l 328 88 l 331 92 l 337 83 l 347 89 l 342 94 l 345 96 l 349 91 l 372 104 l 351 88 l 355 82 l 353 80 l 349 85 l 340 79 l 348 69 l 344 66 l 336 77 l 318 62 l 336 50 l 341 58 l 345 56 l 339 47 l 347 42 l 350 47 l 353 45 l 349 41 l 371 25 l 347 38 l 342 31 l 340 33 l 345 39 l 337 43 l 329 33 l 325 36 l 332 46 l 314 56 l 312 32 l 323 32 l 323 27 l 311 27 l 311 20 l 317 20 l 317 16 l 311 16 l 308 -15 l 307 16 l 302 16 m 186 479 l 186 484 l 191 484 l 191 490 l 179 490 l 179 494 l 190 494 l 190 517 l 174 508 l 180 500 l 176 497 l 170 506 l 157 499 l 161 493 l 159 491 l 155 498 l 134 486 l 153 500 l 149 506 l 151 508 l 155 502 l 166 510 l 159 518 l 163 522 l 170 513 l 186 524 l 168 539 l 161 530 l 157 532 l 165 542 l 156 549 l 151 542 l 149 545 l 153 551 l 135 566 l 155 553 l 160 561 l 163 559 l 159 552 l 168 546 l 173 555 l 176 552 l 172 544 l 190 532 l 191 553 l 180 553 l 180 559 l 191 559 l 192 568 l 184 568 l 184 572 l 192 572 l 192 597 l 195 572 l 202 572 l 202 568 l 195 568 l 196 559 l 208 559 l 208 553 l 196 553 l 197 532 l 216 543 l 210 549 l 214 553 l 220 545 l 229 550 l 226 555 l 228 557 l 232 552 l 254 565 l 234 549 l 238 543 l 236 541 l 231 547 l 222 541 l 231 530 l 227 528 l 219 538 l 202 524 l 218 512 l 224 520 l 229 518 l 222 510 l 229 505 l 233 509 l 235 508 l 232 503 l 253 488 l 230 500 l 225 494 l 222 495 l 227 502 l 220 506 l 212 495 l 208 498 l 216 508 l 198 518 l 196 494 l 207 494 l 207 490 l 195 490 l 195 484 l 200 484 l 200 479 l 194 479 l 192 449 l 191 479 l 186 479 m 530 155 l 530 159 l 533 159 l 533 163 l 525 163 l 525 166 l 533 166 l 532 182 l 521 176 l 526 170 l 523 168 l 518 174 l 509 170 l 513 165 l 511 164 l 508 169 l 493 161 l 507 170 l 504 174 l 505 176 l 508 172 l 516 178 l 511 183 l 514 185 l 518 179 l 530 187 l 517 198 l 512 191 l 510 193 l 515 199 l 509 205 l 505 199 l 504 201 l 507 206 l 494 217 l 509 208 l 511 213 l 514 212 l 511 207 l 517 203 l 521 209 l 523 207 l 519 201 l 532 193 l 533 208 l 526 208 l 526 212 l 533 212 l 534 218 l 528 218 l 528 220 l 534 220 l 534 239 l 536 220 l 541 220 l 541 218 l 536 218 l 536 212 l 545 212 l 545 208 l 536 208 l 538 193 l 551 200 l 547 205 l 549 207 l 553 201 l 560 205 l 557 209 l 559 210 l 562 207 l 578 216 l 564 205 l 566 201 l 565 199 l 562 203 l 555 199 l 561 192 l 559 190 l 553 197 l 541 187 l 553 179 l 557 184 l 559 183 l 555 177 l 560 174 l 562 176 l 564 176 l 562 172 l 576 161 l 561 170 l 557 166 l 555 167 l 559 172 l 553 174 l 549 167 l 546 169 l 551 176 l 538 182 l 536 166 l 545 166 l 545 163 l 536 163 l 536 159 l 540 159 l 540 155 l 536 155 l 534 134 l 533 155 l 530 155 m 353 551 l 353 556 l 357 556 l 357 562 l 345 562 l 345 566 l 356 566 l 355 588 l 340 579 l 347 571 l 343 568 l 336 576 l 325 570 l 329 565 l 327 563 l 322 570 l 302 558 l 320 571 l 317 576 l 319 579 l 323 573 l 334 581 l 327 589 l 330 591 l 337 583 l 352 595 l 335 609 l 329 600 l 326 602 l 332 611 l 323 618 l 319 611 l 317 614 l 321 621 l 304 634 l 323 623 l 328 629 l 330 627 l 326 621 l 334 615 l 340 623 l 343 621 l 338 613 l 355 602 l 357 623 l 347 623 l 347 627 l 357 627 l 357 636 l 351 636 l 351 640 l 357 640 l 358 664 l 361 640 l 368 640 l 368 636 l 361 636 l 361 627 l 373 627 l 373 623 l 361 623 l 363 602 l 380 612 l 376 618 l 379 621 l 385 614 l 393 619 l 390 624 l 392 626 l 396 621 l 417 633 l 397 618 l 401 612 l 399 610 l 395 616 l 387 610 l 394 600 l 391 598 l 384 608 l 368 595 l 383 583 l 389 591 l 393 589 l 387 581 l 393 576 l 396 580 l 399 578 l 396 574 l 416 559 l 394 572 l 389 566 l 387 567 l 391 573 l 385 576 l 378 567 l 374 570 l 380 579 l 363 588 l 361 566 l 372 566 l 372 562 l 361 562 l 361 556 l 366 556 l 366 551 l 360 551 l 357 523 l 357 551 l 353 551 m 274 882 l 274 888 l 279 888 l 279 897 l 264 897 l 264 903 l 279 903 l 278 933 l 256 921 l 265 909 l 260 906 l 251 918 l 235 909 l 241 901 l 237 899 l 231 907 l 203 892 l 229 910 l 224 918 l 226 921 l 232 912 l 247 924 l 238 935 l 243 939 l 252 927 l 273 943 l 250 962 l 240 949 l 235 953 l 245 966 l 233 975 l 227 966 l 224 969 l 230 979 l 205 998 l 233 981 l 239 991 l 243 988 l 237 979 l 248 971 l 256 983 l 260 979 l 254 968 l 278 952 l 279 981 l 265 981 l 265 988 l 279 988 l 281 1001 l 271 1001 l 271 1005 l 281 1005 l 281 1040 l 285 1005 l 295 1005 l 295 1001 l 285 1001 l 286 988 l 302 988 l 302 981 l 286 981 l 288 952 l 313 966 l 306 976 l 311 980 l 318 970 l 331 977 l 326 983 l 329 986 l 334 979 l 364 996 l 337 975 l 342 968 l 340 965 l 334 972 l 322 964 l 332 951 l 328 947 l 317 961 l 294 943 l 317 926 l 324 937 l 330 935 l 321 923 l 331 916 l 335 922 l 338 920 l 334 914 l 362 894 l 332 911 l 326 902 l 322 904 l 328 912 l 318 918 l 309 904 l 303 907 l 313 921 l 289 934 l 286 903 l 301 903 l 301 897 l 286 897 l 285 888 l 292 888 l 292 882 l 284 882 l 281 842 l 279 882 l 274 882 m 323 -45 q 445 -19 377 -56 q 546 21 513 18 q 604 19 578 23 q 690 -19 629 14 l 710 -26 q 617 30 649 21 q 553 38 585 39 q 492 23 521 36 q 408 -19 464 9 q 277 -21 351 -48 l 323 -45 z "},"E":{"ha":662,"x_min":-39,"x_max":669,"o":"m 133 530 l 133 536 l 138 536 l 138 543 l 125 543 l 125 548 l 137 548 l 137 574 l 118 564 l 125 553 l 121 551 l 114 560 l 100 553 l 104 547 l 102 545 l 97 551 l 73 538 l 95 554 l 90 560 l 92 563 l 97 556 l 110 566 l 102 575 l 106 578 l 114 568 l 133 581 l 112 598 l 104 587 l 100 591 l 109 602 l 99 610 l 93 602 l 90 604 l 96 612 l 75 629 l 98 614 l 103 623 l 106 620 l 101 612 l 111 606 l 118 615 l 121 612 l 116 604 l 137 590 l 138 614 l 125 614 l 125 620 l 138 620 l 138 631 l 130 631 l 130 634 l 138 634 l 140 664 l 142 634 l 151 634 l 151 631 l 142 631 l 143 620 l 157 620 l 157 614 l 144 614 l 145 589 l 166 602 l 160 610 l 164 614 l 171 604 l 181 610 l 177 616 l 180 618 l 184 612 l 210 627 l 186 610 l 191 603 l 189 600 l 184 607 l 174 600 l 182 589 l 178 585 l 170 597 l 150 581 l 169 568 l 176 577 l 180 574 l 173 565 l 182 559 l 185 564 l 188 562 l 184 557 l 208 541 l 182 555 l 176 547 l 174 549 l 179 556 l 171 560 l 162 549 l 157 552 l 165 564 l 146 574 l 143 548 l 156 548 l 156 543 l 142 543 l 142 536 l 149 536 l 149 530 l 142 530 l 138 496 l 138 530 l 133 530 m 260 469 l 260 475 l 266 475 l 266 483 l 250 483 l 250 489 l 265 489 l 264 519 l 243 507 l 252 496 l 247 492 l 237 504 l 221 495 l 227 488 l 224 485 l 218 494 l 190 478 l 215 496 l 210 504 l 212 507 l 218 498 l 233 510 l 224 521 l 229 525 l 238 513 l 260 529 l 236 549 l 227 536 l 222 539 l 231 552 l 220 562 l 213 552 l 210 555 l 216 565 l 192 585 l 219 568 l 225 577 l 229 574 l 223 566 l 235 557 l 242 569 l 247 566 l 240 555 l 264 538 l 266 568 l 252 568 l 252 574 l 266 574 l 267 587 l 257 587 l 257 591 l 267 591 l 268 626 l 271 591 l 281 591 l 281 587 l 271 587 l 273 574 l 289 574 l 289 568 l 273 568 l 275 538 l 299 553 l 292 562 l 297 566 l 304 556 l 317 563 l 313 570 l 315 572 l 321 566 l 351 583 l 323 562 l 329 554 l 326 551 l 320 559 l 309 551 l 319 537 l 314 534 l 304 547 l 281 529 l 303 513 l 311 524 l 316 521 l 308 509 l 317 503 l 321 508 l 325 507 l 321 500 l 349 480 l 318 497 l 312 488 l 309 490 l 315 498 l 304 504 l 295 490 l 290 494 l 299 507 l 275 520 l 273 489 l 288 489 l 288 483 l 272 483 l 271 475 l 279 475 l 279 469 l 271 469 l 267 429 l 266 469 l 260 469 m 100 165 l 100 172 l 105 172 l 105 180 l 90 180 l 90 186 l 104 186 l 104 216 l 82 204 l 91 193 l 86 189 l 77 201 l 60 192 l 66 184 l 63 182 l 57 191 l 29 175 l 54 193 l 50 201 l 52 204 l 58 195 l 73 207 l 64 218 l 68 222 l 77 210 l 99 226 l 75 245 l 66 233 l 61 236 l 71 249 l 59 258 l 52 249 l 50 252 l 56 262 l 31 281 l 58 264 l 64 274 l 68 271 l 62 262 l 74 254 l 81 266 l 86 262 l 79 252 l 104 235 l 105 264 l 91 264 l 91 271 l 105 271 l 106 284 l 96 284 l 96 288 l 106 288 l 107 323 l 111 288 l 121 288 l 121 284 l 111 284 l 112 271 l 128 271 l 128 264 l 112 264 l 114 235 l 138 250 l 132 259 l 136 263 l 144 253 l 157 260 l 152 267 l 155 269 l 160 262 l 190 279 l 163 258 l 168 251 l 165 248 l 159 256 l 148 248 l 158 234 l 153 231 l 143 244 l 120 226 l 142 210 l 150 220 l 155 218 l 147 206 l 157 199 l 161 205 l 164 203 l 160 197 l 188 177 l 157 194 l 151 185 l 148 187 l 154 195 l 144 201 l 134 187 l 129 191 l 138 204 l 115 217 l 112 186 l 127 186 l 127 180 l 111 180 l 111 172 l 118 172 l 118 165 l 110 165 l 106 125 l 105 165 l 100 165 m 536 285 l 536 291 l 542 291 l 542 299 l 526 299 l 526 305 l 541 305 l 541 336 l 519 323 l 528 312 l 523 309 l 513 320 l 497 311 l 503 304 l 500 301 l 494 310 l 466 294 l 491 313 l 486 320 l 488 323 l 494 315 l 509 326 l 500 337 l 505 341 l 514 330 l 536 345 l 512 365 l 503 352 l 498 355 l 507 368 l 496 378 l 489 368 l 486 372 l 492 381 l 468 401 l 495 384 l 501 393 l 505 391 l 499 382 l 511 374 l 518 385 l 523 382 l 516 371 l 541 355 l 542 384 l 528 384 l 528 391 l 542 391 l 543 404 l 533 404 l 533 408 l 543 408 l 544 442 l 547 408 l 557 408 l 557 404 l 547 404 l 549 391 l 565 391 l 565 384 l 549 384 l 551 355 l 575 369 l 568 378 l 573 382 l 581 372 l 593 379 l 589 386 l 591 389 l 597 382 l 627 399 l 600 378 l 605 370 l 602 368 l 596 375 l 585 367 l 595 353 l 590 350 l 580 363 l 557 345 l 579 329 l 587 340 l 592 337 l 584 326 l 593 319 l 597 324 l 601 323 l 597 317 l 625 296 l 594 313 l 588 304 l 585 307 l 591 315 l 581 320 l 571 307 l 566 310 l 575 323 l 551 336 l 549 305 l 564 305 l 564 299 l 548 299 l 547 291 l 555 291 l 555 285 l 547 285 l 543 245 l 542 285 l 536 285 m 212 58 l 212 64 l 217 64 l 217 73 l 201 73 l 201 79 l 216 79 l 216 109 l 194 97 l 203 85 l 198 82 l 189 94 l 172 85 l 178 77 l 175 75 l 169 83 l 141 68 l 166 86 l 161 94 l 163 97 l 170 88 l 184 100 l 176 111 l 180 115 l 189 103 l 211 119 l 187 138 l 178 125 l 173 129 l 182 142 l 171 151 l 164 142 l 161 145 l 168 155 l 143 174 l 170 157 l 176 167 l 180 164 l 174 155 l 186 147 l 193 159 l 198 155 l 191 144 l 216 128 l 217 157 l 203 157 l 203 164 l 217 164 l 218 177 l 208 177 l 208 181 l 218 181 l 219 216 l 222 181 l 233 181 l 233 177 l 222 177 l 224 164 l 240 164 l 240 157 l 224 157 l 226 128 l 250 142 l 243 152 l 248 156 l 256 146 l 269 153 l 264 159 l 267 162 l 272 155 l 302 172 l 275 151 l 280 144 l 277 141 l 271 149 l 260 140 l 270 127 l 265 123 l 255 137 l 232 119 l 254 102 l 262 113 l 267 111 l 259 99 l 269 92 l 273 98 l 276 96 l 272 90 l 300 70 l 269 87 l 263 78 l 260 80 l 266 88 l 256 94 l 246 80 l 241 83 l 250 97 l 227 110 l 224 79 l 239 79 l 239 73 l 223 73 l 222 64 l 230 64 l 230 58 l 222 58 l 218 18 l 217 58 l 212 58 m 285 803 l 285 807 l 289 807 l 289 813 l 277 813 l 277 818 l 288 818 l 288 840 l 272 831 l 279 823 l 275 820 l 268 829 l 256 823 l 260 817 l 258 815 l 254 821 l 233 810 l 252 823 l 248 829 l 250 831 l 254 825 l 265 833 l 258 841 l 262 844 l 269 836 l 284 847 l 267 861 l 260 852 l 256 854 l 263 864 l 255 871 l 250 864 l 248 866 l 253 873 l 235 888 l 254 875 l 259 882 l 262 880 l 257 873 l 266 868 l 271 876 l 275 873 l 270 865 l 288 854 l 289 875 l 279 875 l 279 880 l 289 880 l 290 889 l 282 889 l 282 892 l 290 892 l 290 918 l 292 892 l 300 892 l 300 889 l 292 889 l 294 880 l 305 880 l 305 875 l 294 875 l 295 854 l 313 865 l 308 871 l 311 874 l 317 867 l 326 871 l 323 876 l 325 878 l 329 873 l 351 886 l 331 871 l 335 865 l 332 863 l 328 869 l 320 863 l 328 852 l 324 850 l 317 860 l 300 847 l 316 835 l 321 843 l 326 841 l 319 833 l 327 827 l 330 831 l 332 831 l 329 826 l 349 812 l 327 823 l 322 817 l 320 819 l 324 825 l 317 829 l 310 819 l 306 821 l 313 831 l 296 840 l 294 818 l 304 818 l 304 813 l 293 813 l 292 807 l 298 807 l 298 803 l 292 803 l 290 774 l 289 803 l 285 803 m 124 659 l 124 662 l 127 662 l 127 667 l 118 667 l 118 671 l 127 671 l 126 688 l 113 682 l 119 675 l 116 672 l 111 680 l 101 674 l 104 669 l 102 668 l 99 673 l 83 664 l 98 675 l 94 680 l 96 681 l 99 676 l 108 683 l 103 689 l 106 691 l 111 685 l 123 694 l 109 705 l 104 698 l 101 700 l 106 707 l 100 713 l 96 707 l 94 709 l 98 715 l 84 726 l 100 716 l 103 722 l 106 720 l 102 715 l 109 710 l 113 717 l 116 715 l 112 709 l 126 699 l 127 716 l 119 716 l 119 720 l 127 720 l 127 728 l 122 728 l 122 730 l 127 730 l 128 750 l 130 730 l 136 730 l 136 728 l 130 728 l 131 720 l 140 720 l 140 716 l 131 716 l 132 699 l 146 707 l 142 713 l 145 715 l 150 709 l 157 713 l 154 718 l 156 719 l 159 715 l 176 725 l 161 713 l 163 708 l 162 707 l 159 711 l 152 706 l 158 699 l 155 696 l 149 704 l 136 694 l 149 684 l 153 690 l 156 689 l 151 682 l 157 678 l 159 682 l 161 681 l 159 677 l 175 665 l 157 675 l 154 670 l 152 671 l 155 676 l 150 680 l 144 671 l 140 673 l 146 682 l 132 688 l 131 671 l 140 671 l 140 667 l 130 667 l 130 662 l 134 662 l 134 659 l 130 659 l 127 635 l 127 659 l 124 659 m 425 766 l 425 772 l 431 772 l 431 780 l 415 780 l 415 786 l 430 786 l 429 817 l 408 804 l 416 793 l 412 789 l 402 801 l 386 792 l 392 785 l 389 782 l 382 791 l 355 775 l 380 793 l 375 801 l 377 804 l 383 795 l 398 807 l 389 818 l 394 822 l 403 810 l 425 826 l 401 846 l 391 833 l 387 836 l 396 849 l 385 859 l 378 849 l 375 852 l 381 862 l 357 882 l 384 865 l 390 874 l 394 871 l 388 863 l 399 854 l 407 866 l 412 863 l 405 852 l 429 836 l 431 865 l 416 865 l 416 871 l 431 871 l 432 884 l 422 884 l 422 888 l 432 888 l 433 923 l 436 888 l 446 888 l 446 884 l 436 884 l 437 871 l 454 871 l 454 865 l 437 865 l 439 836 l 464 850 l 457 859 l 462 863 l 469 853 l 482 860 l 477 867 l 480 869 l 486 863 l 515 880 l 488 859 l 494 851 l 491 848 l 485 856 l 473 848 l 484 834 l 479 831 l 469 844 l 446 826 l 468 810 l 475 821 l 481 818 l 473 806 l 482 800 l 486 805 l 490 804 l 486 798 l 513 777 l 483 794 l 477 785 l 473 787 l 479 795 l 469 801 l 460 787 l 454 791 l 464 804 l 440 817 l 437 786 l 452 786 l 452 780 l 437 780 l 436 772 l 444 772 l 444 766 l 435 766 l 432 726 l 431 766 l 425 766 m 314 234 l 314 242 l 321 242 l 321 254 l 300 254 l 300 263 l 321 263 l 320 305 l 290 289 l 302 272 l 295 267 l 282 283 l 259 271 l 267 260 l 263 257 l 254 269 l 215 248 l 250 273 l 243 283 l 246 288 l 255 276 l 276 292 l 264 308 l 271 313 l 283 297 l 313 319 l 279 347 l 267 328 l 260 334 l 273 351 l 257 365 l 248 351 l 243 355 l 252 369 l 218 397 l 256 373 l 264 387 l 271 382 l 261 370 l 278 359 l 289 375 l 295 370 l 286 355 l 320 332 l 321 373 l 302 373 l 302 382 l 321 382 l 323 400 l 309 400 l 309 406 l 323 406 l 325 455 l 329 406 l 344 406 l 344 400 l 329 400 l 331 382 l 354 382 l 354 373 l 332 373 l 334 332 l 369 353 l 359 366 l 366 372 l 376 357 l 393 366 l 387 376 l 391 380 l 399 370 l 441 394 l 403 365 l 410 354 l 406 350 l 398 361 l 382 349 l 396 330 l 389 325 l 376 344 l 342 319 l 374 296 l 385 311 l 392 307 l 380 291 l 395 281 l 400 290 l 404 287 l 399 279 l 438 250 l 395 274 l 386 261 l 382 264 l 391 276 l 376 283 l 362 264 l 355 270 l 368 289 l 335 306 l 331 263 l 352 263 l 352 254 l 330 254 l 329 242 l 340 242 l 340 234 l 328 234 l 323 178 l 321 234 l 314 234 m 117 325 l 117 329 l 121 329 l 121 335 l 110 335 l 110 339 l 120 339 l 120 360 l 104 352 l 111 344 l 108 341 l 101 350 l 90 343 l 94 338 l 92 336 l 87 342 l 68 332 l 85 345 l 82 350 l 83 352 l 87 346 l 98 354 l 92 361 l 95 364 l 102 356 l 117 367 l 100 381 l 93 372 l 90 374 l 96 383 l 89 390 l 84 383 l 82 385 l 86 392 l 69 406 l 88 394 l 92 401 l 95 399 l 91 393 l 99 387 l 104 395 l 108 393 l 102 385 l 120 374 l 121 394 l 111 394 l 111 399 l 121 399 l 121 408 l 115 408 l 115 410 l 121 410 l 122 435 l 124 410 l 132 410 l 132 408 l 124 408 l 125 399 l 137 399 l 137 394 l 125 394 l 127 374 l 144 384 l 139 391 l 142 393 l 148 386 l 157 391 l 153 395 l 155 397 l 159 393 l 180 404 l 161 390 l 165 385 l 163 382 l 159 388 l 151 382 l 157 372 l 155 370 l 147 380 l 131 367 l 146 356 l 152 363 l 155 361 l 150 353 l 157 349 l 159 353 l 161 351 l 159 347 l 178 333 l 157 345 l 153 338 l 151 340 l 155 346 l 148 350 l 141 340 l 137 342 l 144 352 l 127 361 l 125 339 l 136 339 l 136 335 l 125 335 l 124 329 l 130 329 l 130 325 l 124 325 l 121 297 l 121 325 l 117 325 m 349 40 l 349 45 l 353 45 l 353 51 l 341 51 l 341 56 l 353 56 l 353 79 l 336 70 l 342 61 l 338 58 l 332 67 l 319 60 l 323 54 l 321 53 l 316 59 l 294 47 l 314 62 l 310 67 l 312 70 l 316 63 l 328 72 l 321 81 l 325 83 l 332 75 l 349 87 l 330 102 l 323 92 l 319 95 l 326 105 l 317 112 l 312 105 l 310 107 l 315 115 l 296 130 l 317 117 l 321 124 l 325 122 l 320 115 l 329 109 l 335 118 l 338 115 l 333 106 l 353 94 l 353 117 l 342 117 l 342 122 l 353 122 l 354 132 l 347 132 l 347 135 l 354 135 l 355 162 l 357 135 l 366 135 l 366 132 l 357 132 l 358 122 l 371 122 l 371 117 l 359 117 l 360 94 l 379 105 l 374 113 l 378 116 l 383 108 l 393 113 l 389 118 l 392 121 l 396 115 l 419 128 l 398 112 l 402 106 l 400 104 l 395 110 l 387 104 l 395 93 l 391 90 l 383 101 l 365 87 l 382 74 l 388 83 l 392 80 l 386 71 l 393 66 l 397 71 l 399 69 l 396 64 l 418 49 l 394 62 l 389 55 l 387 57 l 391 63 l 383 67 l 376 57 l 372 60 l 379 70 l 361 80 l 358 56 l 370 56 l 370 51 l 358 51 l 357 45 l 363 45 l 363 40 l 357 40 l 354 9 l 353 40 l 349 40 m 571 555 q 566 557 571 555 q 555 570 561 559 q 554 591 551 580 q 567 606 557 602 q 586 607 576 611 q 602 592 596 604 q 603 572 607 582 q 591 557 600 562 q 571 555 581 552 m 597 642 q 594 643 597 642 q 591 648 592 644 q 590 657 588 652 q 596 663 593 661 q 604 663 600 665 q 610 657 608 661 q 610 649 611 654 q 606 643 609 644 q 597 642 602 640 m -5 -45 q 86 -25 36 -52 q 161 5 137 3 q 205 3 186 7 q 269 -25 224 0 l 284 -31 q 215 12 239 5 q 167 17 191 18 q 122 6 143 16 q 58 -25 100 -3 q -39 -26 16 -47 l -5 -45 m 625 -44 q 533 -24 584 -52 q 458 5 483 3 q 415 4 434 7 q 351 -24 396 1 l 336 -30 q 405 12 381 5 q 453 18 429 19 q 498 7 477 17 q 562 -24 519 -3 q 659 -26 604 -46 l 625 -44 m 551 490 l 551 524 q 558 523 554 523 l 614 500 l 618 477 l 623 478 l 620 498 l 638 485 l 642 490 l 623 503 l 645 504 l 644 510 l 620 509 l 620 507 l 576 524 q 586 528 581 525 q 615 562 608 538 q 611 609 623 585 q 614 610 613 609 q 631 631 627 617 q 631 659 636 646 l 667 667 l 662 671 l 631 675 l 631 705 l 627 709 l 617 675 q 609 680 614 678 q 582 680 595 686 q 564 658 569 672 q 561 648 562 652 l 486 745 l 513 642 l 534 638 q 525 634 529 637 l 406 637 l 503 602 l 504 602 q 503 569 498 585 l 426 523 l 458 493 l 509 552 q 540 528 520 535 l 540 489 l 418 331 q 501 191 519 251 q 391 138 482 132 q 213 231 299 145 q 184 444 127 316 q 277 422 223 428 l 410 564 l 398 578 q 204 618 243 578 q 171 722 164 658 q 242 798 177 785 q 366 783 307 811 q 416 703 425 754 l 431 692 l 546 817 q 495 876 536 844 q 400 908 454 907 q 303 899 347 910 q 192 837 260 887 q 75 687 124 787 q 146 466 26 587 q 37 195 4 345 q 330 -4 77 40 q 633 273 595 135 q 551 490 669 409 z "},"F":{"ha":532,"x_min":8,"x_max":553,"o":"m 8 765 l 19 743 q 73 701 71 783 l 72 113 q 178 -7 79 10 l 287 100 q 230 237 227 150 l 230 473 l 384 476 l 470 591 l 453 608 l 303 608 l 234 512 l 235 750 l 439 749 l 553 876 l 548 900 l 310 900 l 224 777 q 151 907 224 878 l 8 765 m 139 298 l 139 304 l 144 304 l 144 312 l 129 312 l 129 318 l 144 318 l 143 349 l 121 336 l 130 325 l 125 321 l 116 333 l 100 324 l 106 317 l 102 314 l 96 323 l 68 307 l 94 326 l 89 333 l 91 336 l 97 328 l 112 339 l 103 350 l 108 354 l 117 342 l 138 358 l 115 378 l 105 365 l 100 368 l 110 381 l 98 391 l 92 381 l 89 385 l 95 394 l 71 414 l 98 397 l 104 406 l 108 404 l 102 395 l 113 387 l 121 398 l 125 395 l 119 384 l 143 368 l 144 397 l 130 397 l 130 404 l 144 404 l 146 416 l 136 416 l 136 420 l 146 420 l 146 455 l 150 420 l 160 420 l 160 416 l 150 416 l 151 404 l 168 404 l 168 397 l 151 397 l 153 368 l 178 382 l 171 391 l 176 395 l 183 385 l 196 392 l 191 399 l 194 401 l 199 395 l 229 412 l 202 391 l 208 383 l 205 380 l 199 388 l 187 380 l 197 366 l 193 363 l 182 376 l 159 358 l 182 342 l 189 353 l 195 350 l 186 338 l 196 332 l 200 337 l 203 336 l 199 330 l 227 309 l 197 326 l 191 317 l 187 319 l 193 328 l 183 333 l 174 319 l 168 323 l 178 336 l 154 349 l 151 318 l 166 318 l 166 312 l 151 312 l 150 304 l 157 304 l 157 298 l 149 298 l 146 258 l 144 298 l 139 298 m 147 79 l 147 85 l 153 85 l 153 94 l 137 94 l 137 100 l 152 100 l 151 130 l 130 118 l 138 106 l 134 103 l 124 115 l 108 106 l 114 98 l 111 96 l 104 104 l 77 89 l 102 107 l 97 115 l 99 118 l 105 109 l 120 121 l 111 132 l 116 136 l 125 124 l 146 140 l 123 159 l 113 146 l 109 150 l 118 163 l 106 172 l 100 163 l 97 166 l 103 176 l 79 195 l 106 178 l 112 188 l 116 185 l 110 176 l 121 168 l 129 180 l 134 176 l 127 165 l 151 149 l 153 178 l 138 178 l 138 185 l 153 185 l 154 198 l 144 198 l 144 202 l 154 202 l 155 237 l 158 202 l 168 202 l 168 198 l 158 198 l 159 185 l 176 185 l 176 178 l 159 178 l 161 149 l 186 163 l 179 173 l 184 177 l 191 167 l 204 174 l 199 180 l 202 183 l 208 176 l 237 193 l 210 172 l 216 165 l 213 162 l 207 170 l 195 161 l 205 148 l 201 144 l 191 158 l 168 140 l 190 123 l 197 134 l 203 132 l 195 120 l 204 113 l 208 119 l 212 117 l 208 111 l 235 91 l 205 108 l 199 99 l 195 101 l 201 109 l 191 115 l 182 101 l 176 104 l 186 118 l 162 131 l 159 100 l 174 100 l 174 94 l 159 94 l 158 85 l 165 85 l 165 79 l 157 79 l 154 39 l 153 79 l 147 79 m 471 641 l 471 645 l 475 645 l 475 651 l 465 651 l 465 656 l 475 656 l 475 677 l 458 669 l 465 660 l 462 658 l 455 666 l 443 660 l 447 654 l 445 652 l 440 659 l 420 648 l 439 661 l 435 666 l 437 668 l 441 663 l 452 671 l 446 678 l 449 681 l 455 673 l 471 684 l 454 699 l 447 689 l 444 692 l 450 701 l 442 708 l 437 701 l 435 703 l 439 710 l 422 724 l 441 712 l 446 719 l 449 717 l 444 710 l 453 705 l 458 713 l 462 710 l 456 703 l 475 691 l 475 712 l 465 712 l 465 717 l 475 717 l 476 726 l 469 726 l 469 729 l 476 729 l 477 754 l 479 729 l 487 729 l 487 726 l 479 726 l 480 717 l 492 717 l 492 712 l 480 712 l 481 691 l 500 701 l 494 708 l 498 711 l 503 703 l 512 709 l 509 713 l 511 715 l 515 710 l 536 723 l 517 708 l 521 703 l 519 700 l 514 706 l 507 700 l 513 690 l 510 688 l 503 697 l 486 684 l 502 673 l 507 680 l 511 678 l 505 670 l 513 665 l 515 669 l 517 668 l 515 663 l 535 649 l 513 661 l 509 654 l 507 656 l 511 663 l 503 666 l 496 656 l 492 659 l 499 669 l 482 677 l 480 656 l 491 656 l 491 651 l 479 651 l 479 645 l 485 645 l 485 641 l 479 641 l 476 612 l 475 641 l 471 641 m 348 503 l 348 507 l 352 507 l 352 513 l 340 513 l 340 518 l 352 518 l 351 541 l 334 532 l 341 524 l 338 521 l 330 530 l 318 523 l 322 517 l 320 515 l 315 522 l 294 509 l 313 524 l 309 530 l 311 532 l 315 526 l 328 534 l 321 543 l 324 545 l 331 537 l 348 549 l 329 564 l 322 554 l 318 557 l 326 567 l 317 574 l 311 567 l 309 569 l 314 576 l 295 592 l 316 579 l 321 586 l 324 584 l 319 577 l 328 571 l 334 580 l 338 577 l 332 569 l 351 557 l 352 579 l 341 579 l 341 584 l 352 584 l 353 594 l 345 594 l 345 597 l 353 597 l 354 624 l 357 597 l 365 597 l 365 594 l 357 594 l 357 584 l 370 584 l 370 579 l 358 579 l 359 556 l 378 568 l 373 574 l 376 578 l 382 570 l 392 575 l 388 581 l 391 583 l 395 577 l 418 590 l 397 574 l 401 568 l 399 566 l 394 572 l 385 566 l 393 555 l 389 553 l 382 563 l 363 549 l 381 536 l 387 545 l 391 543 l 385 534 l 392 528 l 395 533 l 398 532 l 395 527 l 416 511 l 393 524 l 388 517 l 385 519 l 390 526 l 382 530 l 374 519 l 370 522 l 378 532 l 359 542 l 357 518 l 369 518 l 369 513 l 357 513 l 357 507 l 362 507 l 362 503 l 356 503 l 353 471 l 352 503 l 348 503 m 374 773 l 374 779 l 379 779 l 379 787 l 363 787 l 363 793 l 378 793 l 378 824 l 356 812 l 365 800 l 360 797 l 351 808 l 334 800 l 340 792 l 337 789 l 331 798 l 303 783 l 328 801 l 323 808 l 326 812 l 332 803 l 347 814 l 338 825 l 342 829 l 351 818 l 373 833 l 349 853 l 340 840 l 335 844 l 345 857 l 333 866 l 326 857 l 323 860 l 330 869 l 305 889 l 332 872 l 338 882 l 342 879 l 336 870 l 348 862 l 355 873 l 360 870 l 353 859 l 378 843 l 379 872 l 365 872 l 365 879 l 379 879 l 380 892 l 370 892 l 370 896 l 380 896 l 381 930 l 385 896 l 395 896 l 395 892 l 385 892 l 386 879 l 402 879 l 402 872 l 386 872 l 388 843 l 412 857 l 406 867 l 410 871 l 418 861 l 431 867 l 426 874 l 429 877 l 434 870 l 464 887 l 437 866 l 442 859 l 439 856 l 433 863 l 422 855 l 432 842 l 427 838 l 417 852 l 394 833 l 416 817 l 424 828 l 429 825 l 421 814 l 431 807 l 435 812 l 438 811 l 434 805 l 462 785 l 431 802 l 425 793 l 422 795 l 428 803 l 418 808 l 408 795 l 403 798 l 412 812 l 389 825 l 386 793 l 401 793 l 401 787 l 385 787 l 385 779 l 392 779 l 392 773 l 384 773 l 380 733 l 379 773 l 374 773 m 132 699 l 132 705 l 137 705 l 137 713 l 121 713 l 121 720 l 136 720 l 136 750 l 114 738 l 123 726 l 118 723 l 109 734 l 92 726 l 98 718 l 95 715 l 89 724 l 61 709 l 86 727 l 81 734 l 83 738 l 90 729 l 104 741 l 96 751 l 100 755 l 109 744 l 131 760 l 107 779 l 98 766 l 93 770 l 102 783 l 91 792 l 84 783 l 81 786 l 87 795 l 63 815 l 90 798 l 96 808 l 100 805 l 94 796 l 106 788 l 113 800 l 118 796 l 111 785 l 136 769 l 137 798 l 123 798 l 123 805 l 137 805 l 138 818 l 128 818 l 128 822 l 138 822 l 139 857 l 142 822 l 153 822 l 153 818 l 142 818 l 144 805 l 160 805 l 160 798 l 144 798 l 146 769 l 170 783 l 163 793 l 168 797 l 176 787 l 189 793 l 184 800 l 186 803 l 192 796 l 222 813 l 195 792 l 200 785 l 197 782 l 191 789 l 180 781 l 190 768 l 185 764 l 175 778 l 152 760 l 174 743 l 182 754 l 187 751 l 179 740 l 189 733 l 193 739 l 196 737 l 192 731 l 220 711 l 189 728 l 183 719 l 180 721 l 186 729 l 176 734 l 166 721 l 161 724 l 170 738 l 146 751 l 144 720 l 159 720 l 159 713 l 143 713 l 142 705 l 150 705 l 150 699 l 142 699 l 138 659 l 137 699 l 132 699 m 139 507 l 139 513 l 144 513 l 144 521 l 129 521 l 129 527 l 144 527 l 143 557 l 121 545 l 130 534 l 125 530 l 116 542 l 100 533 l 106 526 l 102 523 l 96 532 l 68 516 l 94 534 l 89 542 l 91 545 l 97 536 l 112 548 l 103 559 l 108 563 l 117 551 l 138 567 l 115 587 l 105 574 l 100 577 l 110 590 l 98 600 l 92 590 l 89 593 l 95 603 l 71 623 l 98 606 l 104 615 l 108 612 l 102 604 l 113 595 l 121 607 l 125 604 l 119 593 l 143 576 l 144 606 l 130 606 l 130 612 l 144 612 l 146 625 l 136 625 l 136 629 l 146 629 l 146 664 l 150 629 l 160 629 l 160 625 l 150 625 l 151 612 l 168 612 l 168 606 l 151 606 l 153 576 l 178 591 l 171 600 l 176 604 l 183 594 l 196 601 l 191 608 l 194 610 l 199 604 l 229 621 l 202 600 l 208 592 l 205 589 l 199 597 l 187 589 l 197 575 l 193 572 l 182 585 l 159 567 l 182 551 l 189 562 l 195 559 l 186 547 l 196 541 l 200 546 l 203 545 l 199 538 l 227 518 l 197 535 l 191 526 l 187 528 l 193 536 l 183 542 l 174 528 l 168 532 l 178 545 l 154 558 l 151 527 l 166 527 l 166 521 l 151 521 l 150 513 l 157 513 l 157 507 l 149 507 l 146 467 l 144 507 l 139 507 m 393 233 l 393 243 l 401 243 l 401 256 l 376 256 l 376 267 l 401 267 l 400 316 l 364 296 l 379 277 l 371 272 l 355 291 l 328 276 l 338 264 l 334 260 l 323 273 l 277 248 l 319 278 l 310 291 l 314 296 l 323 281 l 349 301 l 334 319 l 342 324 l 356 307 l 392 332 l 353 364 l 337 342 l 329 349 l 345 370 l 326 385 l 315 370 l 310 374 l 321 390 l 280 423 l 325 395 l 336 410 l 342 405 l 331 391 l 351 379 l 363 397 l 371 391 l 359 374 l 400 348 l 401 395 l 379 395 l 379 405 l 401 405 l 404 427 l 387 427 l 387 433 l 404 433 l 406 490 l 411 433 l 428 433 l 428 427 l 411 427 l 412 405 l 439 405 l 439 395 l 414 395 l 416 347 l 457 371 l 446 386 l 452 393 l 465 376 l 485 387 l 478 398 l 482 402 l 492 391 l 541 418 l 496 385 l 505 372 l 500 368 l 490 380 l 473 367 l 489 345 l 481 339 l 465 361 l 426 332 l 463 305 l 475 323 l 484 318 l 470 300 l 487 288 l 493 297 l 498 294 l 492 286 l 538 253 l 488 279 l 477 264 l 473 269 l 481 281 l 465 291 l 449 269 l 441 275 l 456 296 l 417 317 l 412 267 l 437 267 l 437 256 l 412 256 l 411 243 l 422 243 l 422 233 l 410 233 l 404 168 l 401 233 l 393 233 m 485 -59 q 380 -34 439 -68 q 293 3 321 1 q 243 1 265 5 q 170 -35 222 -3 l 152 -41 q 232 12 204 3 q 287 19 259 20 q 339 5 315 17 q 412 -35 363 -7 q 525 -36 460 -62 l 485 -59 z "},"G":{"ha":694,"x_min":-94,"x_max":690,"o":"m 410 910 q 378 910 410 910 q 296 879 346 909 q 202 799 247 849 q 109 676 157 749 q 36 499 60 602 q 36 304 12 397 q 104 152 60 212 q 207 48 149 92 q 333 -5 264 4 q 490 92 402 -14 q 564 -9 501 7 l 690 105 l 675 127 q 632 155 646 106 l 627 471 q 648 532 618 517 l 631 549 l 382 549 l 288 394 l 305 380 q 480 403 325 416 l 481 154 q 227 292 316 167 q 136 515 138 416 q 166 671 134 614 q 264 756 197 727 q 408 752 330 785 q 463 674 485 719 l 477 661 l 623 764 q 523 882 572 854 q 410 910 475 910 m 190 139 l 190 145 l 195 145 l 195 153 l 180 153 l 180 159 l 195 159 l 194 190 l 172 178 l 181 166 l 176 163 l 167 174 l 151 165 l 157 158 l 153 155 l 147 164 l 119 149 l 144 167 l 140 174 l 142 178 l 148 169 l 163 180 l 154 191 l 159 195 l 168 184 l 189 199 l 165 219 l 156 206 l 151 210 l 161 222 l 149 232 l 142 222 l 140 226 l 146 235 l 121 255 l 149 238 l 155 248 l 159 245 l 153 236 l 164 228 l 172 239 l 176 236 l 170 225 l 194 209 l 195 238 l 181 238 l 181 245 l 195 245 l 197 258 l 186 258 l 186 262 l 197 262 l 197 296 l 201 262 l 211 262 l 211 258 l 201 258 l 202 245 l 218 245 l 218 238 l 202 238 l 204 209 l 229 223 l 222 233 l 227 237 l 234 227 l 247 233 l 242 240 l 245 243 l 250 236 l 280 253 l 253 232 l 258 224 l 256 222 l 250 229 l 238 221 l 248 208 l 243 204 l 233 218 l 210 199 l 233 183 l 240 194 l 245 191 l 237 180 l 247 173 l 251 178 l 254 177 l 250 171 l 278 151 l 248 168 l 241 159 l 238 161 l 244 169 l 234 174 l 224 161 l 219 164 l 229 178 l 205 191 l 202 159 l 217 159 l 217 153 l 201 153 l 201 145 l 208 145 l 208 139 l 200 139 l 197 99 l 195 139 l 190 139 m 76 429 l 76 433 l 81 433 l 81 440 l 68 440 l 68 445 l 80 445 l 79 470 l 62 460 l 69 450 l 65 448 l 58 457 l 44 450 l 50 444 l 47 441 l 41 449 l 19 436 l 39 451 l 35 457 l 37 460 l 42 453 l 54 462 l 47 471 l 51 474 l 58 465 l 75 477 l 56 494 l 49 483 l 45 486 l 52 496 l 43 504 l 38 496 l 35 499 l 41 507 l 20 523 l 43 509 l 47 517 l 51 514 l 46 507 l 55 500 l 61 510 l 65 507 l 60 498 l 79 485 l 81 509 l 69 509 l 69 514 l 81 514 l 81 525 l 73 525 l 73 528 l 81 528 l 82 556 l 85 528 l 93 528 l 93 525 l 85 525 l 86 514 l 99 514 l 99 509 l 86 509 l 87 485 l 107 496 l 102 505 l 106 508 l 112 499 l 122 505 l 119 511 l 121 513 l 125 507 l 149 521 l 127 504 l 132 498 l 130 496 l 125 502 l 115 495 l 123 484 l 119 481 l 111 492 l 93 477 l 111 465 l 117 473 l 121 471 l 115 462 l 122 456 l 125 460 l 128 459 l 125 454 l 148 438 l 123 452 l 118 444 l 115 446 l 120 453 l 112 457 l 104 446 l 100 449 l 107 460 l 88 470 l 86 445 l 98 445 l 98 440 l 85 440 l 85 433 l 91 433 l 91 429 l 84 429 l 81 396 l 81 429 l 76 429 m 318 31 l 318 37 l 323 37 l 323 45 l 308 45 l 308 51 l 323 51 l 322 81 l 300 69 l 309 58 l 304 54 l 295 66 l 279 57 l 285 50 l 281 47 l 275 56 l 248 40 l 273 58 l 268 66 l 270 69 l 276 60 l 291 72 l 282 83 l 287 87 l 296 75 l 317 91 l 294 111 l 284 98 l 279 101 l 289 114 l 277 123 l 271 114 l 268 117 l 274 127 l 250 146 l 277 130 l 283 139 l 287 136 l 281 127 l 292 119 l 300 131 l 304 127 l 298 117 l 322 100 l 323 130 l 309 130 l 309 136 l 323 136 l 325 149 l 315 149 l 315 153 l 325 153 l 326 188 l 329 153 l 339 153 l 339 149 l 329 149 l 330 136 l 347 136 l 347 130 l 330 130 l 332 100 l 357 115 l 350 124 l 355 128 l 362 118 l 375 125 l 370 132 l 373 134 l 378 127 l 408 144 l 381 123 l 387 116 l 384 113 l 378 121 l 366 113 l 376 99 l 372 96 l 361 109 l 338 91 l 361 75 l 368 85 l 374 83 l 366 71 l 375 64 l 379 70 l 382 68 l 378 62 l 406 42 l 376 59 l 370 50 l 366 52 l 372 60 l 362 66 l 353 52 l 347 56 l 357 69 l 333 82 l 330 51 l 345 51 l 345 45 l 330 45 l 329 37 l 336 37 l 336 31 l 328 31 l 325 -9 l 323 31 l 318 31 m 104 274 l 104 280 l 110 280 l 110 288 l 94 288 l 94 294 l 109 294 l 109 325 l 87 313 l 96 301 l 91 298 l 81 309 l 65 300 l 71 293 l 68 290 l 62 299 l 34 283 l 59 302 l 54 309 l 56 313 l 62 304 l 77 315 l 68 326 l 73 330 l 82 319 l 104 334 l 80 354 l 71 341 l 66 345 l 75 357 l 64 367 l 57 357 l 54 361 l 60 370 l 36 390 l 63 373 l 69 382 l 73 380 l 67 371 l 79 363 l 86 374 l 91 371 l 84 360 l 109 344 l 110 373 l 96 373 l 96 380 l 110 380 l 111 393 l 101 393 l 101 397 l 111 397 l 112 431 l 115 397 l 125 397 l 125 393 l 115 393 l 117 380 l 133 380 l 133 373 l 117 373 l 119 344 l 143 358 l 136 368 l 141 372 l 149 361 l 161 368 l 157 375 l 159 378 l 165 371 l 195 388 l 168 367 l 173 359 l 170 357 l 164 364 l 153 356 l 163 342 l 158 339 l 148 353 l 125 334 l 147 318 l 155 329 l 160 326 l 152 315 l 161 308 l 165 313 l 169 312 l 165 306 l 193 286 l 162 302 l 156 294 l 153 296 l 159 304 l 149 309 l 139 296 l 134 299 l 143 313 l 119 326 l 117 294 l 132 294 l 132 288 l 116 288 l 115 280 l 123 280 l 123 274 l 115 274 l 111 234 l 110 274 l 104 274 m 414 430 l 414 434 l 418 434 l 418 440 l 407 440 l 407 445 l 418 445 l 418 467 l 401 458 l 408 450 l 404 448 l 397 456 l 385 450 l 390 444 l 387 442 l 382 448 l 362 437 l 380 450 l 377 456 l 379 458 l 383 452 l 395 460 l 388 469 l 391 471 l 398 463 l 414 475 l 396 489 l 389 479 l 386 482 l 393 492 l 385 498 l 379 492 l 377 494 l 382 501 l 363 516 l 384 503 l 389 511 l 391 509 l 387 502 l 395 496 l 401 505 l 404 502 l 399 494 l 418 481 l 418 503 l 408 503 l 408 509 l 418 509 l 420 518 l 412 518 l 412 521 l 420 521 l 420 547 l 422 521 l 430 521 l 430 518 l 422 518 l 424 509 l 435 509 l 435 503 l 424 503 l 425 481 l 444 492 l 438 499 l 441 503 l 448 495 l 457 500 l 453 505 l 455 507 l 459 502 l 481 514 l 461 498 l 465 493 l 463 491 l 459 497 l 450 491 l 458 481 l 454 478 l 447 488 l 430 475 l 446 463 l 452 471 l 456 469 l 450 460 l 457 455 l 460 459 l 463 458 l 459 454 l 480 438 l 457 451 l 453 444 l 450 446 l 455 452 l 448 456 l 440 446 l 436 448 l 444 458 l 426 468 l 424 445 l 435 445 l 435 440 l 423 440 l 422 434 l 428 434 l 428 430 l 422 430 l 420 400 l 418 430 l 414 430 m 347 789 l 347 793 l 351 793 l 351 800 l 338 800 l 338 805 l 351 805 l 350 829 l 332 819 l 340 810 l 336 808 l 328 817 l 315 810 l 320 804 l 317 802 l 313 809 l 290 796 l 311 811 l 307 817 l 308 819 l 313 812 l 325 822 l 318 830 l 321 833 l 329 825 l 346 837 l 327 852 l 319 842 l 315 845 l 323 855 l 314 863 l 309 855 l 307 858 l 311 865 l 292 881 l 313 867 l 318 876 l 321 873 l 317 866 l 326 859 l 332 869 l 336 866 l 330 857 l 350 844 l 351 867 l 340 867 l 340 873 l 351 873 l 352 884 l 344 884 l 344 886 l 352 886 l 353 914 l 355 886 l 363 886 l 363 884 l 355 884 l 356 873 l 369 873 l 369 867 l 356 867 l 358 844 l 377 856 l 372 863 l 376 867 l 382 859 l 392 864 l 388 869 l 391 871 l 395 866 l 418 880 l 397 863 l 401 857 l 399 854 l 394 861 l 385 854 l 393 844 l 389 841 l 381 852 l 363 837 l 380 824 l 387 833 l 391 830 l 385 821 l 392 816 l 395 820 l 398 819 l 395 814 l 417 798 l 393 812 l 388 804 l 385 806 l 390 812 l 382 817 l 374 806 l 370 809 l 377 819 l 358 830 l 356 805 l 368 805 l 368 800 l 355 800 l 355 793 l 361 793 l 361 789 l 355 789 l 352 757 l 351 789 l 347 789 m 336 527 l 333 536 l 342 538 l 338 551 l 314 546 l 312 555 l 335 561 l 323 608 l 294 581 l 311 566 l 306 559 l 287 574 l 264 554 l 276 545 l 272 538 l 260 551 l 222 515 l 254 554 l 243 564 l 245 570 l 259 559 l 278 582 l 260 595 l 266 604 l 284 589 l 313 621 l 267 644 l 258 620 l 250 623 l 259 647 l 238 657 l 231 640 l 224 644 l 231 661 l 186 684 l 234 667 l 241 684 l 248 682 l 241 665 l 262 657 l 270 677 l 279 674 l 272 654 l 316 638 l 307 684 l 285 679 l 282 690 l 305 695 l 302 715 l 286 711 l 285 718 l 300 722 l 289 776 l 307 724 l 323 727 l 325 720 l 309 717 l 315 697 l 341 703 l 344 693 l 318 687 l 332 642 l 365 673 l 351 686 l 357 693 l 372 680 l 390 695 l 380 705 l 383 710 l 394 701 l 435 739 l 400 696 l 412 686 l 408 681 l 396 690 l 380 673 l 401 656 l 395 648 l 374 666 l 345 629 l 386 612 l 394 631 l 404 629 l 395 608 l 412 601 l 416 611 l 422 610 l 418 599 l 469 578 l 416 593 l 409 577 l 403 578 l 410 594 l 391 599 l 382 574 l 372 577 l 382 602 l 340 613 l 347 564 l 370 569 l 372 559 l 349 554 l 351 541 l 362 543 l 364 534 l 351 531 l 361 467 l 344 529 l 336 527 m 476 742 l 476 748 l 481 748 l 481 756 l 466 756 l 466 762 l 481 762 l 480 793 l 458 781 l 467 769 l 463 766 l 453 777 l 437 768 l 443 761 l 439 758 l 433 767 l 406 751 l 431 770 l 426 777 l 428 781 l 434 772 l 449 783 l 440 794 l 445 798 l 454 787 l 475 802 l 452 822 l 442 809 l 437 812 l 447 825 l 435 835 l 429 825 l 426 829 l 432 838 l 408 858 l 435 841 l 441 850 l 445 848 l 439 839 l 450 831 l 458 842 l 463 839 l 456 828 l 480 812 l 481 841 l 467 841 l 467 848 l 481 848 l 483 861 l 473 861 l 473 865 l 483 865 l 484 899 l 487 865 l 497 865 l 497 861 l 487 861 l 488 848 l 505 848 l 505 841 l 488 841 l 490 812 l 515 826 l 508 836 l 513 840 l 520 829 l 533 836 l 528 843 l 531 846 l 536 839 l 566 856 l 539 835 l 545 827 l 542 825 l 536 832 l 524 824 l 534 810 l 530 807 l 519 821 l 496 802 l 519 786 l 526 797 l 532 794 l 524 783 l 533 776 l 537 781 l 541 780 l 536 774 l 564 753 l 534 770 l 528 762 l 524 764 l 530 772 l 520 777 l 511 764 l 505 767 l 515 781 l 491 793 l 488 762 l 503 762 l 503 756 l 488 756 l 487 748 l 494 748 l 494 742 l 486 742 l 483 702 l 481 742 l 476 742 m 539 414 l 539 420 l 545 420 l 545 428 l 529 428 l 529 434 l 544 434 l 543 465 l 522 452 l 530 441 l 526 437 l 516 449 l 500 440 l 506 433 l 503 430 l 496 439 l 469 423 l 494 441 l 489 449 l 491 452 l 497 444 l 512 455 l 503 466 l 508 470 l 517 458 l 538 474 l 515 494 l 505 481 l 500 484 l 510 497 l 498 507 l 492 497 l 489 500 l 495 510 l 471 530 l 498 513 l 504 522 l 508 519 l 502 511 l 513 503 l 521 514 l 526 511 l 519 500 l 543 484 l 545 513 l 530 513 l 530 519 l 545 519 l 546 532 l 536 532 l 536 536 l 546 536 l 547 571 l 550 536 l 560 536 l 560 532 l 550 532 l 551 519 l 568 519 l 568 513 l 551 513 l 553 484 l 578 498 l 571 507 l 576 511 l 583 501 l 596 508 l 591 515 l 594 517 l 600 511 l 629 528 l 602 507 l 608 499 l 605 496 l 599 504 l 587 496 l 597 482 l 593 479 l 583 492 l 559 474 l 582 458 l 589 469 l 595 466 l 587 454 l 596 448 l 600 453 l 604 452 l 600 446 l 627 425 l 597 442 l 591 433 l 587 435 l 593 444 l 583 449 l 574 435 l 568 439 l 578 452 l 554 465 l 551 434 l 566 434 l 566 428 l 551 428 l 550 420 l 557 420 l 557 414 l 549 414 l 546 374 l 545 414 l 539 414 m 248 448 l 248 452 l 251 452 l 251 456 l 241 456 l 241 460 l 251 460 l 250 478 l 237 471 l 243 464 l 239 462 l 234 469 l 224 464 l 228 459 l 226 458 l 222 463 l 205 454 l 220 465 l 218 469 l 219 471 l 222 466 l 231 473 l 227 479 l 229 481 l 235 475 l 248 484 l 233 496 l 227 488 l 224 490 l 231 498 l 223 503 l 219 498 l 218 500 l 221 505 l 207 517 l 223 507 l 227 513 l 229 511 l 225 506 l 233 501 l 237 508 l 239 506 l 235 499 l 250 490 l 251 507 l 243 507 l 243 511 l 251 511 l 252 519 l 245 519 l 245 522 l 252 522 l 252 542 l 254 522 l 260 522 l 260 519 l 254 519 l 255 511 l 264 511 l 264 507 l 255 507 l 256 490 l 271 498 l 267 504 l 270 506 l 274 500 l 282 504 l 279 508 l 281 510 l 284 506 l 302 516 l 286 503 l 289 499 l 287 497 l 283 502 l 277 497 l 283 489 l 280 487 l 274 495 l 260 484 l 273 474 l 278 481 l 281 479 l 276 472 l 282 468 l 284 471 l 286 471 l 284 467 l 300 454 l 282 465 l 279 460 l 277 460 l 280 466 l 274 469 l 269 460 l 265 463 l 271 471 l 256 479 l 255 460 l 264 460 l 264 456 l 254 456 l 254 452 l 258 452 l 258 448 l 254 448 l 252 424 l 251 448 l 248 448 m 570 63 l 570 67 l 574 67 l 574 73 l 564 73 l 564 77 l 573 77 l 572 96 l 558 89 l 564 81 l 561 79 l 555 86 l 544 81 l 548 75 l 546 74 l 542 79 l 524 69 l 540 81 l 537 86 l 538 89 l 543 83 l 552 90 l 547 98 l 549 100 l 555 92 l 570 103 l 554 116 l 548 107 l 545 110 l 551 118 l 543 124 l 538 118 l 537 120 l 541 127 l 525 140 l 543 128 l 547 134 l 549 133 l 545 127 l 553 121 l 558 130 l 561 127 l 557 120 l 572 109 l 574 128 l 564 128 l 564 133 l 574 133 l 574 141 l 568 141 l 568 144 l 574 144 l 575 167 l 577 144 l 584 144 l 584 141 l 577 141 l 578 133 l 589 133 l 589 128 l 578 128 l 579 109 l 595 119 l 591 125 l 594 127 l 599 121 l 608 125 l 604 130 l 606 132 l 610 127 l 629 138 l 612 124 l 615 119 l 613 117 l 609 123 l 602 117 l 608 109 l 605 106 l 599 115 l 583 103 l 598 92 l 603 99 l 606 98 l 602 90 l 608 85 l 610 89 l 612 88 l 610 84 l 628 71 l 608 82 l 604 76 l 602 77 l 606 83 l 599 86 l 593 77 l 589 79 l 595 89 l 580 97 l 578 77 l 588 77 l 588 73 l 578 73 l 577 67 l 582 67 l 582 63 l 576 63 l 574 37 l 574 63 l 570 63 m 539 206 l 539 212 l 545 212 l 545 220 l 529 220 l 529 227 l 544 227 l 543 257 l 522 245 l 530 233 l 526 230 l 516 241 l 500 233 l 506 225 l 503 222 l 496 231 l 469 216 l 494 234 l 489 241 l 491 245 l 497 236 l 512 248 l 503 258 l 508 262 l 517 251 l 538 267 l 515 286 l 505 273 l 500 277 l 510 290 l 498 299 l 492 290 l 489 293 l 495 302 l 471 322 l 498 305 l 504 315 l 508 312 l 502 303 l 513 295 l 521 307 l 526 303 l 519 292 l 543 276 l 545 305 l 530 305 l 530 312 l 545 312 l 546 325 l 536 325 l 536 329 l 546 329 l 547 363 l 550 329 l 560 329 l 560 325 l 550 325 l 551 312 l 568 312 l 568 305 l 551 305 l 553 276 l 578 290 l 571 300 l 576 304 l 583 294 l 596 300 l 591 307 l 594 310 l 600 303 l 629 320 l 602 299 l 608 292 l 605 289 l 599 296 l 587 288 l 597 275 l 593 271 l 583 285 l 559 267 l 582 250 l 589 261 l 595 258 l 587 247 l 596 240 l 600 245 l 604 244 l 600 238 l 627 218 l 597 235 l 591 226 l 587 228 l 593 236 l 583 241 l 574 228 l 568 231 l 578 245 l 554 258 l 551 227 l 566 227 l 566 220 l 551 220 l 550 212 l 557 212 l 557 206 l 549 206 l 546 166 l 545 206 l 539 206 m 381 248 l 381 253 l 385 253 l 385 260 l 372 260 l 372 265 l 385 265 l 385 291 l 366 281 l 374 271 l 370 268 l 361 278 l 347 271 l 353 264 l 350 262 l 345 269 l 321 256 l 342 271 l 338 278 l 340 281 l 345 273 l 358 283 l 350 292 l 354 296 l 362 286 l 380 299 l 360 316 l 352 305 l 348 308 l 356 319 l 347 327 l 340 319 l 338 321 l 343 330 l 323 347 l 346 332 l 351 340 l 354 338 l 349 330 l 359 323 l 366 333 l 370 330 l 363 321 l 385 307 l 385 332 l 374 332 l 374 338 l 385 338 l 387 349 l 378 349 l 378 353 l 387 353 l 387 382 l 390 353 l 399 353 l 399 349 l 390 349 l 391 338 l 405 338 l 405 332 l 391 332 l 393 307 l 414 319 l 408 328 l 412 331 l 418 322 l 429 328 l 425 334 l 428 336 l 432 330 l 458 345 l 435 327 l 439 321 l 437 318 l 432 325 l 422 317 l 431 306 l 427 303 l 418 315 l 398 299 l 417 286 l 424 294 l 429 292 l 421 282 l 429 277 l 433 281 l 436 280 l 432 275 l 456 258 l 430 272 l 425 264 l 422 267 l 427 273 l 418 278 l 410 267 l 406 269 l 414 281 l 393 292 l 391 265 l 404 265 l 404 260 l 391 260 l 390 253 l 397 253 l 397 248 l 389 248 l 387 214 l 385 248 l 381 248 m 474 568 l 474 571 l 477 571 l 477 575 l 468 575 l 468 578 l 476 578 l 476 595 l 464 589 l 469 583 l 467 581 l 461 587 l 452 582 l 456 578 l 454 576 l 450 581 l 435 573 l 449 583 l 446 587 l 448 589 l 451 584 l 459 590 l 454 596 l 457 598 l 462 592 l 473 600 l 460 611 l 455 604 l 453 606 l 458 613 l 452 618 l 448 613 l 446 615 l 450 620 l 437 631 l 451 621 l 454 627 l 457 625 l 454 621 l 460 616 l 464 622 l 467 621 l 463 614 l 476 606 l 477 621 l 469 621 l 469 625 l 477 625 l 477 632 l 472 632 l 472 634 l 477 634 l 478 653 l 479 634 l 485 634 l 485 632 l 479 632 l 480 625 l 489 625 l 489 621 l 480 621 l 481 606 l 495 613 l 491 618 l 494 621 l 498 615 l 505 619 l 503 623 l 504 624 l 507 621 l 523 629 l 508 618 l 511 614 l 509 612 l 507 616 l 500 612 l 505 605 l 503 603 l 497 610 l 485 600 l 497 591 l 501 597 l 504 596 l 500 590 l 505 586 l 507 589 l 509 588 l 507 585 l 522 574 l 505 583 l 502 578 l 500 579 l 503 584 l 498 587 l 492 579 l 490 581 l 495 589 l 482 595 l 480 578 l 488 578 l 488 575 l 480 575 l 479 571 l 484 571 l 484 568 l 479 568 l 477 546 l 477 568 l 474 568 m 569 586 l 569 591 l 574 591 l 574 597 l 561 597 l 561 602 l 573 602 l 572 627 l 555 617 l 562 608 l 558 605 l 551 614 l 538 607 l 543 602 l 540 599 l 535 606 l 513 593 l 533 608 l 529 614 l 530 617 l 536 610 l 547 619 l 541 628 l 544 631 l 551 622 l 569 635 l 550 650 l 542 640 l 538 643 l 546 653 l 536 661 l 531 653 l 529 656 l 534 663 l 514 679 l 536 665 l 541 673 l 544 671 l 539 664 l 549 657 l 555 667 l 558 664 l 553 655 l 572 642 l 574 665 l 562 665 l 562 671 l 574 671 l 574 681 l 566 681 l 566 684 l 574 684 l 575 712 l 578 684 l 586 684 l 586 681 l 578 681 l 579 671 l 592 671 l 592 665 l 579 665 l 581 642 l 600 654 l 595 661 l 599 665 l 604 656 l 615 662 l 611 667 l 613 669 l 618 664 l 642 677 l 620 661 l 624 654 l 622 652 l 617 659 l 608 652 l 616 641 l 612 638 l 604 649 l 585 635 l 604 621 l 610 630 l 614 628 l 607 618 l 615 613 l 618 618 l 621 616 l 618 612 l 640 595 l 616 609 l 610 602 l 608 604 l 613 610 l 604 614 l 597 604 l 593 606 l 600 617 l 581 627 l 579 602 l 591 602 l 591 597 l 578 597 l 578 591 l 584 591 l 584 586 l 577 586 l 574 554 l 574 586 l 569 586 m -56 -28 q 44 -5 -12 -36 q 126 28 99 26 q 173 26 153 30 q 243 -5 193 23 l 260 -12 q 184 36 210 28 q 132 42 158 44 q 82 30 106 41 q 13 -5 59 19 q -94 -7 -33 -30 l -56 -28 z "},"H":{"ha":689,"x_min":-161,"x_max":708,"o":"m 546 499 l 546 505 l 551 505 l 551 513 l 536 513 l 536 519 l 551 519 l 550 550 l 528 538 l 537 526 l 532 523 l 523 534 l 507 526 l 513 518 l 509 515 l 503 524 l 475 509 l 500 527 l 496 534 l 498 538 l 504 529 l 519 541 l 510 551 l 515 555 l 524 544 l 545 559 l 522 579 l 512 566 l 507 570 l 517 583 l 505 592 l 498 583 l 496 586 l 502 595 l 477 615 l 505 598 l 511 608 l 515 605 l 509 596 l 520 588 l 528 600 l 532 596 l 526 585 l 550 569 l 551 598 l 537 598 l 537 605 l 551 605 l 553 618 l 543 618 l 543 622 l 553 622 l 553 656 l 557 622 l 567 622 l 567 618 l 557 618 l 558 605 l 574 605 l 574 598 l 558 598 l 560 569 l 585 583 l 578 593 l 583 597 l 590 587 l 603 593 l 598 600 l 601 603 l 606 596 l 636 613 l 609 592 l 614 585 l 612 582 l 606 589 l 594 581 l 604 568 l 600 564 l 589 578 l 566 559 l 589 543 l 596 554 l 602 551 l 593 540 l 603 533 l 607 538 l 610 537 l 606 531 l 634 511 l 604 528 l 597 519 l 594 521 l 600 529 l 590 534 l 581 521 l 575 524 l 585 538 l 561 551 l 558 519 l 573 519 l 573 513 l 557 513 l 557 505 l 564 505 l 564 499 l 556 499 l 553 459 l 551 499 l 546 499 m 110 78 l 110 84 l 115 84 l 115 92 l 100 92 l 100 98 l 115 98 l 114 129 l 92 117 l 101 105 l 96 102 l 87 113 l 71 104 l 77 97 l 73 94 l 67 103 l 39 87 l 64 106 l 60 113 l 62 117 l 68 108 l 83 119 l 74 130 l 79 134 l 87 123 l 109 138 l 85 158 l 76 145 l 71 149 l 81 161 l 69 171 l 62 161 l 60 165 l 66 174 l 41 194 l 68 177 l 75 186 l 79 184 l 73 175 l 84 167 l 92 178 l 96 175 l 90 164 l 114 148 l 115 177 l 101 177 l 101 184 l 115 184 l 117 197 l 106 197 l 106 201 l 117 201 l 117 235 l 121 201 l 131 201 l 131 197 l 121 197 l 122 184 l 138 184 l 138 177 l 122 177 l 124 148 l 149 162 l 142 172 l 146 176 l 154 165 l 167 172 l 162 179 l 165 182 l 170 175 l 200 192 l 173 171 l 178 163 l 176 161 l 170 168 l 158 160 l 168 146 l 163 143 l 153 157 l 130 138 l 153 122 l 160 133 l 165 130 l 157 119 l 167 112 l 171 117 l 174 116 l 170 110 l 198 90 l 168 106 l 161 98 l 158 100 l 164 108 l 154 113 l 144 100 l 139 103 l 149 117 l 125 130 l 122 98 l 137 98 l 137 92 l 121 92 l 121 84 l 128 84 l 128 78 l 120 78 l 117 38 l 115 78 l 110 78 m 546 105 l 546 111 l 551 111 l 551 119 l 536 119 l 536 125 l 551 125 l 550 156 l 528 144 l 537 132 l 532 129 l 523 140 l 507 132 l 513 124 l 509 121 l 503 130 l 475 115 l 500 133 l 496 140 l 498 144 l 504 135 l 519 146 l 510 157 l 515 161 l 524 150 l 545 165 l 522 185 l 512 172 l 507 176 l 517 189 l 505 198 l 498 189 l 496 192 l 502 201 l 477 221 l 505 204 l 511 214 l 515 211 l 509 202 l 520 194 l 528 205 l 532 202 l 526 191 l 550 175 l 551 204 l 537 204 l 537 211 l 551 211 l 553 224 l 543 224 l 543 228 l 553 228 l 553 262 l 557 228 l 567 228 l 567 224 l 557 224 l 558 211 l 574 211 l 574 204 l 558 204 l 560 175 l 585 189 l 578 199 l 583 203 l 590 193 l 603 199 l 598 206 l 601 209 l 606 202 l 636 219 l 609 198 l 614 191 l 612 188 l 606 195 l 594 187 l 604 174 l 600 170 l 589 184 l 566 165 l 589 149 l 596 160 l 602 157 l 593 146 l 603 139 l 607 144 l 610 143 l 606 137 l 634 117 l 604 134 l 597 125 l 594 127 l 600 135 l 590 140 l 581 127 l 575 130 l 585 144 l 561 157 l 558 125 l 573 125 l 573 119 l 557 119 l 557 111 l 564 111 l 564 105 l 556 105 l 553 65 l 551 105 l 546 105 m 360 624 l 360 631 l 366 631 l 366 642 l 347 642 l 347 649 l 366 649 l 365 686 l 338 671 l 349 657 l 344 652 l 332 667 l 312 656 l 319 647 l 315 644 l 307 654 l 273 635 l 304 658 l 298 667 l 300 670 l 308 661 l 326 674 l 315 688 l 321 692 l 332 678 l 359 697 l 330 722 l 317 706 l 313 710 l 323 726 l 311 738 l 301 726 l 298 730 l 306 741 l 275 766 l 309 745 l 316 756 l 321 752 l 314 742 l 328 732 l 338 747 l 344 742 l 334 729 l 365 709 l 366 745 l 349 745 l 349 752 l 366 752 l 368 768 l 355 768 l 355 774 l 368 774 l 370 816 l 372 774 l 386 774 l 386 768 l 372 768 l 374 752 l 395 752 l 395 745 l 374 745 l 377 709 l 407 726 l 399 739 l 404 743 l 414 730 l 429 739 l 423 747 l 427 750 l 433 742 l 470 763 l 437 738 l 444 728 l 439 724 l 432 734 l 419 724 l 431 707 l 426 703 l 413 720 l 385 697 l 412 677 l 421 691 l 428 688 l 418 673 l 429 665 l 435 672 l 438 669 l 433 663 l 468 639 l 430 659 l 422 648 l 419 650 l 427 661 l 414 667 l 401 650 l 395 655 l 406 671 l 378 686 l 374 649 l 393 649 l 393 642 l 373 642 l 372 631 l 382 631 l 382 624 l 372 624 l 368 575 l 366 624 l 360 624 m 355 485 l 355 489 l 359 489 l 359 494 l 349 494 l 349 498 l 359 498 l 358 517 l 344 510 l 349 503 l 347 500 l 341 508 l 330 502 l 334 497 l 332 496 l 328 501 l 310 491 l 326 503 l 323 508 l 325 509 l 328 504 l 338 512 l 332 519 l 336 521 l 341 514 l 355 524 l 340 536 l 333 528 l 330 531 l 336 539 l 330 545 l 325 539 l 323 541 l 327 547 l 311 560 l 328 549 l 333 555 l 336 553 l 331 547 l 338 543 l 344 550 l 347 547 l 342 541 l 358 530 l 359 549 l 349 549 l 349 553 l 359 553 l 360 562 l 353 562 l 353 564 l 360 564 l 360 587 l 363 564 l 369 564 l 369 562 l 363 562 l 363 553 l 374 553 l 374 549 l 363 549 l 365 530 l 380 539 l 376 545 l 379 548 l 384 542 l 392 546 l 389 550 l 391 552 l 394 547 l 414 558 l 396 545 l 399 540 l 398 538 l 394 543 l 387 538 l 393 529 l 391 527 l 384 536 l 369 524 l 382 513 l 388 520 l 391 518 l 386 511 l 393 507 l 395 511 l 397 509 l 394 506 l 412 493 l 393 503 l 389 498 l 387 499 l 391 504 l 384 508 l 378 499 l 374 501 l 380 510 l 365 518 l 363 498 l 373 498 l 373 494 l 363 494 l 363 489 l 368 489 l 368 485 l 362 485 l 360 459 l 359 485 l 355 485 m 114 705 l 114 711 l 119 711 l 119 719 l 104 719 l 104 725 l 119 725 l 118 755 l 96 743 l 105 732 l 100 728 l 91 740 l 75 731 l 81 724 l 77 721 l 71 730 l 43 714 l 68 732 l 64 740 l 66 743 l 72 734 l 87 746 l 78 757 l 83 761 l 92 749 l 113 765 l 90 785 l 80 772 l 75 775 l 85 788 l 73 798 l 66 788 l 64 791 l 70 801 l 45 821 l 73 804 l 79 813 l 83 810 l 77 802 l 88 793 l 96 805 l 100 802 l 94 791 l 118 774 l 119 804 l 105 804 l 105 810 l 119 810 l 121 823 l 111 823 l 111 827 l 121 827 l 121 862 l 125 827 l 135 827 l 135 823 l 125 823 l 126 810 l 142 810 l 142 804 l 126 804 l 128 774 l 153 789 l 146 798 l 151 802 l 158 792 l 171 799 l 166 806 l 169 808 l 174 802 l 204 819 l 177 798 l 182 790 l 180 787 l 174 795 l 162 787 l 172 773 l 168 770 l 157 783 l 134 765 l 157 749 l 164 760 l 170 757 l 161 745 l 171 739 l 175 744 l 178 743 l 174 736 l 202 716 l 172 733 l 165 724 l 162 726 l 168 734 l 158 740 l 149 726 l 143 730 l 153 743 l 129 756 l 126 725 l 141 725 l 141 719 l 125 719 l 125 711 l 132 711 l 132 705 l 124 705 l 121 665 l 119 705 l 114 705 m 113 494 l 113 500 l 118 500 l 118 509 l 102 509 l 102 515 l 117 515 l 117 545 l 95 533 l 104 522 l 99 518 l 90 530 l 73 521 l 79 513 l 76 511 l 70 519 l 42 504 l 67 522 l 62 530 l 64 533 l 71 524 l 85 536 l 77 547 l 81 551 l 90 539 l 112 555 l 88 574 l 79 562 l 74 565 l 83 578 l 72 587 l 65 578 l 62 581 l 68 591 l 44 610 l 71 593 l 77 603 l 81 600 l 75 591 l 87 583 l 94 595 l 99 591 l 92 581 l 117 564 l 118 593 l 104 593 l 104 600 l 118 600 l 119 613 l 109 613 l 109 617 l 119 617 l 120 652 l 123 617 l 134 617 l 134 613 l 123 613 l 125 600 l 141 600 l 141 593 l 125 593 l 127 564 l 151 578 l 144 588 l 149 592 l 157 582 l 170 589 l 165 595 l 168 598 l 173 591 l 203 608 l 176 587 l 181 580 l 178 577 l 172 585 l 161 576 l 171 563 l 166 559 l 156 573 l 133 555 l 155 538 l 163 549 l 168 547 l 160 535 l 170 528 l 174 534 l 177 532 l 173 526 l 201 506 l 170 523 l 164 514 l 161 516 l 167 524 l 157 530 l 147 516 l 142 519 l 151 533 l 127 546 l 125 515 l 140 515 l 140 509 l 124 509 l 123 500 l 131 500 l 131 494 l 123 494 l 119 454 l 118 494 l 113 494 m 112 289 l 112 295 l 117 295 l 117 303 l 102 303 l 102 309 l 117 309 l 116 340 l 94 328 l 103 316 l 98 313 l 89 324 l 73 315 l 79 308 l 75 305 l 69 314 l 41 298 l 66 317 l 62 324 l 64 328 l 70 319 l 85 330 l 76 341 l 81 345 l 90 334 l 111 349 l 87 369 l 78 356 l 73 359 l 83 372 l 71 382 l 64 372 l 62 376 l 68 385 l 43 405 l 71 388 l 77 397 l 81 395 l 75 386 l 86 378 l 94 389 l 98 386 l 92 375 l 116 359 l 117 388 l 103 388 l 103 395 l 117 395 l 119 408 l 109 408 l 109 412 l 119 412 l 119 446 l 123 412 l 133 412 l 133 408 l 123 408 l 124 395 l 140 395 l 140 388 l 124 388 l 126 359 l 151 373 l 144 382 l 149 387 l 156 376 l 169 383 l 164 390 l 167 393 l 172 386 l 202 403 l 175 382 l 180 374 l 178 372 l 172 379 l 160 371 l 170 357 l 165 354 l 155 368 l 132 349 l 155 333 l 162 344 l 168 341 l 159 330 l 169 323 l 173 328 l 176 327 l 172 321 l 200 300 l 170 317 l 163 309 l 160 311 l 166 319 l 156 324 l 146 311 l 141 314 l 151 328 l 127 340 l 124 309 l 139 309 l 139 303 l 123 303 l 123 295 l 130 295 l 130 289 l 122 289 l 119 249 l 117 289 l 112 289 m 544 306 l 544 312 l 549 312 l 549 320 l 534 320 l 534 326 l 549 326 l 548 357 l 526 345 l 535 333 l 530 330 l 521 341 l 505 332 l 511 325 l 507 322 l 501 331 l 473 315 l 498 334 l 494 341 l 496 345 l 502 336 l 517 347 l 508 358 l 513 362 l 522 351 l 543 366 l 519 386 l 510 373 l 505 376 l 515 389 l 503 399 l 496 389 l 494 393 l 500 402 l 475 422 l 503 405 l 509 414 l 513 412 l 507 403 l 518 395 l 526 406 l 530 403 l 524 392 l 548 376 l 549 405 l 535 405 l 535 412 l 549 412 l 551 425 l 541 425 l 541 429 l 551 429 l 551 463 l 555 429 l 565 429 l 565 425 l 555 425 l 556 412 l 572 412 l 572 405 l 556 405 l 558 376 l 583 390 l 576 399 l 581 404 l 588 393 l 601 400 l 596 407 l 599 410 l 604 403 l 634 420 l 607 399 l 612 391 l 610 389 l 604 396 l 592 388 l 602 374 l 597 371 l 587 385 l 564 366 l 587 350 l 594 361 l 600 358 l 591 347 l 601 340 l 605 345 l 608 344 l 604 338 l 632 317 l 602 334 l 595 326 l 592 328 l 598 336 l 588 341 l 578 328 l 573 331 l 583 345 l 559 357 l 556 326 l 571 326 l 571 320 l 555 320 l 555 312 l 562 312 l 562 306 l 554 306 l 551 266 l 549 306 l 544 306 m 278 260 l 278 269 l 286 269 l 286 281 l 263 281 l 263 290 l 284 290 l 284 335 l 251 317 l 264 299 l 257 294 l 243 311 l 219 299 l 228 287 l 222 283 l 214 296 l 172 273 l 210 300 l 202 311 l 205 317 l 214 304 l 237 320 l 224 337 l 231 342 l 245 326 l 277 349 l 241 379 l 227 359 l 220 364 l 234 384 l 216 397 l 207 384 l 202 388 l 212 403 l 175 432 l 216 406 l 225 421 l 231 416 l 222 404 l 239 391 l 251 409 l 257 404 l 248 388 l 284 363 l 286 406 l 264 406 l 264 416 l 286 416 l 288 436 l 272 436 l 272 442 l 288 442 l 289 494 l 294 442 l 309 442 l 309 436 l 294 436 l 296 416 l 320 416 l 320 406 l 296 406 l 299 363 l 336 385 l 325 399 l 332 405 l 343 389 l 362 400 l 355 410 l 359 414 l 368 404 l 412 429 l 372 397 l 380 387 l 376 382 l 367 394 l 349 382 l 364 361 l 358 356 l 343 376 l 308 349 l 341 325 l 352 341 l 361 336 l 349 320 l 363 309 l 369 317 l 374 315 l 368 307 l 410 277 l 364 302 l 355 288 l 349 292 l 358 304 l 343 311 l 329 292 l 321 296 l 335 317 l 300 336 l 296 290 l 319 290 l 319 281 l 294 281 l 294 269 l 305 269 l 305 260 l 293 260 l 288 199 l 286 260 l 278 260 m 401 962 l 404 971 l 412 968 l 416 980 l 393 988 l 396 997 l 418 989 l 432 1035 l 394 1027 l 401 1006 l 393 1004 l 385 1025 l 356 1020 l 361 1006 l 355 1004 l 351 1020 l 302 1011 l 348 1025 l 345 1038 l 349 1042 l 354 1027 l 382 1036 l 374 1057 l 383 1060 l 391 1039 l 429 1050 l 404 1091 l 384 1078 l 379 1085 l 399 1099 l 387 1118 l 373 1107 l 370 1114 l 384 1125 l 358 1166 l 389 1127 l 402 1139 l 408 1133 l 394 1123 l 407 1105 l 423 1118 l 429 1111 l 413 1099 l 441 1063 l 458 1104 l 437 1112 l 440 1122 l 461 1115 l 469 1133 l 454 1137 l 456 1143 l 471 1139 l 490 1189 l 477 1137 l 492 1131 l 490 1126 l 475 1131 l 471 1112 l 494 1103 l 491 1093 l 467 1101 l 456 1057 l 499 1066 l 494 1084 l 503 1087 l 509 1069 l 530 1073 l 528 1084 l 532 1087 l 537 1075 l 589 1084 l 538 1067 l 543 1053 l 538 1051 l 533 1065 l 512 1059 l 519 1034 l 511 1031 l 503 1056 l 460 1040 l 485 1006 l 502 1018 l 508 1012 l 491 999 l 500 984 l 510 990 l 513 986 l 505 980 l 536 936 l 500 976 l 486 966 l 482 970 l 495 979 l 483 992 l 462 977 l 456 985 l 477 1000 l 448 1030 l 429 986 l 450 979 l 448 970 l 425 977 l 420 966 l 431 962 l 428 954 l 416 958 l 391 901 l 409 960 l 401 962 m 548 695 l 548 701 l 553 701 l 553 709 l 538 709 l 538 715 l 553 715 l 552 746 l 530 734 l 539 722 l 534 719 l 525 730 l 509 722 l 515 714 l 511 711 l 505 720 l 477 705 l 503 723 l 498 730 l 500 734 l 506 725 l 521 736 l 512 747 l 517 751 l 526 740 l 547 755 l 524 775 l 514 762 l 509 766 l 519 779 l 507 788 l 500 779 l 498 782 l 504 791 l 479 811 l 507 794 l 513 804 l 517 801 l 511 792 l 522 784 l 530 795 l 534 792 l 528 781 l 552 765 l 553 794 l 539 794 l 539 801 l 553 801 l 555 814 l 545 814 l 545 818 l 555 818 l 555 852 l 559 818 l 569 818 l 569 814 l 559 814 l 560 801 l 576 801 l 576 794 l 560 794 l 562 765 l 587 779 l 580 789 l 585 793 l 592 783 l 605 789 l 600 796 l 603 799 l 608 792 l 638 809 l 611 788 l 616 781 l 614 778 l 608 785 l 596 777 l 606 764 l 602 760 l 591 774 l 568 755 l 591 739 l 598 750 l 604 747 l 595 736 l 605 729 l 609 734 l 612 733 l 608 727 l 636 707 l 606 724 l 600 715 l 596 717 l 602 725 l 592 730 l 583 717 l 577 720 l 587 734 l 563 747 l 560 715 l 575 715 l 575 709 l 559 709 l 559 701 l 566 701 l 566 695 l 558 695 l 555 655 l 553 695 l 548 695 m 270 795 l 270 800 l 274 800 l 274 807 l 262 807 l 262 812 l 274 812 l 273 836 l 256 827 l 262 817 l 259 814 l 252 824 l 238 817 l 243 810 l 241 808 l 235 815 l 213 803 l 233 818 l 229 824 l 231 826 l 236 819 l 248 829 l 241 838 l 245 840 l 252 831 l 269 844 l 250 860 l 242 850 l 239 852 l 246 863 l 237 871 l 231 863 l 229 865 l 234 873 l 214 889 l 236 876 l 241 883 l 245 880 l 239 873 l 249 867 l 255 876 l 259 873 l 253 865 l 273 852 l 274 876 l 262 876 l 262 880 l 274 880 l 275 891 l 267 891 l 267 895 l 275 895 l 276 922 l 279 895 l 287 895 l 287 891 l 279 891 l 279 880 l 293 880 l 293 876 l 280 876 l 281 851 l 301 863 l 296 871 l 299 874 l 305 866 l 315 871 l 312 877 l 314 879 l 318 873 l 342 887 l 321 871 l 325 864 l 323 862 l 318 868 l 309 861 l 317 850 l 313 848 l 305 859 l 286 844 l 304 831 l 310 840 l 315 837 l 308 828 l 316 823 l 319 827 l 321 826 l 318 821 l 341 805 l 317 818 l 311 811 l 309 813 l 313 819 l 305 824 l 298 813 l 293 816 l 300 827 l 281 837 l 279 812 l 292 812 l 292 807 l 279 807 l 279 800 l 285 800 l 285 795 l 278 795 l 275 763 l 274 795 l 270 795 m 457 -68 q 335 -42 403 -79 q 234 -2 267 -5 q 176 -4 201 0 q 90 -42 151 -9 l 70 -50 q 163 7 131 -2 q 227 15 195 16 q 288 0 259 13 q 372 -42 316 -14 q 503 -44 429 -71 l 457 -68 m -135 -35 q -67 -8 -105 -45 q -12 32 -30 29 q 21 30 7 34 q 68 -8 35 25 l 79 -16 q 28 41 45 32 q -8 48 10 50 q -41 34 -26 47 q -88 -8 -57 20 q -161 -10 -119 -37 l -135 -35 m 255 570 l 202 509 l 206 829 q 161 907 197 882 l 18 816 q 39 730 36 784 q 44 76 32 123 q 113 0 56 28 l 273 113 l 262 142 q 212 170 227 132 q 202 467 198 208 l 471 467 q 479 72 469 108 q 548 -4 490 25 l 708 109 l 697 138 q 647 166 661 129 q 641 825 633 203 q 595 903 631 878 l 452 812 q 474 726 471 781 q 473 571 473 644 l 255 570 z "},"I":{"ha":333,"x_min":-25,"x_max":541,"o":"m 37 795 l 47 776 q 85 729 82 787 q 90 69 78 117 q 159 -7 102 22 l 304 107 l 281 128 q 243 164 257 126 q 237 828 229 201 q 191 907 227 882 l 37 795 m 130 229 l 130 235 l 136 235 l 136 243 l 120 243 l 120 250 l 135 250 l 134 280 l 113 268 l 121 256 l 117 253 l 107 264 l 91 256 l 97 248 l 94 245 l 87 254 l 60 239 l 85 257 l 80 264 l 82 268 l 88 259 l 103 271 l 94 281 l 99 286 l 108 274 l 130 290 l 106 309 l 96 296 l 92 300 l 101 313 l 90 322 l 83 313 l 80 316 l 86 326 l 62 345 l 89 328 l 95 338 l 99 335 l 93 326 l 104 318 l 112 330 l 117 326 l 110 315 l 134 299 l 136 328 l 121 328 l 121 335 l 136 335 l 137 348 l 127 348 l 127 352 l 137 352 l 138 387 l 141 352 l 151 352 l 151 348 l 141 348 l 142 335 l 159 335 l 159 328 l 142 328 l 144 299 l 169 313 l 162 323 l 167 327 l 174 317 l 187 323 l 182 330 l 185 333 l 191 326 l 220 343 l 193 322 l 199 315 l 196 312 l 190 319 l 178 311 l 189 298 l 184 294 l 174 308 l 151 290 l 173 273 l 180 284 l 186 281 l 178 270 l 187 263 l 191 269 l 195 267 l 191 261 l 218 241 l 188 258 l 182 249 l 178 251 l 184 259 l 174 264 l 165 251 l 159 254 l 169 268 l 145 281 l 142 250 l 157 250 l 157 243 l 142 243 l 141 235 l 149 235 l 149 229 l 140 229 l 137 189 l 136 229 l 130 229 m 170 69 l 170 75 l 175 75 l 175 83 l 159 83 l 159 90 l 174 90 l 174 120 l 152 108 l 161 96 l 156 93 l 146 104 l 130 96 l 136 88 l 133 85 l 127 94 l 99 79 l 124 97 l 119 104 l 121 108 l 127 99 l 142 111 l 134 121 l 138 125 l 147 114 l 169 130 l 145 149 l 136 136 l 131 140 l 140 153 l 129 162 l 122 153 l 119 156 l 125 165 l 101 185 l 128 168 l 134 178 l 138 175 l 132 166 l 144 158 l 151 170 l 156 166 l 149 155 l 174 139 l 175 168 l 161 168 l 161 175 l 175 175 l 176 188 l 166 188 l 166 192 l 176 192 l 177 227 l 180 192 l 191 192 l 191 188 l 180 188 l 182 175 l 198 175 l 198 168 l 182 168 l 184 139 l 208 153 l 201 163 l 206 167 l 214 157 l 227 163 l 222 170 l 224 173 l 230 166 l 260 183 l 233 162 l 238 155 l 235 152 l 229 159 l 218 151 l 228 138 l 223 134 l 213 148 l 190 130 l 212 113 l 220 124 l 225 121 l 217 110 l 227 103 l 231 109 l 234 107 l 230 101 l 258 81 l 227 98 l 221 89 l 218 91 l 224 99 l 214 104 l 204 91 l 199 94 l 208 108 l 184 121 l 182 90 l 197 90 l 197 83 l 181 83 l 180 75 l 188 75 l 188 69 l 180 69 l 176 29 l 175 69 l 170 69 m 150 707 l 150 713 l 155 713 l 155 721 l 140 721 l 140 727 l 155 727 l 154 758 l 132 745 l 141 734 l 136 730 l 127 742 l 111 733 l 117 726 l 113 723 l 107 732 l 79 716 l 104 734 l 100 742 l 102 745 l 108 736 l 123 748 l 114 759 l 119 763 l 127 751 l 149 767 l 125 787 l 116 774 l 111 777 l 121 790 l 109 800 l 102 790 l 100 793 l 106 803 l 81 823 l 109 806 l 115 815 l 119 812 l 113 804 l 124 795 l 132 807 l 136 804 l 130 793 l 154 777 l 155 806 l 141 806 l 141 812 l 155 812 l 157 825 l 146 825 l 146 829 l 157 829 l 157 864 l 161 829 l 171 829 l 171 825 l 161 825 l 162 812 l 178 812 l 178 806 l 162 806 l 164 777 l 189 791 l 182 800 l 186 804 l 194 794 l 207 801 l 202 808 l 205 810 l 210 804 l 240 821 l 213 800 l 218 792 l 216 789 l 210 797 l 198 789 l 208 775 l 203 772 l 193 785 l 170 767 l 193 751 l 200 762 l 205 759 l 197 747 l 207 741 l 211 746 l 214 745 l 210 739 l 238 718 l 208 735 l 201 726 l 198 728 l 204 736 l 194 742 l 184 728 l 179 732 l 189 745 l 165 758 l 162 727 l 177 727 l 177 721 l 161 721 l 161 713 l 168 713 l 168 707 l 160 707 l 157 667 l 155 707 l 150 707 m 134 532 l 134 538 l 140 538 l 140 547 l 124 547 l 124 553 l 139 553 l 138 583 l 117 571 l 125 559 l 121 556 l 111 568 l 95 559 l 101 551 l 98 549 l 92 557 l 64 542 l 89 560 l 84 568 l 86 571 l 92 562 l 107 574 l 98 585 l 103 589 l 112 577 l 134 593 l 110 612 l 100 600 l 96 603 l 105 616 l 94 625 l 87 616 l 84 619 l 90 629 l 66 648 l 93 631 l 99 641 l 103 638 l 97 629 l 109 621 l 116 633 l 121 629 l 114 618 l 138 602 l 140 631 l 125 631 l 125 638 l 140 638 l 141 651 l 131 651 l 131 655 l 141 655 l 142 690 l 145 655 l 155 655 l 155 651 l 145 651 l 146 638 l 163 638 l 163 631 l 146 631 l 149 602 l 173 616 l 166 626 l 171 630 l 178 620 l 191 627 l 186 633 l 189 636 l 195 629 l 224 646 l 197 625 l 203 618 l 200 615 l 194 623 l 182 614 l 193 601 l 188 597 l 178 611 l 155 593 l 177 576 l 184 587 l 190 585 l 182 573 l 191 566 l 195 572 l 199 570 l 195 564 l 222 544 l 192 561 l 186 552 l 182 554 l 189 562 l 178 568 l 169 554 l 163 557 l 173 571 l 149 584 l 146 553 l 161 553 l 161 547 l 146 547 l 145 538 l 153 538 l 153 532 l 144 532 l 141 492 l 140 532 l 134 532 m 165 378 l 165 385 l 171 385 l 171 393 l 155 393 l 155 399 l 170 399 l 170 429 l 148 417 l 157 406 l 152 402 l 142 414 l 126 405 l 132 397 l 129 395 l 123 404 l 95 388 l 120 406 l 115 414 l 117 417 l 123 408 l 138 420 l 130 431 l 134 435 l 143 423 l 165 439 l 141 458 l 132 446 l 127 449 l 136 462 l 125 471 l 118 462 l 115 465 l 121 475 l 97 494 l 124 477 l 130 487 l 134 484 l 128 475 l 140 467 l 147 479 l 152 475 l 145 465 l 170 448 l 171 477 l 157 477 l 157 484 l 171 484 l 172 497 l 162 497 l 162 501 l 172 501 l 173 536 l 176 501 l 186 501 l 186 497 l 176 497 l 178 484 l 194 484 l 194 477 l 178 477 l 180 448 l 204 463 l 197 472 l 202 476 l 210 466 l 222 473 l 218 479 l 220 482 l 226 475 l 256 492 l 229 471 l 234 464 l 231 461 l 225 469 l 214 460 l 224 447 l 219 444 l 209 457 l 186 439 l 208 422 l 216 433 l 221 431 l 213 419 l 222 412 l 227 418 l 230 416 l 226 410 l 254 390 l 223 407 l 217 398 l 214 400 l 220 408 l 210 414 l 200 400 l 195 404 l 204 417 l 180 430 l 178 399 l 193 399 l 193 393 l 177 393 l 176 385 l 184 385 l 184 378 l 176 378 l 172 338 l 171 378 l 165 378 m 64 932 l 64 939 l 71 939 l 71 950 l 52 950 l 52 958 l 71 958 l 70 996 l 42 981 l 54 966 l 47 962 l 35 977 l 14 966 l 22 956 l 18 953 l 10 964 l -25 944 l 7 967 l 1 977 l 3 981 l 11 970 l 30 985 l 19 998 l 25 1004 l 36 989 l 64 1008 l 33 1034 l 22 1017 l 16 1021 l 27 1038 l 13 1050 l 4 1038 l 1 1042 l 9 1055 l -22 1079 l 12 1058 l 20 1069 l 25 1066 l 17 1055 l 32 1045 l 41 1059 l 47 1055 l 39 1041 l 70 1021 l 71 1058 l 54 1058 l 54 1066 l 71 1066 l 73 1083 l 60 1083 l 60 1088 l 73 1088 l 74 1132 l 78 1088 l 91 1088 l 91 1083 l 78 1083 l 80 1066 l 100 1066 l 100 1058 l 80 1058 l 83 1021 l 113 1039 l 105 1050 l 111 1056 l 121 1043 l 137 1052 l 131 1060 l 134 1064 l 141 1055 l 179 1077 l 144 1050 l 151 1040 l 148 1037 l 140 1046 l 125 1036 l 138 1019 l 132 1015 l 119 1032 l 90 1008 l 119 988 l 128 1002 l 135 998 l 125 983 l 137 975 l 142 982 l 146 980 l 141 972 l 176 947 l 138 968 l 130 957 l 125 960 l 134 970 l 121 977 l 109 960 l 102 964 l 113 981 l 83 998 l 80 958 l 99 958 l 99 950 l 79 950 l 78 939 l 87 939 l 87 932 l 77 932 l 73 881 l 71 932 l 64 932 m 294 634 l 294 640 l 298 640 l 298 646 l 286 646 l 286 652 l 298 652 l 297 677 l 279 667 l 286 657 l 283 654 l 275 664 l 261 656 l 266 650 l 263 648 l 258 655 l 235 642 l 256 658 l 252 664 l 254 667 l 258 659 l 271 669 l 264 678 l 268 682 l 275 672 l 293 685 l 273 701 l 265 690 l 261 694 l 269 705 l 260 712 l 254 705 l 252 707 l 257 715 l 237 732 l 259 718 l 264 726 l 268 723 l 262 715 l 272 709 l 279 719 l 283 715 l 277 707 l 297 693 l 298 718 l 286 718 l 286 723 l 298 723 l 300 734 l 291 734 l 291 737 l 300 737 l 300 766 l 303 737 l 311 737 l 311 734 l 303 734 l 304 723 l 318 723 l 318 718 l 304 718 l 306 693 l 326 705 l 321 713 l 325 716 l 331 708 l 342 713 l 338 719 l 340 722 l 345 715 l 370 730 l 347 712 l 351 706 l 349 704 l 344 710 l 334 703 l 343 692 l 339 689 l 330 701 l 311 685 l 330 671 l 336 680 l 340 678 l 334 669 l 342 663 l 345 667 l 348 666 l 345 661 l 368 644 l 342 659 l 337 651 l 334 652 l 339 659 l 331 664 l 323 652 l 318 655 l 326 667 l 307 677 l 304 652 l 317 652 l 317 646 l 304 646 l 303 640 l 309 640 l 309 634 l 302 634 l 300 601 l 298 634 l 294 634 m 494 -95 q 372 -68 440 -105 q 272 -29 304 -31 q 214 -31 239 -26 q 127 -68 189 -35 l 107 -76 q 200 -19 168 -28 q 264 -12 232 -10 q 325 -27 296 -14 q 410 -69 353 -40 q 541 -71 466 -98 l 494 -95 z "}}}
